M48
; DRILL file {KiCad (5.1.5)-3} date 20/02/2020 17:43:43
; FORMAT={3:3/ absolute / metric / suppress leading zeros}
; #@! TF.CreationDate,2020-02-20T17:43:43-08:00
; #@! TF.GenerationSoftware,Kicad,Pcbnew,(5.1.5)-3
; #@! TF.FileFunction,Plated,1,2,PTH
FMAT,2
METRIC,TZ
T1C0.200
T2C0.300
T3C1.000
%
G90
G05
T1
X159125Y-74525
X159125Y-75575
X159125Y-76625
X159125Y-77675
X160175Y-74525
X160175Y-75575
X160175Y-76625
X160175Y-77675
X161225Y-74525
X161225Y-75575
X161225Y-76625
X161225Y-77675
X162275Y-74525
X162275Y-75575
X162275Y-76625
X162275Y-77675
T2
X130230Y-72055
X130230Y-75055
X130230Y-78055
X130230Y-81055
X130230Y-84055
X130230Y-122305
X130230Y-125305
X130311Y-85292
X130311Y-87605
X130311Y-89918
X130311Y-92231
X130311Y-94544
X130311Y-96858
X130311Y-99171
X130311Y-101484
X130311Y-103797
X130311Y-106110
X130311Y-108423
X130311Y-110736
X130311Y-113050
X130311Y-115363
X130311Y-117676
X130311Y-119989
X130980Y-127555
X131730Y-73555
X131730Y-76555
X131730Y-79555
X131730Y-82555
X131730Y-123805
X132100Y-83775
X132480Y-126055
X133002Y-85292
X133002Y-87605
X133002Y-89918
X133002Y-92231
X133002Y-94544
X133002Y-96858
X133002Y-99171
X133002Y-101484
X133002Y-103797
X133002Y-106110
X133002Y-108423
X133002Y-110736
X133002Y-113050
X133002Y-115363
X133002Y-117676
X133002Y-119989
X133230Y-68305
X133230Y-71305
X133230Y-75055
X133230Y-78055
X133230Y-81055
X133230Y-84055
X133230Y-122305
X133230Y-128305
X133980Y-124555
X134730Y-72805
X134730Y-76555
X134730Y-79555
X134730Y-82555
X134730Y-126805
X134785Y-83775
X135480Y-123055
X135694Y-85292
X135694Y-87605
X135694Y-89918
X135694Y-92231
X135694Y-94544
X135694Y-96858
X135694Y-99171
X135694Y-101484
X135694Y-103797
X135694Y-106110
X135694Y-108423
X135694Y-110736
X135694Y-113050
X135694Y-115363
X135694Y-117676
X135694Y-119989
X136230Y-78055
X136230Y-84055
X136230Y-125305
X136230Y-128305
X136980Y-80305
X137477Y-83775
X137730Y-75805
X137730Y-123805
X137730Y-126805
X138386Y-85292
X138386Y-87605
X138386Y-89918
X138386Y-92231
X138386Y-94544
X138386Y-96858
X138386Y-99171
X138386Y-101484
X138386Y-103797
X138386Y-106110
X138386Y-108423
X138386Y-110736
X138386Y-113050
X138386Y-115363
X138386Y-117676
X138386Y-119989
X138480Y-78805
X139230Y-125305
X139230Y-128305
X139980Y-76555
X139980Y-80305
X139980Y-123055
X140169Y-83775
X140730Y-126805
X141077Y-85292
X141077Y-87605
X141077Y-89918
X141077Y-92231
X141077Y-94544
X141077Y-96858
X141077Y-99171
X141077Y-101484
X141077Y-103797
X141077Y-106110
X141077Y-108423
X141077Y-110736
X141077Y-113050
X141077Y-115363
X141077Y-117676
X141077Y-119989
X141480Y-78055
X141480Y-84055
X141480Y-124555
X142230Y-75055
X142230Y-128305
X142860Y-83775
X142980Y-79555
X142980Y-123055
X142980Y-126055
X143730Y-76555
X143769Y-85292
X143769Y-87605
X143769Y-89918
X143769Y-92231
X143769Y-94544
X143769Y-96858
X143769Y-99171
X143769Y-101484
X143769Y-103797
X143769Y-106110
X143769Y-108423
X143769Y-110736
X143769Y-113050
X143769Y-115363
X143769Y-117676
X143769Y-119989
X144480Y-124555
X144480Y-127555
X145230Y-73555
X145230Y-78055
X145552Y-83775
X145980Y-75805
X145980Y-123055
X145980Y-126055
X146460Y-85292
X146460Y-87605
X146460Y-89918
X146460Y-92231
X146460Y-94544
X146460Y-96858
X146460Y-99171
X146460Y-101484
X146460Y-103797
X146460Y-106110
X146460Y-108423
X146460Y-110736
X146460Y-113050
X146460Y-115363
X146460Y-117676
X146460Y-119989
X146500Y-74450
X146730Y-79555
X146730Y-84055
X146730Y-128305
X147480Y-77305
X147480Y-124555
X148230Y-126805
X148243Y-83775
X148980Y-75805
X148980Y-78805
X148980Y-123055
X149152Y-85292
X149152Y-87605
X149152Y-89918
X149152Y-92231
X149152Y-94544
X149152Y-96858
X149152Y-99171
X149152Y-101484
X149152Y-103797
X149152Y-106110
X149152Y-108423
X149152Y-110736
X149152Y-113050
X149152Y-115363
X149152Y-117676
X149152Y-119989
X149730Y-125305
X149730Y-128305
X150480Y-77305
X150950Y-83775
X151230Y-123805
X151230Y-126805
X151843Y-85292
X151843Y-87605
X151843Y-89918
X151843Y-92231
X151843Y-94544
X151843Y-96858
X151843Y-99171
X151843Y-101484
X151843Y-103797
X151843Y-106110
X151843Y-108423
X151843Y-110736
X151843Y-113050
X151843Y-115363
X151843Y-117676
X151843Y-119989
X152730Y-75805
X152730Y-125305
X152730Y-128305
X153480Y-123055
X153625Y-83775
X154230Y-126805
X154535Y-85292
X154535Y-87605
X154535Y-89918
X154535Y-92231
X154535Y-94544
X154535Y-96858
X154535Y-99171
X154535Y-101484
X154535Y-103797
X154535Y-106110
X154535Y-108423
X154535Y-110736
X154535Y-113050
X154535Y-115363
X154535Y-117676
X154535Y-119989
X154980Y-74305
X154980Y-81805
X154980Y-124555
X155730Y-128305
X156318Y-83775
X156480Y-79555
X156480Y-123055
X156480Y-126055
X157226Y-85292
X157226Y-87605
X157226Y-89918
X157226Y-92231
X157226Y-94544
X157226Y-96858
X157226Y-99171
X157226Y-101484
X157226Y-103797
X157226Y-106110
X157226Y-108423
X157226Y-110736
X157226Y-113050
X157226Y-115363
X157226Y-117676
X157226Y-119989
X157980Y-124555
X157980Y-127555
X159009Y-83775
X159450Y-83079
X159480Y-123055
X159480Y-126055
X159918Y-85292
X159918Y-87605
X159918Y-89918
X159918Y-92231
X159918Y-94544
X159918Y-96858
X159918Y-99171
X159918Y-101484
X159918Y-103797
X159918Y-106110
X159918Y-108423
X159918Y-110736
X159918Y-113050
X159918Y-115363
X159918Y-117676
X159918Y-119989
X160230Y-128305
X160980Y-124555
X161450Y-81275
X161730Y-126805
X162100Y-70980
X162480Y-120805
X163230Y-68305
X163230Y-71305
X163230Y-118555
X163230Y-123055
X163230Y-128305
X163980Y-125305
X164188Y-72365
X164730Y-69805
X164730Y-117055
X164730Y-120055
X165144Y-76856
X165480Y-122305
X166175Y-74625
X166230Y-68305
X166230Y-115555
X166230Y-118555
X166230Y-124555
X166980Y-70555
X166980Y-120805
X167730Y-72805
X167730Y-75805
X167730Y-78805
X167730Y-81805
X167730Y-84805
X167730Y-87805
X167730Y-90805
X167730Y-93805
X167730Y-96805
X167730Y-99805
X167730Y-102805
X167730Y-105805
X167730Y-108805
X167730Y-111805
X167730Y-117055
X167730Y-123055
T3
X136305Y-69225
X138845Y-69225
X141385Y-69225
X143925Y-69225
X146465Y-69225
X149005Y-69225
X151545Y-69225
X154085Y-69225
X156625Y-69225
X159165Y-69225
X161705Y-69225
T0
M30
