G04 #@! TF.GenerationSoftware,KiCad,Pcbnew,(5.1.5)-3*
G04 #@! TF.CreationDate,2020-02-15T00:20:02-08:00*
G04 #@! TF.ProjectId,IS31FL3733-dev,49533331-464c-4333-9733-332d6465762e,0.1*
G04 #@! TF.SameCoordinates,Original*
G04 #@! TF.FileFunction,Soldermask,Bot*
G04 #@! TF.FilePolarity,Negative*
%FSLAX46Y46*%
G04 Gerber Fmt 4.6, Leading zero omitted, Abs format (unit mm)*
G04 Created by KiCad (PCBNEW (5.1.5)-3) date 2020-02-15 00:20:02*
%MOMM*%
%LPD*%
G04 APERTURE LIST*
%ADD10C,0.100000*%
G04 APERTURE END LIST*
D10*
G36*
X142249695Y-126307154D02*
G01*
X142356051Y-126328310D01*
X142556421Y-126411306D01*
X142736745Y-126531794D01*
X142890106Y-126685155D01*
X143010594Y-126865479D01*
X143093590Y-127065850D01*
X143135901Y-127278559D01*
X143135901Y-127495439D01*
X143093590Y-127708148D01*
X143010594Y-127908519D01*
X142890106Y-128088843D01*
X142736745Y-128242204D01*
X142556421Y-128362692D01*
X142456235Y-128404190D01*
X142356051Y-128445688D01*
X142249695Y-128466844D01*
X142143341Y-128487999D01*
X141926461Y-128487999D01*
X141820107Y-128466844D01*
X141713751Y-128445688D01*
X141613567Y-128404190D01*
X141513381Y-128362692D01*
X141333057Y-128242204D01*
X141179696Y-128088843D01*
X141059208Y-127908519D01*
X140976212Y-127708148D01*
X140933901Y-127495439D01*
X140933901Y-127278559D01*
X140976212Y-127065850D01*
X141059208Y-126865479D01*
X141179696Y-126685155D01*
X141333057Y-126531794D01*
X141513381Y-126411306D01*
X141713751Y-126328310D01*
X141820107Y-126307154D01*
X141926461Y-126285999D01*
X142143341Y-126285999D01*
X142249695Y-126307154D01*
G37*
G36*
X150749695Y-126307154D02*
G01*
X150856051Y-126328310D01*
X151056421Y-126411306D01*
X151236745Y-126531794D01*
X151390106Y-126685155D01*
X151510594Y-126865479D01*
X151593590Y-127065850D01*
X151635901Y-127278559D01*
X151635901Y-127495439D01*
X151593590Y-127708148D01*
X151510594Y-127908519D01*
X151390106Y-128088843D01*
X151236745Y-128242204D01*
X151056421Y-128362692D01*
X150956235Y-128404190D01*
X150856051Y-128445688D01*
X150749695Y-128466844D01*
X150643341Y-128487999D01*
X150426461Y-128487999D01*
X150320107Y-128466844D01*
X150213751Y-128445688D01*
X150113567Y-128404190D01*
X150013381Y-128362692D01*
X149833057Y-128242204D01*
X149679696Y-128088843D01*
X149559208Y-127908519D01*
X149476212Y-127708148D01*
X149433901Y-127495439D01*
X149433901Y-127278559D01*
X149476212Y-127065850D01*
X149559208Y-126865479D01*
X149679696Y-126685155D01*
X149833057Y-126531794D01*
X150013381Y-126411306D01*
X150213751Y-126328310D01*
X150320107Y-126307154D01*
X150426461Y-126285999D01*
X150643341Y-126285999D01*
X150749695Y-126307154D01*
G37*
G36*
X159249695Y-126307154D02*
G01*
X159356051Y-126328310D01*
X159556421Y-126411306D01*
X159736745Y-126531794D01*
X159890106Y-126685155D01*
X160010594Y-126865479D01*
X160093590Y-127065850D01*
X160135901Y-127278559D01*
X160135901Y-127495439D01*
X160093590Y-127708148D01*
X160010594Y-127908519D01*
X159890106Y-128088843D01*
X159736745Y-128242204D01*
X159556421Y-128362692D01*
X159456235Y-128404190D01*
X159356051Y-128445688D01*
X159249695Y-128466844D01*
X159143341Y-128487999D01*
X158926461Y-128487999D01*
X158820107Y-128466844D01*
X158713751Y-128445688D01*
X158613567Y-128404190D01*
X158513381Y-128362692D01*
X158333057Y-128242204D01*
X158179696Y-128088843D01*
X158059208Y-127908519D01*
X157976212Y-127708148D01*
X157933901Y-127495439D01*
X157933901Y-127278559D01*
X157976212Y-127065850D01*
X158059208Y-126865479D01*
X158179696Y-126685155D01*
X158333057Y-126531794D01*
X158513381Y-126411306D01*
X158713751Y-126328310D01*
X158820107Y-126307154D01*
X158926461Y-126285999D01*
X159143341Y-126285999D01*
X159249695Y-126307154D01*
G37*
G36*
X133749695Y-126307154D02*
G01*
X133856051Y-126328310D01*
X134056421Y-126411306D01*
X134236745Y-126531794D01*
X134390106Y-126685155D01*
X134510594Y-126865479D01*
X134593590Y-127065850D01*
X134635901Y-127278559D01*
X134635901Y-127495439D01*
X134593590Y-127708148D01*
X134510594Y-127908519D01*
X134390106Y-128088843D01*
X134236745Y-128242204D01*
X134056421Y-128362692D01*
X133956235Y-128404190D01*
X133856051Y-128445688D01*
X133749695Y-128466844D01*
X133643341Y-128487999D01*
X133426461Y-128487999D01*
X133320107Y-128466844D01*
X133213751Y-128445688D01*
X133113567Y-128404190D01*
X133013381Y-128362692D01*
X132833057Y-128242204D01*
X132679696Y-128088843D01*
X132559208Y-127908519D01*
X132476212Y-127708148D01*
X132433901Y-127495439D01*
X132433901Y-127278559D01*
X132476212Y-127065850D01*
X132559208Y-126865479D01*
X132679696Y-126685155D01*
X132833057Y-126531794D01*
X133013381Y-126411306D01*
X133213751Y-126328310D01*
X133320107Y-126307154D01*
X133426461Y-126285999D01*
X133643341Y-126285999D01*
X133749695Y-126307154D01*
G37*
G36*
X166626310Y-125706533D02*
G01*
X166801150Y-125741311D01*
X166901334Y-125782809D01*
X167001520Y-125824307D01*
X167181844Y-125944795D01*
X167335205Y-126098156D01*
X167455693Y-126278480D01*
X167538689Y-126478851D01*
X167581000Y-126691560D01*
X167581000Y-126908440D01*
X167538689Y-127121149D01*
X167455693Y-127321520D01*
X167335205Y-127501844D01*
X167181844Y-127655205D01*
X167001520Y-127775693D01*
X166801150Y-127858689D01*
X166694794Y-127879845D01*
X166588440Y-127901000D01*
X166371560Y-127901000D01*
X166265206Y-127879845D01*
X166158850Y-127858689D01*
X165958480Y-127775693D01*
X165778156Y-127655205D01*
X165624795Y-127501844D01*
X165504307Y-127321520D01*
X165421311Y-127121149D01*
X165379000Y-126908440D01*
X165379000Y-126691560D01*
X165421311Y-126478851D01*
X165504307Y-126278480D01*
X165624795Y-126098156D01*
X165778156Y-125944795D01*
X165958480Y-125824307D01*
X166058666Y-125782809D01*
X166158850Y-125741311D01*
X166333690Y-125706533D01*
X166371560Y-125699000D01*
X166588440Y-125699000D01*
X166626310Y-125706533D01*
G37*
G36*
X159249695Y-123525688D02*
G01*
X159356051Y-123546844D01*
X159556421Y-123629840D01*
X159736745Y-123750328D01*
X159890106Y-123903689D01*
X160010594Y-124084013D01*
X160093590Y-124284384D01*
X160135901Y-124497093D01*
X160135901Y-124713973D01*
X160093590Y-124926682D01*
X160010594Y-125127053D01*
X159890106Y-125307377D01*
X159736745Y-125460738D01*
X159556421Y-125581226D01*
X159456235Y-125622724D01*
X159356051Y-125664222D01*
X159249695Y-125685378D01*
X159143341Y-125706533D01*
X158926461Y-125706533D01*
X158820107Y-125685378D01*
X158713751Y-125664222D01*
X158613567Y-125622724D01*
X158513381Y-125581226D01*
X158333057Y-125460738D01*
X158179696Y-125307377D01*
X158059208Y-125127053D01*
X157976212Y-124926682D01*
X157933901Y-124713973D01*
X157933901Y-124497093D01*
X157976212Y-124284384D01*
X158059208Y-124084013D01*
X158179696Y-123903689D01*
X158333057Y-123750328D01*
X158513381Y-123629840D01*
X158713751Y-123546844D01*
X158820107Y-123525688D01*
X158926461Y-123504533D01*
X159143341Y-123504533D01*
X159249695Y-123525688D01*
G37*
G36*
X150749695Y-123525688D02*
G01*
X150856051Y-123546844D01*
X151056421Y-123629840D01*
X151236745Y-123750328D01*
X151390106Y-123903689D01*
X151510594Y-124084013D01*
X151593590Y-124284384D01*
X151635901Y-124497093D01*
X151635901Y-124713973D01*
X151593590Y-124926682D01*
X151510594Y-125127053D01*
X151390106Y-125307377D01*
X151236745Y-125460738D01*
X151056421Y-125581226D01*
X150956235Y-125622724D01*
X150856051Y-125664222D01*
X150749695Y-125685378D01*
X150643341Y-125706533D01*
X150426461Y-125706533D01*
X150320107Y-125685378D01*
X150213751Y-125664222D01*
X150113567Y-125622724D01*
X150013381Y-125581226D01*
X149833057Y-125460738D01*
X149679696Y-125307377D01*
X149559208Y-125127053D01*
X149476212Y-124926682D01*
X149433901Y-124713973D01*
X149433901Y-124497093D01*
X149476212Y-124284384D01*
X149559208Y-124084013D01*
X149679696Y-123903689D01*
X149833057Y-123750328D01*
X150013381Y-123629840D01*
X150213751Y-123546844D01*
X150320107Y-123525688D01*
X150426461Y-123504533D01*
X150643341Y-123504533D01*
X150749695Y-123525688D01*
G37*
G36*
X142249695Y-123525688D02*
G01*
X142356051Y-123546844D01*
X142556421Y-123629840D01*
X142736745Y-123750328D01*
X142890106Y-123903689D01*
X143010594Y-124084013D01*
X143093590Y-124284384D01*
X143135901Y-124497093D01*
X143135901Y-124713973D01*
X143093590Y-124926682D01*
X143010594Y-125127053D01*
X142890106Y-125307377D01*
X142736745Y-125460738D01*
X142556421Y-125581226D01*
X142456235Y-125622724D01*
X142356051Y-125664222D01*
X142249695Y-125685378D01*
X142143341Y-125706533D01*
X141926461Y-125706533D01*
X141820107Y-125685378D01*
X141713751Y-125664222D01*
X141613567Y-125622724D01*
X141513381Y-125581226D01*
X141333057Y-125460738D01*
X141179696Y-125307377D01*
X141059208Y-125127053D01*
X140976212Y-124926682D01*
X140933901Y-124713973D01*
X140933901Y-124497093D01*
X140976212Y-124284384D01*
X141059208Y-124084013D01*
X141179696Y-123903689D01*
X141333057Y-123750328D01*
X141513381Y-123629840D01*
X141713751Y-123546844D01*
X141820107Y-123525688D01*
X141926461Y-123504533D01*
X142143341Y-123504533D01*
X142249695Y-123525688D01*
G37*
G36*
X133749695Y-123525688D02*
G01*
X133856051Y-123546844D01*
X134056421Y-123629840D01*
X134236745Y-123750328D01*
X134390106Y-123903689D01*
X134510594Y-124084013D01*
X134593590Y-124284384D01*
X134635901Y-124497093D01*
X134635901Y-124713973D01*
X134593590Y-124926682D01*
X134510594Y-125127053D01*
X134390106Y-125307377D01*
X134236745Y-125460738D01*
X134056421Y-125581226D01*
X133956235Y-125622724D01*
X133856051Y-125664222D01*
X133749695Y-125685378D01*
X133643341Y-125706533D01*
X133426461Y-125706533D01*
X133320107Y-125685378D01*
X133213751Y-125664222D01*
X133113567Y-125622724D01*
X133013381Y-125581226D01*
X132833057Y-125460738D01*
X132679696Y-125307377D01*
X132559208Y-125127053D01*
X132476212Y-124926682D01*
X132433901Y-124713973D01*
X132433901Y-124497093D01*
X132476212Y-124284384D01*
X132559208Y-124084013D01*
X132679696Y-123903689D01*
X132833057Y-123750328D01*
X133013381Y-123629840D01*
X133213751Y-123546844D01*
X133320107Y-123525688D01*
X133426461Y-123504533D01*
X133643341Y-123504533D01*
X133749695Y-123525688D01*
G37*
G36*
X150749695Y-120744222D02*
G01*
X150856051Y-120765378D01*
X151056421Y-120848374D01*
X151236745Y-120968862D01*
X151390106Y-121122223D01*
X151510594Y-121302547D01*
X151593590Y-121502918D01*
X151635901Y-121715627D01*
X151635901Y-121932507D01*
X151593590Y-122145216D01*
X151510594Y-122345587D01*
X151390106Y-122525911D01*
X151236745Y-122679272D01*
X151056421Y-122799760D01*
X150856051Y-122882756D01*
X150749695Y-122903912D01*
X150643341Y-122925067D01*
X150426461Y-122925067D01*
X150320107Y-122903912D01*
X150213751Y-122882756D01*
X150013381Y-122799760D01*
X149833057Y-122679272D01*
X149679696Y-122525911D01*
X149559208Y-122345587D01*
X149476212Y-122145216D01*
X149433901Y-121932507D01*
X149433901Y-121715627D01*
X149476212Y-121502918D01*
X149559208Y-121302547D01*
X149679696Y-121122223D01*
X149833057Y-120968862D01*
X150013381Y-120848374D01*
X150213751Y-120765378D01*
X150320107Y-120744222D01*
X150426461Y-120723067D01*
X150643341Y-120723067D01*
X150749695Y-120744222D01*
G37*
G36*
X159249695Y-120744222D02*
G01*
X159356051Y-120765378D01*
X159556421Y-120848374D01*
X159736745Y-120968862D01*
X159890106Y-121122223D01*
X160010594Y-121302547D01*
X160093590Y-121502918D01*
X160135901Y-121715627D01*
X160135901Y-121932507D01*
X160093590Y-122145216D01*
X160010594Y-122345587D01*
X159890106Y-122525911D01*
X159736745Y-122679272D01*
X159556421Y-122799760D01*
X159356051Y-122882756D01*
X159249695Y-122903912D01*
X159143341Y-122925067D01*
X158926461Y-122925067D01*
X158820107Y-122903912D01*
X158713751Y-122882756D01*
X158513381Y-122799760D01*
X158333057Y-122679272D01*
X158179696Y-122525911D01*
X158059208Y-122345587D01*
X157976212Y-122145216D01*
X157933901Y-121932507D01*
X157933901Y-121715627D01*
X157976212Y-121502918D01*
X158059208Y-121302547D01*
X158179696Y-121122223D01*
X158333057Y-120968862D01*
X158513381Y-120848374D01*
X158713751Y-120765378D01*
X158820107Y-120744222D01*
X158926461Y-120723067D01*
X159143341Y-120723067D01*
X159249695Y-120744222D01*
G37*
G36*
X142249695Y-120744222D02*
G01*
X142356051Y-120765378D01*
X142556421Y-120848374D01*
X142736745Y-120968862D01*
X142890106Y-121122223D01*
X143010594Y-121302547D01*
X143093590Y-121502918D01*
X143135901Y-121715627D01*
X143135901Y-121932507D01*
X143093590Y-122145216D01*
X143010594Y-122345587D01*
X142890106Y-122525911D01*
X142736745Y-122679272D01*
X142556421Y-122799760D01*
X142356051Y-122882756D01*
X142249695Y-122903912D01*
X142143341Y-122925067D01*
X141926461Y-122925067D01*
X141820107Y-122903912D01*
X141713751Y-122882756D01*
X141513381Y-122799760D01*
X141333057Y-122679272D01*
X141179696Y-122525911D01*
X141059208Y-122345587D01*
X140976212Y-122145216D01*
X140933901Y-121932507D01*
X140933901Y-121715627D01*
X140976212Y-121502918D01*
X141059208Y-121302547D01*
X141179696Y-121122223D01*
X141333057Y-120968862D01*
X141513381Y-120848374D01*
X141713751Y-120765378D01*
X141820107Y-120744222D01*
X141926461Y-120723067D01*
X142143341Y-120723067D01*
X142249695Y-120744222D01*
G37*
G36*
X133749695Y-120744222D02*
G01*
X133856051Y-120765378D01*
X134056421Y-120848374D01*
X134236745Y-120968862D01*
X134390106Y-121122223D01*
X134510594Y-121302547D01*
X134593590Y-121502918D01*
X134635901Y-121715627D01*
X134635901Y-121932507D01*
X134593590Y-122145216D01*
X134510594Y-122345587D01*
X134390106Y-122525911D01*
X134236745Y-122679272D01*
X134056421Y-122799760D01*
X133856051Y-122882756D01*
X133749695Y-122903912D01*
X133643341Y-122925067D01*
X133426461Y-122925067D01*
X133320107Y-122903912D01*
X133213751Y-122882756D01*
X133013381Y-122799760D01*
X132833057Y-122679272D01*
X132679696Y-122525911D01*
X132559208Y-122345587D01*
X132476212Y-122145216D01*
X132433901Y-121932507D01*
X132433901Y-121715627D01*
X132476212Y-121502918D01*
X132559208Y-121302547D01*
X132679696Y-121122223D01*
X132833057Y-120968862D01*
X133013381Y-120848374D01*
X133213751Y-120765378D01*
X133320107Y-120744222D01*
X133426461Y-120723067D01*
X133643341Y-120723067D01*
X133749695Y-120744222D01*
G37*
G36*
X142249695Y-117962756D02*
G01*
X142356051Y-117983912D01*
X142456235Y-118025410D01*
X142556421Y-118066908D01*
X142736745Y-118187396D01*
X142890106Y-118340757D01*
X143010594Y-118521081D01*
X143093590Y-118721452D01*
X143135901Y-118934161D01*
X143135901Y-119151041D01*
X143093590Y-119363750D01*
X143010594Y-119564121D01*
X142890106Y-119744445D01*
X142736745Y-119897806D01*
X142556421Y-120018294D01*
X142356051Y-120101290D01*
X142249695Y-120122446D01*
X142143341Y-120143601D01*
X141926461Y-120143601D01*
X141820107Y-120122446D01*
X141713751Y-120101290D01*
X141513381Y-120018294D01*
X141333057Y-119897806D01*
X141179696Y-119744445D01*
X141059208Y-119564121D01*
X140976212Y-119363750D01*
X140933901Y-119151041D01*
X140933901Y-118934161D01*
X140976212Y-118721452D01*
X141059208Y-118521081D01*
X141179696Y-118340757D01*
X141333057Y-118187396D01*
X141513381Y-118066908D01*
X141613567Y-118025410D01*
X141713751Y-117983912D01*
X141820107Y-117962756D01*
X141926461Y-117941601D01*
X142143341Y-117941601D01*
X142249695Y-117962756D01*
G37*
G36*
X133749695Y-117962756D02*
G01*
X133856051Y-117983912D01*
X133956235Y-118025410D01*
X134056421Y-118066908D01*
X134236745Y-118187396D01*
X134390106Y-118340757D01*
X134510594Y-118521081D01*
X134593590Y-118721452D01*
X134635901Y-118934161D01*
X134635901Y-119151041D01*
X134593590Y-119363750D01*
X134510594Y-119564121D01*
X134390106Y-119744445D01*
X134236745Y-119897806D01*
X134056421Y-120018294D01*
X133856051Y-120101290D01*
X133749695Y-120122446D01*
X133643341Y-120143601D01*
X133426461Y-120143601D01*
X133320107Y-120122446D01*
X133213751Y-120101290D01*
X133013381Y-120018294D01*
X132833057Y-119897806D01*
X132679696Y-119744445D01*
X132559208Y-119564121D01*
X132476212Y-119363750D01*
X132433901Y-119151041D01*
X132433901Y-118934161D01*
X132476212Y-118721452D01*
X132559208Y-118521081D01*
X132679696Y-118340757D01*
X132833057Y-118187396D01*
X133013381Y-118066908D01*
X133113567Y-118025410D01*
X133213751Y-117983912D01*
X133320107Y-117962756D01*
X133426461Y-117941601D01*
X133643341Y-117941601D01*
X133749695Y-117962756D01*
G37*
G36*
X159249695Y-117962756D02*
G01*
X159356051Y-117983912D01*
X159456235Y-118025410D01*
X159556421Y-118066908D01*
X159736745Y-118187396D01*
X159890106Y-118340757D01*
X160010594Y-118521081D01*
X160093590Y-118721452D01*
X160135901Y-118934161D01*
X160135901Y-119151041D01*
X160093590Y-119363750D01*
X160010594Y-119564121D01*
X159890106Y-119744445D01*
X159736745Y-119897806D01*
X159556421Y-120018294D01*
X159356051Y-120101290D01*
X159249695Y-120122446D01*
X159143341Y-120143601D01*
X158926461Y-120143601D01*
X158820107Y-120122446D01*
X158713751Y-120101290D01*
X158513381Y-120018294D01*
X158333057Y-119897806D01*
X158179696Y-119744445D01*
X158059208Y-119564121D01*
X157976212Y-119363750D01*
X157933901Y-119151041D01*
X157933901Y-118934161D01*
X157976212Y-118721452D01*
X158059208Y-118521081D01*
X158179696Y-118340757D01*
X158333057Y-118187396D01*
X158513381Y-118066908D01*
X158613567Y-118025410D01*
X158713751Y-117983912D01*
X158820107Y-117962756D01*
X158926461Y-117941601D01*
X159143341Y-117941601D01*
X159249695Y-117962756D01*
G37*
G36*
X150749695Y-117962756D02*
G01*
X150856051Y-117983912D01*
X150956235Y-118025410D01*
X151056421Y-118066908D01*
X151236745Y-118187396D01*
X151390106Y-118340757D01*
X151510594Y-118521081D01*
X151593590Y-118721452D01*
X151635901Y-118934161D01*
X151635901Y-119151041D01*
X151593590Y-119363750D01*
X151510594Y-119564121D01*
X151390106Y-119744445D01*
X151236745Y-119897806D01*
X151056421Y-120018294D01*
X150856051Y-120101290D01*
X150749695Y-120122446D01*
X150643341Y-120143601D01*
X150426461Y-120143601D01*
X150320107Y-120122446D01*
X150213751Y-120101290D01*
X150013381Y-120018294D01*
X149833057Y-119897806D01*
X149679696Y-119744445D01*
X149559208Y-119564121D01*
X149476212Y-119363750D01*
X149433901Y-119151041D01*
X149433901Y-118934161D01*
X149476212Y-118721452D01*
X149559208Y-118521081D01*
X149679696Y-118340757D01*
X149833057Y-118187396D01*
X150013381Y-118066908D01*
X150113567Y-118025410D01*
X150213751Y-117983912D01*
X150320107Y-117962756D01*
X150426461Y-117941601D01*
X150643341Y-117941601D01*
X150749695Y-117962756D01*
G37*
G36*
X159249695Y-115181290D02*
G01*
X159356051Y-115202446D01*
X159556421Y-115285442D01*
X159736745Y-115405930D01*
X159890106Y-115559291D01*
X160010594Y-115739615D01*
X160093590Y-115939986D01*
X160135901Y-116152695D01*
X160135901Y-116369575D01*
X160093590Y-116582284D01*
X160010594Y-116782655D01*
X159890106Y-116962979D01*
X159736745Y-117116340D01*
X159556421Y-117236828D01*
X159456235Y-117278326D01*
X159356051Y-117319824D01*
X159249695Y-117340980D01*
X159143341Y-117362135D01*
X158926461Y-117362135D01*
X158820107Y-117340980D01*
X158713751Y-117319824D01*
X158613567Y-117278326D01*
X158513381Y-117236828D01*
X158333057Y-117116340D01*
X158179696Y-116962979D01*
X158059208Y-116782655D01*
X157976212Y-116582284D01*
X157933901Y-116369575D01*
X157933901Y-116152695D01*
X157976212Y-115939986D01*
X158059208Y-115739615D01*
X158179696Y-115559291D01*
X158333057Y-115405930D01*
X158513381Y-115285442D01*
X158713751Y-115202446D01*
X158820107Y-115181290D01*
X158926461Y-115160135D01*
X159143341Y-115160135D01*
X159249695Y-115181290D01*
G37*
G36*
X150749695Y-115181290D02*
G01*
X150856051Y-115202446D01*
X151056421Y-115285442D01*
X151236745Y-115405930D01*
X151390106Y-115559291D01*
X151510594Y-115739615D01*
X151593590Y-115939986D01*
X151635901Y-116152695D01*
X151635901Y-116369575D01*
X151593590Y-116582284D01*
X151510594Y-116782655D01*
X151390106Y-116962979D01*
X151236745Y-117116340D01*
X151056421Y-117236828D01*
X150956235Y-117278326D01*
X150856051Y-117319824D01*
X150749695Y-117340980D01*
X150643341Y-117362135D01*
X150426461Y-117362135D01*
X150320107Y-117340980D01*
X150213751Y-117319824D01*
X150113567Y-117278326D01*
X150013381Y-117236828D01*
X149833057Y-117116340D01*
X149679696Y-116962979D01*
X149559208Y-116782655D01*
X149476212Y-116582284D01*
X149433901Y-116369575D01*
X149433901Y-116152695D01*
X149476212Y-115939986D01*
X149559208Y-115739615D01*
X149679696Y-115559291D01*
X149833057Y-115405930D01*
X150013381Y-115285442D01*
X150213751Y-115202446D01*
X150320107Y-115181290D01*
X150426461Y-115160135D01*
X150643341Y-115160135D01*
X150749695Y-115181290D01*
G37*
G36*
X142249695Y-115181290D02*
G01*
X142356051Y-115202446D01*
X142556421Y-115285442D01*
X142736745Y-115405930D01*
X142890106Y-115559291D01*
X143010594Y-115739615D01*
X143093590Y-115939986D01*
X143135901Y-116152695D01*
X143135901Y-116369575D01*
X143093590Y-116582284D01*
X143010594Y-116782655D01*
X142890106Y-116962979D01*
X142736745Y-117116340D01*
X142556421Y-117236828D01*
X142456235Y-117278326D01*
X142356051Y-117319824D01*
X142249695Y-117340980D01*
X142143341Y-117362135D01*
X141926461Y-117362135D01*
X141820107Y-117340980D01*
X141713751Y-117319824D01*
X141613567Y-117278326D01*
X141513381Y-117236828D01*
X141333057Y-117116340D01*
X141179696Y-116962979D01*
X141059208Y-116782655D01*
X140976212Y-116582284D01*
X140933901Y-116369575D01*
X140933901Y-116152695D01*
X140976212Y-115939986D01*
X141059208Y-115739615D01*
X141179696Y-115559291D01*
X141333057Y-115405930D01*
X141513381Y-115285442D01*
X141713751Y-115202446D01*
X141820107Y-115181290D01*
X141926461Y-115160135D01*
X142143341Y-115160135D01*
X142249695Y-115181290D01*
G37*
G36*
X133749695Y-115181290D02*
G01*
X133856051Y-115202446D01*
X134056421Y-115285442D01*
X134236745Y-115405930D01*
X134390106Y-115559291D01*
X134510594Y-115739615D01*
X134593590Y-115939986D01*
X134635901Y-116152695D01*
X134635901Y-116369575D01*
X134593590Y-116582284D01*
X134510594Y-116782655D01*
X134390106Y-116962979D01*
X134236745Y-117116340D01*
X134056421Y-117236828D01*
X133956235Y-117278326D01*
X133856051Y-117319824D01*
X133749695Y-117340980D01*
X133643341Y-117362135D01*
X133426461Y-117362135D01*
X133320107Y-117340980D01*
X133213751Y-117319824D01*
X133113567Y-117278326D01*
X133013381Y-117236828D01*
X132833057Y-117116340D01*
X132679696Y-116962979D01*
X132559208Y-116782655D01*
X132476212Y-116582284D01*
X132433901Y-116369575D01*
X132433901Y-116152695D01*
X132476212Y-115939986D01*
X132559208Y-115739615D01*
X132679696Y-115559291D01*
X132833057Y-115405930D01*
X133013381Y-115285442D01*
X133213751Y-115202446D01*
X133320107Y-115181290D01*
X133426461Y-115160135D01*
X133643341Y-115160135D01*
X133749695Y-115181290D01*
G37*
G36*
X142249695Y-112399824D02*
G01*
X142356051Y-112420980D01*
X142456235Y-112462478D01*
X142556421Y-112503976D01*
X142736745Y-112624464D01*
X142890106Y-112777825D01*
X143010594Y-112958149D01*
X143093590Y-113158520D01*
X143135901Y-113371229D01*
X143135901Y-113588109D01*
X143093590Y-113800818D01*
X143010594Y-114001189D01*
X142890106Y-114181513D01*
X142736745Y-114334874D01*
X142556421Y-114455362D01*
X142356051Y-114538358D01*
X142249695Y-114559514D01*
X142143341Y-114580669D01*
X141926461Y-114580669D01*
X141820107Y-114559514D01*
X141713751Y-114538358D01*
X141513381Y-114455362D01*
X141333057Y-114334874D01*
X141179696Y-114181513D01*
X141059208Y-114001189D01*
X140976212Y-113800818D01*
X140933901Y-113588109D01*
X140933901Y-113371229D01*
X140976212Y-113158520D01*
X141059208Y-112958149D01*
X141179696Y-112777825D01*
X141333057Y-112624464D01*
X141513381Y-112503976D01*
X141613567Y-112462478D01*
X141713751Y-112420980D01*
X141820107Y-112399824D01*
X141926461Y-112378669D01*
X142143341Y-112378669D01*
X142249695Y-112399824D01*
G37*
G36*
X159249695Y-112399824D02*
G01*
X159356051Y-112420980D01*
X159456235Y-112462478D01*
X159556421Y-112503976D01*
X159736745Y-112624464D01*
X159890106Y-112777825D01*
X160010594Y-112958149D01*
X160093590Y-113158520D01*
X160135901Y-113371229D01*
X160135901Y-113588109D01*
X160093590Y-113800818D01*
X160010594Y-114001189D01*
X159890106Y-114181513D01*
X159736745Y-114334874D01*
X159556421Y-114455362D01*
X159356051Y-114538358D01*
X159249695Y-114559514D01*
X159143341Y-114580669D01*
X158926461Y-114580669D01*
X158820107Y-114559514D01*
X158713751Y-114538358D01*
X158513381Y-114455362D01*
X158333057Y-114334874D01*
X158179696Y-114181513D01*
X158059208Y-114001189D01*
X157976212Y-113800818D01*
X157933901Y-113588109D01*
X157933901Y-113371229D01*
X157976212Y-113158520D01*
X158059208Y-112958149D01*
X158179696Y-112777825D01*
X158333057Y-112624464D01*
X158513381Y-112503976D01*
X158613567Y-112462478D01*
X158713751Y-112420980D01*
X158820107Y-112399824D01*
X158926461Y-112378669D01*
X159143341Y-112378669D01*
X159249695Y-112399824D01*
G37*
G36*
X150749695Y-112399824D02*
G01*
X150856051Y-112420980D01*
X150956235Y-112462478D01*
X151056421Y-112503976D01*
X151236745Y-112624464D01*
X151390106Y-112777825D01*
X151510594Y-112958149D01*
X151593590Y-113158520D01*
X151635901Y-113371229D01*
X151635901Y-113588109D01*
X151593590Y-113800818D01*
X151510594Y-114001189D01*
X151390106Y-114181513D01*
X151236745Y-114334874D01*
X151056421Y-114455362D01*
X150856051Y-114538358D01*
X150749695Y-114559514D01*
X150643341Y-114580669D01*
X150426461Y-114580669D01*
X150320107Y-114559514D01*
X150213751Y-114538358D01*
X150013381Y-114455362D01*
X149833057Y-114334874D01*
X149679696Y-114181513D01*
X149559208Y-114001189D01*
X149476212Y-113800818D01*
X149433901Y-113588109D01*
X149433901Y-113371229D01*
X149476212Y-113158520D01*
X149559208Y-112958149D01*
X149679696Y-112777825D01*
X149833057Y-112624464D01*
X150013381Y-112503976D01*
X150113567Y-112462478D01*
X150213751Y-112420980D01*
X150320107Y-112399824D01*
X150426461Y-112378669D01*
X150643341Y-112378669D01*
X150749695Y-112399824D01*
G37*
G36*
X133749695Y-112399824D02*
G01*
X133856051Y-112420980D01*
X133956235Y-112462478D01*
X134056421Y-112503976D01*
X134236745Y-112624464D01*
X134390106Y-112777825D01*
X134510594Y-112958149D01*
X134593590Y-113158520D01*
X134635901Y-113371229D01*
X134635901Y-113588109D01*
X134593590Y-113800818D01*
X134510594Y-114001189D01*
X134390106Y-114181513D01*
X134236745Y-114334874D01*
X134056421Y-114455362D01*
X133856051Y-114538358D01*
X133749695Y-114559514D01*
X133643341Y-114580669D01*
X133426461Y-114580669D01*
X133320107Y-114559514D01*
X133213751Y-114538358D01*
X133013381Y-114455362D01*
X132833057Y-114334874D01*
X132679696Y-114181513D01*
X132559208Y-114001189D01*
X132476212Y-113800818D01*
X132433901Y-113588109D01*
X132433901Y-113371229D01*
X132476212Y-113158520D01*
X132559208Y-112958149D01*
X132679696Y-112777825D01*
X132833057Y-112624464D01*
X133013381Y-112503976D01*
X133113567Y-112462478D01*
X133213751Y-112420980D01*
X133320107Y-112399824D01*
X133426461Y-112378669D01*
X133643341Y-112378669D01*
X133749695Y-112399824D01*
G37*
G36*
X159249695Y-109618358D02*
G01*
X159356051Y-109639514D01*
X159556421Y-109722510D01*
X159736745Y-109842998D01*
X159890106Y-109996359D01*
X160010594Y-110176683D01*
X160093590Y-110377054D01*
X160135901Y-110589763D01*
X160135901Y-110806643D01*
X160093590Y-111019352D01*
X160010594Y-111219723D01*
X159890106Y-111400047D01*
X159736745Y-111553408D01*
X159556421Y-111673896D01*
X159356051Y-111756892D01*
X159249695Y-111778048D01*
X159143341Y-111799203D01*
X158926461Y-111799203D01*
X158820107Y-111778048D01*
X158713751Y-111756892D01*
X158513381Y-111673896D01*
X158333057Y-111553408D01*
X158179696Y-111400047D01*
X158059208Y-111219723D01*
X157976212Y-111019352D01*
X157933901Y-110806643D01*
X157933901Y-110589763D01*
X157976212Y-110377054D01*
X158059208Y-110176683D01*
X158179696Y-109996359D01*
X158333057Y-109842998D01*
X158513381Y-109722510D01*
X158613567Y-109681012D01*
X158713751Y-109639514D01*
X158820107Y-109618358D01*
X158926461Y-109597203D01*
X159143341Y-109597203D01*
X159249695Y-109618358D01*
G37*
G36*
X150749695Y-109618358D02*
G01*
X150856051Y-109639514D01*
X151056421Y-109722510D01*
X151236745Y-109842998D01*
X151390106Y-109996359D01*
X151510594Y-110176683D01*
X151593590Y-110377054D01*
X151635901Y-110589763D01*
X151635901Y-110806643D01*
X151593590Y-111019352D01*
X151510594Y-111219723D01*
X151390106Y-111400047D01*
X151236745Y-111553408D01*
X151056421Y-111673896D01*
X150856051Y-111756892D01*
X150749695Y-111778048D01*
X150643341Y-111799203D01*
X150426461Y-111799203D01*
X150320107Y-111778048D01*
X150213751Y-111756892D01*
X150013381Y-111673896D01*
X149833057Y-111553408D01*
X149679696Y-111400047D01*
X149559208Y-111219723D01*
X149476212Y-111019352D01*
X149433901Y-110806643D01*
X149433901Y-110589763D01*
X149476212Y-110377054D01*
X149559208Y-110176683D01*
X149679696Y-109996359D01*
X149833057Y-109842998D01*
X150013381Y-109722510D01*
X150113567Y-109681012D01*
X150213751Y-109639514D01*
X150320107Y-109618358D01*
X150426461Y-109597203D01*
X150643341Y-109597203D01*
X150749695Y-109618358D01*
G37*
G36*
X133749695Y-109618358D02*
G01*
X133856051Y-109639514D01*
X134056421Y-109722510D01*
X134236745Y-109842998D01*
X134390106Y-109996359D01*
X134510594Y-110176683D01*
X134593590Y-110377054D01*
X134635901Y-110589763D01*
X134635901Y-110806643D01*
X134593590Y-111019352D01*
X134510594Y-111219723D01*
X134390106Y-111400047D01*
X134236745Y-111553408D01*
X134056421Y-111673896D01*
X133856051Y-111756892D01*
X133749695Y-111778048D01*
X133643341Y-111799203D01*
X133426461Y-111799203D01*
X133320107Y-111778048D01*
X133213751Y-111756892D01*
X133013381Y-111673896D01*
X132833057Y-111553408D01*
X132679696Y-111400047D01*
X132559208Y-111219723D01*
X132476212Y-111019352D01*
X132433901Y-110806643D01*
X132433901Y-110589763D01*
X132476212Y-110377054D01*
X132559208Y-110176683D01*
X132679696Y-109996359D01*
X132833057Y-109842998D01*
X133013381Y-109722510D01*
X133113567Y-109681012D01*
X133213751Y-109639514D01*
X133320107Y-109618358D01*
X133426461Y-109597203D01*
X133643341Y-109597203D01*
X133749695Y-109618358D01*
G37*
G36*
X142249695Y-109618358D02*
G01*
X142356051Y-109639514D01*
X142556421Y-109722510D01*
X142736745Y-109842998D01*
X142890106Y-109996359D01*
X143010594Y-110176683D01*
X143093590Y-110377054D01*
X143135901Y-110589763D01*
X143135901Y-110806643D01*
X143093590Y-111019352D01*
X143010594Y-111219723D01*
X142890106Y-111400047D01*
X142736745Y-111553408D01*
X142556421Y-111673896D01*
X142356051Y-111756892D01*
X142249695Y-111778048D01*
X142143341Y-111799203D01*
X141926461Y-111799203D01*
X141820107Y-111778048D01*
X141713751Y-111756892D01*
X141513381Y-111673896D01*
X141333057Y-111553408D01*
X141179696Y-111400047D01*
X141059208Y-111219723D01*
X140976212Y-111019352D01*
X140933901Y-110806643D01*
X140933901Y-110589763D01*
X140976212Y-110377054D01*
X141059208Y-110176683D01*
X141179696Y-109996359D01*
X141333057Y-109842998D01*
X141513381Y-109722510D01*
X141613567Y-109681012D01*
X141713751Y-109639514D01*
X141820107Y-109618358D01*
X141926461Y-109597203D01*
X142143341Y-109597203D01*
X142249695Y-109618358D01*
G37*
G36*
X159249695Y-106836892D02*
G01*
X159356051Y-106858048D01*
X159456235Y-106899546D01*
X159556421Y-106941044D01*
X159736745Y-107061532D01*
X159890106Y-107214893D01*
X160010594Y-107395217D01*
X160093590Y-107595588D01*
X160135901Y-107808297D01*
X160135901Y-108025177D01*
X160093590Y-108237886D01*
X160010594Y-108438257D01*
X159890106Y-108618581D01*
X159736745Y-108771942D01*
X159556421Y-108892430D01*
X159456235Y-108933928D01*
X159356051Y-108975426D01*
X159249695Y-108996582D01*
X159143341Y-109017737D01*
X158926461Y-109017737D01*
X158820107Y-108996582D01*
X158713751Y-108975426D01*
X158513381Y-108892430D01*
X158333057Y-108771942D01*
X158179696Y-108618581D01*
X158059208Y-108438257D01*
X157976212Y-108237886D01*
X157933901Y-108025177D01*
X157933901Y-107808297D01*
X157976212Y-107595588D01*
X158059208Y-107395217D01*
X158179696Y-107214893D01*
X158333057Y-107061532D01*
X158513381Y-106941044D01*
X158713751Y-106858048D01*
X158820107Y-106836892D01*
X158926461Y-106815737D01*
X159143341Y-106815737D01*
X159249695Y-106836892D01*
G37*
G36*
X150749695Y-106836892D02*
G01*
X150856051Y-106858048D01*
X150956235Y-106899546D01*
X151056421Y-106941044D01*
X151236745Y-107061532D01*
X151390106Y-107214893D01*
X151510594Y-107395217D01*
X151593590Y-107595588D01*
X151635901Y-107808297D01*
X151635901Y-108025177D01*
X151593590Y-108237886D01*
X151510594Y-108438257D01*
X151390106Y-108618581D01*
X151236745Y-108771942D01*
X151056421Y-108892430D01*
X150956235Y-108933928D01*
X150856051Y-108975426D01*
X150749695Y-108996582D01*
X150643341Y-109017737D01*
X150426461Y-109017737D01*
X150320107Y-108996582D01*
X150213751Y-108975426D01*
X150013381Y-108892430D01*
X149833057Y-108771942D01*
X149679696Y-108618581D01*
X149559208Y-108438257D01*
X149476212Y-108237886D01*
X149433901Y-108025177D01*
X149433901Y-107808297D01*
X149476212Y-107595588D01*
X149559208Y-107395217D01*
X149679696Y-107214893D01*
X149833057Y-107061532D01*
X150013381Y-106941044D01*
X150213751Y-106858048D01*
X150320107Y-106836892D01*
X150426461Y-106815737D01*
X150643341Y-106815737D01*
X150749695Y-106836892D01*
G37*
G36*
X142249695Y-106836892D02*
G01*
X142356051Y-106858048D01*
X142456235Y-106899546D01*
X142556421Y-106941044D01*
X142736745Y-107061532D01*
X142890106Y-107214893D01*
X143010594Y-107395217D01*
X143093590Y-107595588D01*
X143135901Y-107808297D01*
X143135901Y-108025177D01*
X143093590Y-108237886D01*
X143010594Y-108438257D01*
X142890106Y-108618581D01*
X142736745Y-108771942D01*
X142556421Y-108892430D01*
X142456235Y-108933928D01*
X142356051Y-108975426D01*
X142249695Y-108996582D01*
X142143341Y-109017737D01*
X141926461Y-109017737D01*
X141820107Y-108996582D01*
X141713751Y-108975426D01*
X141513381Y-108892430D01*
X141333057Y-108771942D01*
X141179696Y-108618581D01*
X141059208Y-108438257D01*
X140976212Y-108237886D01*
X140933901Y-108025177D01*
X140933901Y-107808297D01*
X140976212Y-107595588D01*
X141059208Y-107395217D01*
X141179696Y-107214893D01*
X141333057Y-107061532D01*
X141513381Y-106941044D01*
X141713751Y-106858048D01*
X141820107Y-106836892D01*
X141926461Y-106815737D01*
X142143341Y-106815737D01*
X142249695Y-106836892D01*
G37*
G36*
X133749695Y-106836892D02*
G01*
X133856051Y-106858048D01*
X133956235Y-106899546D01*
X134056421Y-106941044D01*
X134236745Y-107061532D01*
X134390106Y-107214893D01*
X134510594Y-107395217D01*
X134593590Y-107595588D01*
X134635901Y-107808297D01*
X134635901Y-108025177D01*
X134593590Y-108237886D01*
X134510594Y-108438257D01*
X134390106Y-108618581D01*
X134236745Y-108771942D01*
X134056421Y-108892430D01*
X133956235Y-108933928D01*
X133856051Y-108975426D01*
X133749695Y-108996582D01*
X133643341Y-109017737D01*
X133426461Y-109017737D01*
X133320107Y-108996582D01*
X133213751Y-108975426D01*
X133013381Y-108892430D01*
X132833057Y-108771942D01*
X132679696Y-108618581D01*
X132559208Y-108438257D01*
X132476212Y-108237886D01*
X132433901Y-108025177D01*
X132433901Y-107808297D01*
X132476212Y-107595588D01*
X132559208Y-107395217D01*
X132679696Y-107214893D01*
X132833057Y-107061532D01*
X133013381Y-106941044D01*
X133213751Y-106858048D01*
X133320107Y-106836892D01*
X133426461Y-106815737D01*
X133643341Y-106815737D01*
X133749695Y-106836892D01*
G37*
G36*
X150749695Y-104055426D02*
G01*
X150856051Y-104076582D01*
X150956235Y-104118080D01*
X151056421Y-104159578D01*
X151236745Y-104280066D01*
X151390106Y-104433427D01*
X151510594Y-104613751D01*
X151593590Y-104814122D01*
X151635901Y-105026831D01*
X151635901Y-105243711D01*
X151593590Y-105456420D01*
X151510594Y-105656791D01*
X151390106Y-105837115D01*
X151236745Y-105990476D01*
X151056421Y-106110964D01*
X150856051Y-106193960D01*
X150749695Y-106215116D01*
X150643341Y-106236271D01*
X150426461Y-106236271D01*
X150320106Y-106215115D01*
X150213751Y-106193960D01*
X150013381Y-106110964D01*
X149833057Y-105990476D01*
X149679696Y-105837115D01*
X149559208Y-105656791D01*
X149476212Y-105456420D01*
X149433901Y-105243711D01*
X149433901Y-105026831D01*
X149476212Y-104814122D01*
X149559208Y-104613751D01*
X149679696Y-104433427D01*
X149833057Y-104280066D01*
X150013381Y-104159578D01*
X150113567Y-104118080D01*
X150213751Y-104076582D01*
X150320107Y-104055426D01*
X150426461Y-104034271D01*
X150643341Y-104034271D01*
X150749695Y-104055426D01*
G37*
G36*
X159249695Y-104055426D02*
G01*
X159356051Y-104076582D01*
X159456235Y-104118080D01*
X159556421Y-104159578D01*
X159736745Y-104280066D01*
X159890106Y-104433427D01*
X160010594Y-104613751D01*
X160093590Y-104814122D01*
X160135901Y-105026831D01*
X160135901Y-105243711D01*
X160093590Y-105456420D01*
X160010594Y-105656791D01*
X159890106Y-105837115D01*
X159736745Y-105990476D01*
X159556421Y-106110964D01*
X159356051Y-106193960D01*
X159249695Y-106215116D01*
X159143341Y-106236271D01*
X158926461Y-106236271D01*
X158820106Y-106215115D01*
X158713751Y-106193960D01*
X158513381Y-106110964D01*
X158333057Y-105990476D01*
X158179696Y-105837115D01*
X158059208Y-105656791D01*
X157976212Y-105456420D01*
X157933901Y-105243711D01*
X157933901Y-105026831D01*
X157976212Y-104814122D01*
X158059208Y-104613751D01*
X158179696Y-104433427D01*
X158333057Y-104280066D01*
X158513381Y-104159578D01*
X158613567Y-104118080D01*
X158713751Y-104076582D01*
X158820107Y-104055426D01*
X158926461Y-104034271D01*
X159143341Y-104034271D01*
X159249695Y-104055426D01*
G37*
G36*
X142249695Y-104055426D02*
G01*
X142356051Y-104076582D01*
X142456235Y-104118080D01*
X142556421Y-104159578D01*
X142736745Y-104280066D01*
X142890106Y-104433427D01*
X143010594Y-104613751D01*
X143093590Y-104814122D01*
X143135901Y-105026831D01*
X143135901Y-105243711D01*
X143093590Y-105456420D01*
X143010594Y-105656791D01*
X142890106Y-105837115D01*
X142736745Y-105990476D01*
X142556421Y-106110964D01*
X142356051Y-106193960D01*
X142249695Y-106215116D01*
X142143341Y-106236271D01*
X141926461Y-106236271D01*
X141820106Y-106215115D01*
X141713751Y-106193960D01*
X141513381Y-106110964D01*
X141333057Y-105990476D01*
X141179696Y-105837115D01*
X141059208Y-105656791D01*
X140976212Y-105456420D01*
X140933901Y-105243711D01*
X140933901Y-105026831D01*
X140976212Y-104814122D01*
X141059208Y-104613751D01*
X141179696Y-104433427D01*
X141333057Y-104280066D01*
X141513381Y-104159578D01*
X141613567Y-104118080D01*
X141713751Y-104076582D01*
X141820107Y-104055426D01*
X141926461Y-104034271D01*
X142143341Y-104034271D01*
X142249695Y-104055426D01*
G37*
G36*
X133749695Y-104055426D02*
G01*
X133856051Y-104076582D01*
X133956235Y-104118080D01*
X134056421Y-104159578D01*
X134236745Y-104280066D01*
X134390106Y-104433427D01*
X134510594Y-104613751D01*
X134593590Y-104814122D01*
X134635901Y-105026831D01*
X134635901Y-105243711D01*
X134593590Y-105456420D01*
X134510594Y-105656791D01*
X134390106Y-105837115D01*
X134236745Y-105990476D01*
X134056421Y-106110964D01*
X133856051Y-106193960D01*
X133749695Y-106215116D01*
X133643341Y-106236271D01*
X133426461Y-106236271D01*
X133320106Y-106215115D01*
X133213751Y-106193960D01*
X133013381Y-106110964D01*
X132833057Y-105990476D01*
X132679696Y-105837115D01*
X132559208Y-105656791D01*
X132476212Y-105456420D01*
X132433901Y-105243711D01*
X132433901Y-105026831D01*
X132476212Y-104814122D01*
X132559208Y-104613751D01*
X132679696Y-104433427D01*
X132833057Y-104280066D01*
X133013381Y-104159578D01*
X133113567Y-104118080D01*
X133213751Y-104076582D01*
X133320107Y-104055426D01*
X133426461Y-104034271D01*
X133643341Y-104034271D01*
X133749695Y-104055426D01*
G37*
G36*
X150749696Y-101273961D02*
G01*
X150856051Y-101295116D01*
X151056421Y-101378112D01*
X151236745Y-101498600D01*
X151390106Y-101651961D01*
X151510594Y-101832285D01*
X151593590Y-102032656D01*
X151635901Y-102245365D01*
X151635901Y-102462245D01*
X151593590Y-102674954D01*
X151510594Y-102875325D01*
X151390106Y-103055649D01*
X151236745Y-103209010D01*
X151056421Y-103329498D01*
X150856051Y-103412494D01*
X150749696Y-103433649D01*
X150643341Y-103454805D01*
X150426461Y-103454805D01*
X150320106Y-103433649D01*
X150213751Y-103412494D01*
X150113567Y-103370996D01*
X150013381Y-103329498D01*
X149833057Y-103209010D01*
X149679696Y-103055649D01*
X149559208Y-102875325D01*
X149476212Y-102674954D01*
X149433901Y-102462245D01*
X149433901Y-102245365D01*
X149476212Y-102032656D01*
X149559208Y-101832285D01*
X149679696Y-101651961D01*
X149833057Y-101498600D01*
X150013381Y-101378112D01*
X150113567Y-101336614D01*
X150213751Y-101295116D01*
X150320106Y-101273961D01*
X150426461Y-101252805D01*
X150643341Y-101252805D01*
X150749696Y-101273961D01*
G37*
G36*
X159249696Y-101273961D02*
G01*
X159356051Y-101295116D01*
X159556421Y-101378112D01*
X159736745Y-101498600D01*
X159890106Y-101651961D01*
X160010594Y-101832285D01*
X160093590Y-102032656D01*
X160135901Y-102245365D01*
X160135901Y-102462245D01*
X160093590Y-102674954D01*
X160010594Y-102875325D01*
X159890106Y-103055649D01*
X159736745Y-103209010D01*
X159556421Y-103329498D01*
X159356051Y-103412494D01*
X159249696Y-103433649D01*
X159143341Y-103454805D01*
X158926461Y-103454805D01*
X158820106Y-103433649D01*
X158713751Y-103412494D01*
X158613567Y-103370996D01*
X158513381Y-103329498D01*
X158333057Y-103209010D01*
X158179696Y-103055649D01*
X158059208Y-102875325D01*
X157976212Y-102674954D01*
X157933901Y-102462245D01*
X157933901Y-102245365D01*
X157976212Y-102032656D01*
X158059208Y-101832285D01*
X158179696Y-101651961D01*
X158333057Y-101498600D01*
X158513381Y-101378112D01*
X158613567Y-101336614D01*
X158713751Y-101295116D01*
X158820106Y-101273961D01*
X158926461Y-101252805D01*
X159143341Y-101252805D01*
X159249696Y-101273961D01*
G37*
G36*
X142249696Y-101273961D02*
G01*
X142356051Y-101295116D01*
X142556421Y-101378112D01*
X142736745Y-101498600D01*
X142890106Y-101651961D01*
X143010594Y-101832285D01*
X143093590Y-102032656D01*
X143135901Y-102245365D01*
X143135901Y-102462245D01*
X143093590Y-102674954D01*
X143010594Y-102875325D01*
X142890106Y-103055649D01*
X142736745Y-103209010D01*
X142556421Y-103329498D01*
X142356051Y-103412494D01*
X142249696Y-103433649D01*
X142143341Y-103454805D01*
X141926461Y-103454805D01*
X141820106Y-103433649D01*
X141713751Y-103412494D01*
X141613567Y-103370996D01*
X141513381Y-103329498D01*
X141333057Y-103209010D01*
X141179696Y-103055649D01*
X141059208Y-102875325D01*
X140976212Y-102674954D01*
X140933901Y-102462245D01*
X140933901Y-102245365D01*
X140976212Y-102032656D01*
X141059208Y-101832285D01*
X141179696Y-101651961D01*
X141333057Y-101498600D01*
X141513381Y-101378112D01*
X141613567Y-101336614D01*
X141713751Y-101295116D01*
X141820106Y-101273961D01*
X141926461Y-101252805D01*
X142143341Y-101252805D01*
X142249696Y-101273961D01*
G37*
G36*
X133749696Y-101273961D02*
G01*
X133856051Y-101295116D01*
X134056421Y-101378112D01*
X134236745Y-101498600D01*
X134390106Y-101651961D01*
X134510594Y-101832285D01*
X134593590Y-102032656D01*
X134635901Y-102245365D01*
X134635901Y-102462245D01*
X134593590Y-102674954D01*
X134510594Y-102875325D01*
X134390106Y-103055649D01*
X134236745Y-103209010D01*
X134056421Y-103329498D01*
X133856051Y-103412494D01*
X133749696Y-103433649D01*
X133643341Y-103454805D01*
X133426461Y-103454805D01*
X133320106Y-103433649D01*
X133213751Y-103412494D01*
X133113567Y-103370996D01*
X133013381Y-103329498D01*
X132833057Y-103209010D01*
X132679696Y-103055649D01*
X132559208Y-102875325D01*
X132476212Y-102674954D01*
X132433901Y-102462245D01*
X132433901Y-102245365D01*
X132476212Y-102032656D01*
X132559208Y-101832285D01*
X132679696Y-101651961D01*
X132833057Y-101498600D01*
X133013381Y-101378112D01*
X133113567Y-101336614D01*
X133213751Y-101295116D01*
X133320106Y-101273961D01*
X133426461Y-101252805D01*
X133643341Y-101252805D01*
X133749696Y-101273961D01*
G37*
G36*
X159249696Y-98492495D02*
G01*
X159356051Y-98513650D01*
X159456235Y-98555148D01*
X159556421Y-98596646D01*
X159736745Y-98717134D01*
X159890106Y-98870495D01*
X160010594Y-99050819D01*
X160093590Y-99251190D01*
X160135901Y-99463899D01*
X160135901Y-99680779D01*
X160093590Y-99893488D01*
X160010594Y-100093859D01*
X159890106Y-100274183D01*
X159736745Y-100427544D01*
X159556421Y-100548032D01*
X159456235Y-100589530D01*
X159356051Y-100631028D01*
X159249695Y-100652184D01*
X159143341Y-100673339D01*
X158926461Y-100673339D01*
X158820107Y-100652184D01*
X158713751Y-100631028D01*
X158513381Y-100548032D01*
X158333057Y-100427544D01*
X158179696Y-100274183D01*
X158059208Y-100093859D01*
X157976212Y-99893488D01*
X157933901Y-99680779D01*
X157933901Y-99463899D01*
X157976212Y-99251190D01*
X158059208Y-99050819D01*
X158179696Y-98870495D01*
X158333057Y-98717134D01*
X158513381Y-98596646D01*
X158713751Y-98513650D01*
X158820107Y-98492494D01*
X158926461Y-98471339D01*
X159143341Y-98471339D01*
X159249696Y-98492495D01*
G37*
G36*
X150749696Y-98492495D02*
G01*
X150856051Y-98513650D01*
X150956235Y-98555148D01*
X151056421Y-98596646D01*
X151236745Y-98717134D01*
X151390106Y-98870495D01*
X151510594Y-99050819D01*
X151593590Y-99251190D01*
X151635901Y-99463899D01*
X151635901Y-99680779D01*
X151593590Y-99893488D01*
X151510594Y-100093859D01*
X151390106Y-100274183D01*
X151236745Y-100427544D01*
X151056421Y-100548032D01*
X150956235Y-100589530D01*
X150856051Y-100631028D01*
X150749695Y-100652184D01*
X150643341Y-100673339D01*
X150426461Y-100673339D01*
X150320107Y-100652184D01*
X150213751Y-100631028D01*
X150013381Y-100548032D01*
X149833057Y-100427544D01*
X149679696Y-100274183D01*
X149559208Y-100093859D01*
X149476212Y-99893488D01*
X149433901Y-99680779D01*
X149433901Y-99463899D01*
X149476212Y-99251190D01*
X149559208Y-99050819D01*
X149679696Y-98870495D01*
X149833057Y-98717134D01*
X150013381Y-98596646D01*
X150213751Y-98513650D01*
X150320107Y-98492494D01*
X150426461Y-98471339D01*
X150643341Y-98471339D01*
X150749696Y-98492495D01*
G37*
G36*
X142249696Y-98492495D02*
G01*
X142356051Y-98513650D01*
X142456235Y-98555148D01*
X142556421Y-98596646D01*
X142736745Y-98717134D01*
X142890106Y-98870495D01*
X143010594Y-99050819D01*
X143093590Y-99251190D01*
X143135901Y-99463899D01*
X143135901Y-99680779D01*
X143093590Y-99893488D01*
X143010594Y-100093859D01*
X142890106Y-100274183D01*
X142736745Y-100427544D01*
X142556421Y-100548032D01*
X142456235Y-100589530D01*
X142356051Y-100631028D01*
X142249695Y-100652184D01*
X142143341Y-100673339D01*
X141926461Y-100673339D01*
X141820107Y-100652184D01*
X141713751Y-100631028D01*
X141513381Y-100548032D01*
X141333057Y-100427544D01*
X141179696Y-100274183D01*
X141059208Y-100093859D01*
X140976212Y-99893488D01*
X140933901Y-99680779D01*
X140933901Y-99463899D01*
X140976212Y-99251190D01*
X141059208Y-99050819D01*
X141179696Y-98870495D01*
X141333057Y-98717134D01*
X141513381Y-98596646D01*
X141713751Y-98513650D01*
X141820107Y-98492494D01*
X141926461Y-98471339D01*
X142143341Y-98471339D01*
X142249696Y-98492495D01*
G37*
G36*
X133749696Y-98492495D02*
G01*
X133856051Y-98513650D01*
X133956235Y-98555148D01*
X134056421Y-98596646D01*
X134236745Y-98717134D01*
X134390106Y-98870495D01*
X134510594Y-99050819D01*
X134593590Y-99251190D01*
X134635901Y-99463899D01*
X134635901Y-99680779D01*
X134593590Y-99893488D01*
X134510594Y-100093859D01*
X134390106Y-100274183D01*
X134236745Y-100427544D01*
X134056421Y-100548032D01*
X133956235Y-100589530D01*
X133856051Y-100631028D01*
X133749695Y-100652184D01*
X133643341Y-100673339D01*
X133426461Y-100673339D01*
X133320107Y-100652184D01*
X133213751Y-100631028D01*
X133013381Y-100548032D01*
X132833057Y-100427544D01*
X132679696Y-100274183D01*
X132559208Y-100093859D01*
X132476212Y-99893488D01*
X132433901Y-99680779D01*
X132433901Y-99463899D01*
X132476212Y-99251190D01*
X132559208Y-99050819D01*
X132679696Y-98870495D01*
X132833057Y-98717134D01*
X133013381Y-98596646D01*
X133213751Y-98513650D01*
X133320107Y-98492494D01*
X133426461Y-98471339D01*
X133643341Y-98471339D01*
X133749696Y-98492495D01*
G37*
G36*
X150749696Y-95711029D02*
G01*
X150856051Y-95732184D01*
X151056421Y-95815180D01*
X151236745Y-95935668D01*
X151390106Y-96089029D01*
X151510594Y-96269353D01*
X151593590Y-96469724D01*
X151635901Y-96682433D01*
X151635901Y-96899313D01*
X151593590Y-97112022D01*
X151510594Y-97312393D01*
X151390106Y-97492717D01*
X151236745Y-97646078D01*
X151056421Y-97766566D01*
X150956235Y-97808064D01*
X150856051Y-97849562D01*
X150749696Y-97870717D01*
X150643341Y-97891873D01*
X150426461Y-97891873D01*
X150320107Y-97870718D01*
X150213751Y-97849562D01*
X150113567Y-97808064D01*
X150013381Y-97766566D01*
X149833057Y-97646078D01*
X149679696Y-97492717D01*
X149559208Y-97312393D01*
X149476212Y-97112022D01*
X149433901Y-96899313D01*
X149433901Y-96682433D01*
X149476212Y-96469724D01*
X149559208Y-96269353D01*
X149679696Y-96089029D01*
X149833057Y-95935668D01*
X150013381Y-95815180D01*
X150213751Y-95732184D01*
X150320106Y-95711029D01*
X150426461Y-95689873D01*
X150643341Y-95689873D01*
X150749696Y-95711029D01*
G37*
G36*
X133749696Y-95711029D02*
G01*
X133856051Y-95732184D01*
X134056421Y-95815180D01*
X134236745Y-95935668D01*
X134390106Y-96089029D01*
X134510594Y-96269353D01*
X134593590Y-96469724D01*
X134635901Y-96682433D01*
X134635901Y-96899313D01*
X134593590Y-97112022D01*
X134510594Y-97312393D01*
X134390106Y-97492717D01*
X134236745Y-97646078D01*
X134056421Y-97766566D01*
X133956235Y-97808064D01*
X133856051Y-97849562D01*
X133749696Y-97870717D01*
X133643341Y-97891873D01*
X133426461Y-97891873D01*
X133320107Y-97870718D01*
X133213751Y-97849562D01*
X133113567Y-97808064D01*
X133013381Y-97766566D01*
X132833057Y-97646078D01*
X132679696Y-97492717D01*
X132559208Y-97312393D01*
X132476212Y-97112022D01*
X132433901Y-96899313D01*
X132433901Y-96682433D01*
X132476212Y-96469724D01*
X132559208Y-96269353D01*
X132679696Y-96089029D01*
X132833057Y-95935668D01*
X133013381Y-95815180D01*
X133213751Y-95732184D01*
X133320106Y-95711029D01*
X133426461Y-95689873D01*
X133643341Y-95689873D01*
X133749696Y-95711029D01*
G37*
G36*
X142249696Y-95711029D02*
G01*
X142356051Y-95732184D01*
X142556421Y-95815180D01*
X142736745Y-95935668D01*
X142890106Y-96089029D01*
X143010594Y-96269353D01*
X143093590Y-96469724D01*
X143135901Y-96682433D01*
X143135901Y-96899313D01*
X143093590Y-97112022D01*
X143010594Y-97312393D01*
X142890106Y-97492717D01*
X142736745Y-97646078D01*
X142556421Y-97766566D01*
X142456235Y-97808064D01*
X142356051Y-97849562D01*
X142249696Y-97870717D01*
X142143341Y-97891873D01*
X141926461Y-97891873D01*
X141820107Y-97870718D01*
X141713751Y-97849562D01*
X141613567Y-97808064D01*
X141513381Y-97766566D01*
X141333057Y-97646078D01*
X141179696Y-97492717D01*
X141059208Y-97312393D01*
X140976212Y-97112022D01*
X140933901Y-96899313D01*
X140933901Y-96682433D01*
X140976212Y-96469724D01*
X141059208Y-96269353D01*
X141179696Y-96089029D01*
X141333057Y-95935668D01*
X141513381Y-95815180D01*
X141713751Y-95732184D01*
X141820106Y-95711029D01*
X141926461Y-95689873D01*
X142143341Y-95689873D01*
X142249696Y-95711029D01*
G37*
G36*
X159249696Y-95711029D02*
G01*
X159356051Y-95732184D01*
X159556421Y-95815180D01*
X159736745Y-95935668D01*
X159890106Y-96089029D01*
X160010594Y-96269353D01*
X160093590Y-96469724D01*
X160135901Y-96682433D01*
X160135901Y-96899313D01*
X160093590Y-97112022D01*
X160010594Y-97312393D01*
X159890106Y-97492717D01*
X159736745Y-97646078D01*
X159556421Y-97766566D01*
X159456235Y-97808064D01*
X159356051Y-97849562D01*
X159249696Y-97870717D01*
X159143341Y-97891873D01*
X158926461Y-97891873D01*
X158820107Y-97870718D01*
X158713751Y-97849562D01*
X158613567Y-97808064D01*
X158513381Y-97766566D01*
X158333057Y-97646078D01*
X158179696Y-97492717D01*
X158059208Y-97312393D01*
X157976212Y-97112022D01*
X157933901Y-96899313D01*
X157933901Y-96682433D01*
X157976212Y-96469724D01*
X158059208Y-96269353D01*
X158179696Y-96089029D01*
X158333057Y-95935668D01*
X158513381Y-95815180D01*
X158713751Y-95732184D01*
X158820106Y-95711029D01*
X158926461Y-95689873D01*
X159143341Y-95689873D01*
X159249696Y-95711029D01*
G37*
G36*
X133749695Y-92929562D02*
G01*
X133856051Y-92950718D01*
X134056421Y-93033714D01*
X134236745Y-93154202D01*
X134390106Y-93307563D01*
X134510594Y-93487887D01*
X134593590Y-93688258D01*
X134635901Y-93900967D01*
X134635901Y-94117847D01*
X134593590Y-94330556D01*
X134510594Y-94530927D01*
X134390106Y-94711251D01*
X134236745Y-94864612D01*
X134056421Y-94985100D01*
X133856051Y-95068096D01*
X133749695Y-95089252D01*
X133643341Y-95110407D01*
X133426461Y-95110407D01*
X133320106Y-95089251D01*
X133213751Y-95068096D01*
X133113567Y-95026598D01*
X133013381Y-94985100D01*
X132833057Y-94864612D01*
X132679696Y-94711251D01*
X132559208Y-94530927D01*
X132476212Y-94330556D01*
X132433901Y-94117847D01*
X132433901Y-93900967D01*
X132476212Y-93688258D01*
X132559208Y-93487887D01*
X132679696Y-93307563D01*
X132833057Y-93154202D01*
X133013381Y-93033714D01*
X133113567Y-92992216D01*
X133213751Y-92950718D01*
X133320107Y-92929562D01*
X133426461Y-92908407D01*
X133643341Y-92908407D01*
X133749695Y-92929562D01*
G37*
G36*
X142249695Y-92929562D02*
G01*
X142356051Y-92950718D01*
X142556421Y-93033714D01*
X142736745Y-93154202D01*
X142890106Y-93307563D01*
X143010594Y-93487887D01*
X143093590Y-93688258D01*
X143135901Y-93900967D01*
X143135901Y-94117847D01*
X143093590Y-94330556D01*
X143010594Y-94530927D01*
X142890106Y-94711251D01*
X142736745Y-94864612D01*
X142556421Y-94985100D01*
X142356051Y-95068096D01*
X142249695Y-95089252D01*
X142143341Y-95110407D01*
X141926461Y-95110407D01*
X141820106Y-95089251D01*
X141713751Y-95068096D01*
X141613567Y-95026598D01*
X141513381Y-94985100D01*
X141333057Y-94864612D01*
X141179696Y-94711251D01*
X141059208Y-94530927D01*
X140976212Y-94330556D01*
X140933901Y-94117847D01*
X140933901Y-93900967D01*
X140976212Y-93688258D01*
X141059208Y-93487887D01*
X141179696Y-93307563D01*
X141333057Y-93154202D01*
X141513381Y-93033714D01*
X141613567Y-92992216D01*
X141713751Y-92950718D01*
X141820107Y-92929562D01*
X141926461Y-92908407D01*
X142143341Y-92908407D01*
X142249695Y-92929562D01*
G37*
G36*
X159249695Y-92929562D02*
G01*
X159356051Y-92950718D01*
X159556421Y-93033714D01*
X159736745Y-93154202D01*
X159890106Y-93307563D01*
X160010594Y-93487887D01*
X160093590Y-93688258D01*
X160135901Y-93900967D01*
X160135901Y-94117847D01*
X160093590Y-94330556D01*
X160010594Y-94530927D01*
X159890106Y-94711251D01*
X159736745Y-94864612D01*
X159556421Y-94985100D01*
X159356051Y-95068096D01*
X159249695Y-95089252D01*
X159143341Y-95110407D01*
X158926461Y-95110407D01*
X158820106Y-95089251D01*
X158713751Y-95068096D01*
X158613567Y-95026598D01*
X158513381Y-94985100D01*
X158333057Y-94864612D01*
X158179696Y-94711251D01*
X158059208Y-94530927D01*
X157976212Y-94330556D01*
X157933901Y-94117847D01*
X157933901Y-93900967D01*
X157976212Y-93688258D01*
X158059208Y-93487887D01*
X158179696Y-93307563D01*
X158333057Y-93154202D01*
X158513381Y-93033714D01*
X158613567Y-92992216D01*
X158713751Y-92950718D01*
X158820107Y-92929562D01*
X158926461Y-92908407D01*
X159143341Y-92908407D01*
X159249695Y-92929562D01*
G37*
G36*
X150749695Y-92929562D02*
G01*
X150856051Y-92950718D01*
X151056421Y-93033714D01*
X151236745Y-93154202D01*
X151390106Y-93307563D01*
X151510594Y-93487887D01*
X151593590Y-93688258D01*
X151635901Y-93900967D01*
X151635901Y-94117847D01*
X151593590Y-94330556D01*
X151510594Y-94530927D01*
X151390106Y-94711251D01*
X151236745Y-94864612D01*
X151056421Y-94985100D01*
X150856051Y-95068096D01*
X150749695Y-95089252D01*
X150643341Y-95110407D01*
X150426461Y-95110407D01*
X150320106Y-95089251D01*
X150213751Y-95068096D01*
X150113567Y-95026598D01*
X150013381Y-94985100D01*
X149833057Y-94864612D01*
X149679696Y-94711251D01*
X149559208Y-94530927D01*
X149476212Y-94330556D01*
X149433901Y-94117847D01*
X149433901Y-93900967D01*
X149476212Y-93688258D01*
X149559208Y-93487887D01*
X149679696Y-93307563D01*
X149833057Y-93154202D01*
X150013381Y-93033714D01*
X150113567Y-92992216D01*
X150213751Y-92950718D01*
X150320107Y-92929562D01*
X150426461Y-92908407D01*
X150643341Y-92908407D01*
X150749695Y-92929562D01*
G37*
G36*
X159249695Y-90148096D02*
G01*
X159356051Y-90169252D01*
X159456235Y-90210750D01*
X159556421Y-90252248D01*
X159736745Y-90372736D01*
X159890106Y-90526097D01*
X160010594Y-90706421D01*
X160093590Y-90906792D01*
X160135901Y-91119501D01*
X160135901Y-91336381D01*
X160093590Y-91549090D01*
X160010594Y-91749461D01*
X159890106Y-91929785D01*
X159736745Y-92083146D01*
X159556421Y-92203634D01*
X159456235Y-92245132D01*
X159356051Y-92286630D01*
X159249696Y-92307785D01*
X159143341Y-92328941D01*
X158926461Y-92328941D01*
X158820106Y-92307785D01*
X158713751Y-92286630D01*
X158613567Y-92245132D01*
X158513381Y-92203634D01*
X158333057Y-92083146D01*
X158179696Y-91929785D01*
X158059208Y-91749461D01*
X157976212Y-91549090D01*
X157933901Y-91336381D01*
X157933901Y-91119501D01*
X157976212Y-90906792D01*
X158059208Y-90706421D01*
X158179696Y-90526097D01*
X158333057Y-90372736D01*
X158513381Y-90252248D01*
X158713751Y-90169252D01*
X158820107Y-90148096D01*
X158926461Y-90126941D01*
X159143341Y-90126941D01*
X159249695Y-90148096D01*
G37*
G36*
X142249695Y-90148096D02*
G01*
X142356051Y-90169252D01*
X142456235Y-90210750D01*
X142556421Y-90252248D01*
X142736745Y-90372736D01*
X142890106Y-90526097D01*
X143010594Y-90706421D01*
X143093590Y-90906792D01*
X143135901Y-91119501D01*
X143135901Y-91336381D01*
X143093590Y-91549090D01*
X143010594Y-91749461D01*
X142890106Y-91929785D01*
X142736745Y-92083146D01*
X142556421Y-92203634D01*
X142456235Y-92245132D01*
X142356051Y-92286630D01*
X142249696Y-92307785D01*
X142143341Y-92328941D01*
X141926461Y-92328941D01*
X141820106Y-92307785D01*
X141713751Y-92286630D01*
X141613567Y-92245132D01*
X141513381Y-92203634D01*
X141333057Y-92083146D01*
X141179696Y-91929785D01*
X141059208Y-91749461D01*
X140976212Y-91549090D01*
X140933901Y-91336381D01*
X140933901Y-91119501D01*
X140976212Y-90906792D01*
X141059208Y-90706421D01*
X141179696Y-90526097D01*
X141333057Y-90372736D01*
X141513381Y-90252248D01*
X141713751Y-90169252D01*
X141820107Y-90148096D01*
X141926461Y-90126941D01*
X142143341Y-90126941D01*
X142249695Y-90148096D01*
G37*
G36*
X150749695Y-90148096D02*
G01*
X150856051Y-90169252D01*
X150956235Y-90210750D01*
X151056421Y-90252248D01*
X151236745Y-90372736D01*
X151390106Y-90526097D01*
X151510594Y-90706421D01*
X151593590Y-90906792D01*
X151635901Y-91119501D01*
X151635901Y-91336381D01*
X151593590Y-91549090D01*
X151510594Y-91749461D01*
X151390106Y-91929785D01*
X151236745Y-92083146D01*
X151056421Y-92203634D01*
X150956235Y-92245132D01*
X150856051Y-92286630D01*
X150749696Y-92307785D01*
X150643341Y-92328941D01*
X150426461Y-92328941D01*
X150320106Y-92307785D01*
X150213751Y-92286630D01*
X150113567Y-92245132D01*
X150013381Y-92203634D01*
X149833057Y-92083146D01*
X149679696Y-91929785D01*
X149559208Y-91749461D01*
X149476212Y-91549090D01*
X149433901Y-91336381D01*
X149433901Y-91119501D01*
X149476212Y-90906792D01*
X149559208Y-90706421D01*
X149679696Y-90526097D01*
X149833057Y-90372736D01*
X150013381Y-90252248D01*
X150213751Y-90169252D01*
X150320107Y-90148096D01*
X150426461Y-90126941D01*
X150643341Y-90126941D01*
X150749695Y-90148096D01*
G37*
G36*
X133749695Y-90148096D02*
G01*
X133856051Y-90169252D01*
X133956235Y-90210750D01*
X134056421Y-90252248D01*
X134236745Y-90372736D01*
X134390106Y-90526097D01*
X134510594Y-90706421D01*
X134593590Y-90906792D01*
X134635901Y-91119501D01*
X134635901Y-91336381D01*
X134593590Y-91549090D01*
X134510594Y-91749461D01*
X134390106Y-91929785D01*
X134236745Y-92083146D01*
X134056421Y-92203634D01*
X133956235Y-92245132D01*
X133856051Y-92286630D01*
X133749696Y-92307785D01*
X133643341Y-92328941D01*
X133426461Y-92328941D01*
X133320106Y-92307785D01*
X133213751Y-92286630D01*
X133113567Y-92245132D01*
X133013381Y-92203634D01*
X132833057Y-92083146D01*
X132679696Y-91929785D01*
X132559208Y-91749461D01*
X132476212Y-91549090D01*
X132433901Y-91336381D01*
X132433901Y-91119501D01*
X132476212Y-90906792D01*
X132559208Y-90706421D01*
X132679696Y-90526097D01*
X132833057Y-90372736D01*
X133013381Y-90252248D01*
X133213751Y-90169252D01*
X133320107Y-90148096D01*
X133426461Y-90126941D01*
X133643341Y-90126941D01*
X133749695Y-90148096D01*
G37*
G36*
X133749695Y-87366630D02*
G01*
X133856051Y-87387786D01*
X134056421Y-87470782D01*
X134236745Y-87591270D01*
X134390106Y-87744631D01*
X134510594Y-87924955D01*
X134593590Y-88125326D01*
X134635901Y-88338035D01*
X134635901Y-88554915D01*
X134593590Y-88767624D01*
X134510594Y-88967995D01*
X134390106Y-89148319D01*
X134236745Y-89301680D01*
X134056421Y-89422168D01*
X133956235Y-89463666D01*
X133856051Y-89505164D01*
X133749695Y-89526320D01*
X133643341Y-89547475D01*
X133426461Y-89547475D01*
X133320106Y-89526319D01*
X133213751Y-89505164D01*
X133013381Y-89422168D01*
X132833057Y-89301680D01*
X132679696Y-89148319D01*
X132559208Y-88967995D01*
X132476212Y-88767624D01*
X132433901Y-88554915D01*
X132433901Y-88338035D01*
X132476212Y-88125326D01*
X132559208Y-87924955D01*
X132679696Y-87744631D01*
X132833057Y-87591270D01*
X133013381Y-87470782D01*
X133213751Y-87387786D01*
X133320107Y-87366630D01*
X133426461Y-87345475D01*
X133643341Y-87345475D01*
X133749695Y-87366630D01*
G37*
G36*
X142249695Y-87366630D02*
G01*
X142356051Y-87387786D01*
X142556421Y-87470782D01*
X142736745Y-87591270D01*
X142890106Y-87744631D01*
X143010594Y-87924955D01*
X143093590Y-88125326D01*
X143135901Y-88338035D01*
X143135901Y-88554915D01*
X143093590Y-88767624D01*
X143010594Y-88967995D01*
X142890106Y-89148319D01*
X142736745Y-89301680D01*
X142556421Y-89422168D01*
X142456235Y-89463666D01*
X142356051Y-89505164D01*
X142249695Y-89526320D01*
X142143341Y-89547475D01*
X141926461Y-89547475D01*
X141820106Y-89526319D01*
X141713751Y-89505164D01*
X141513381Y-89422168D01*
X141333057Y-89301680D01*
X141179696Y-89148319D01*
X141059208Y-88967995D01*
X140976212Y-88767624D01*
X140933901Y-88554915D01*
X140933901Y-88338035D01*
X140976212Y-88125326D01*
X141059208Y-87924955D01*
X141179696Y-87744631D01*
X141333057Y-87591270D01*
X141513381Y-87470782D01*
X141713751Y-87387786D01*
X141820107Y-87366630D01*
X141926461Y-87345475D01*
X142143341Y-87345475D01*
X142249695Y-87366630D01*
G37*
G36*
X150749695Y-87366630D02*
G01*
X150856051Y-87387786D01*
X151056421Y-87470782D01*
X151236745Y-87591270D01*
X151390106Y-87744631D01*
X151510594Y-87924955D01*
X151593590Y-88125326D01*
X151635901Y-88338035D01*
X151635901Y-88554915D01*
X151593590Y-88767624D01*
X151510594Y-88967995D01*
X151390106Y-89148319D01*
X151236745Y-89301680D01*
X151056421Y-89422168D01*
X150956235Y-89463666D01*
X150856051Y-89505164D01*
X150749695Y-89526320D01*
X150643341Y-89547475D01*
X150426461Y-89547475D01*
X150320106Y-89526319D01*
X150213751Y-89505164D01*
X150013381Y-89422168D01*
X149833057Y-89301680D01*
X149679696Y-89148319D01*
X149559208Y-88967995D01*
X149476212Y-88767624D01*
X149433901Y-88554915D01*
X149433901Y-88338035D01*
X149476212Y-88125326D01*
X149559208Y-87924955D01*
X149679696Y-87744631D01*
X149833057Y-87591270D01*
X150013381Y-87470782D01*
X150213751Y-87387786D01*
X150320107Y-87366630D01*
X150426461Y-87345475D01*
X150643341Y-87345475D01*
X150749695Y-87366630D01*
G37*
G36*
X159249695Y-87366630D02*
G01*
X159356051Y-87387786D01*
X159556421Y-87470782D01*
X159736745Y-87591270D01*
X159890106Y-87744631D01*
X160010594Y-87924955D01*
X160093590Y-88125326D01*
X160135901Y-88338035D01*
X160135901Y-88554915D01*
X160093590Y-88767624D01*
X160010594Y-88967995D01*
X159890106Y-89148319D01*
X159736745Y-89301680D01*
X159556421Y-89422168D01*
X159456235Y-89463666D01*
X159356051Y-89505164D01*
X159249695Y-89526320D01*
X159143341Y-89547475D01*
X158926461Y-89547475D01*
X158820106Y-89526319D01*
X158713751Y-89505164D01*
X158513381Y-89422168D01*
X158333057Y-89301680D01*
X158179696Y-89148319D01*
X158059208Y-88967995D01*
X157976212Y-88767624D01*
X157933901Y-88554915D01*
X157933901Y-88338035D01*
X157976212Y-88125326D01*
X158059208Y-87924955D01*
X158179696Y-87744631D01*
X158333057Y-87591270D01*
X158513381Y-87470782D01*
X158713751Y-87387786D01*
X158820107Y-87366630D01*
X158926461Y-87345475D01*
X159143341Y-87345475D01*
X159249695Y-87366630D01*
G37*
G36*
X142249696Y-84585156D02*
G01*
X142356051Y-84606311D01*
X142456235Y-84647809D01*
X142556421Y-84689307D01*
X142736745Y-84809795D01*
X142890106Y-84963156D01*
X143010594Y-85143480D01*
X143093590Y-85343851D01*
X143135901Y-85556560D01*
X143135901Y-85773440D01*
X143093590Y-85986149D01*
X143010594Y-86186520D01*
X142890106Y-86366844D01*
X142736745Y-86520205D01*
X142556421Y-86640693D01*
X142356051Y-86723689D01*
X142249696Y-86744844D01*
X142143341Y-86766000D01*
X141926461Y-86766000D01*
X141820107Y-86744845D01*
X141713751Y-86723689D01*
X141613567Y-86682191D01*
X141513381Y-86640693D01*
X141333057Y-86520205D01*
X141179696Y-86366844D01*
X141059208Y-86186520D01*
X140976212Y-85986149D01*
X140933901Y-85773440D01*
X140933901Y-85556560D01*
X140976212Y-85343851D01*
X141059208Y-85143480D01*
X141179696Y-84963156D01*
X141333057Y-84809795D01*
X141513381Y-84689307D01*
X141613567Y-84647809D01*
X141713751Y-84606311D01*
X141820106Y-84585156D01*
X141926461Y-84564000D01*
X142143341Y-84564000D01*
X142249696Y-84585156D01*
G37*
G36*
X150749696Y-84585156D02*
G01*
X150856051Y-84606311D01*
X150956235Y-84647809D01*
X151056421Y-84689307D01*
X151236745Y-84809795D01*
X151390106Y-84963156D01*
X151510594Y-85143480D01*
X151593590Y-85343851D01*
X151635901Y-85556560D01*
X151635901Y-85773440D01*
X151593590Y-85986149D01*
X151510594Y-86186520D01*
X151390106Y-86366844D01*
X151236745Y-86520205D01*
X151056421Y-86640693D01*
X150856051Y-86723689D01*
X150749696Y-86744844D01*
X150643341Y-86766000D01*
X150426461Y-86766000D01*
X150320107Y-86744845D01*
X150213751Y-86723689D01*
X150113567Y-86682191D01*
X150013381Y-86640693D01*
X149833057Y-86520205D01*
X149679696Y-86366844D01*
X149559208Y-86186520D01*
X149476212Y-85986149D01*
X149433901Y-85773440D01*
X149433901Y-85556560D01*
X149476212Y-85343851D01*
X149559208Y-85143480D01*
X149679696Y-84963156D01*
X149833057Y-84809795D01*
X150013381Y-84689307D01*
X150113567Y-84647809D01*
X150213751Y-84606311D01*
X150320106Y-84585156D01*
X150426461Y-84564000D01*
X150643341Y-84564000D01*
X150749696Y-84585156D01*
G37*
G36*
X159249696Y-84585156D02*
G01*
X159356051Y-84606311D01*
X159456235Y-84647809D01*
X159556421Y-84689307D01*
X159736745Y-84809795D01*
X159890106Y-84963156D01*
X160010594Y-85143480D01*
X160093590Y-85343851D01*
X160135901Y-85556560D01*
X160135901Y-85773440D01*
X160093590Y-85986149D01*
X160010594Y-86186520D01*
X159890106Y-86366844D01*
X159736745Y-86520205D01*
X159556421Y-86640693D01*
X159356051Y-86723689D01*
X159249696Y-86744844D01*
X159143341Y-86766000D01*
X158926461Y-86766000D01*
X158820107Y-86744845D01*
X158713751Y-86723689D01*
X158613567Y-86682191D01*
X158513381Y-86640693D01*
X158333057Y-86520205D01*
X158179696Y-86366844D01*
X158059208Y-86186520D01*
X157976212Y-85986149D01*
X157933901Y-85773440D01*
X157933901Y-85556560D01*
X157976212Y-85343851D01*
X158059208Y-85143480D01*
X158179696Y-84963156D01*
X158333057Y-84809795D01*
X158513381Y-84689307D01*
X158613567Y-84647809D01*
X158713751Y-84606311D01*
X158820106Y-84585156D01*
X158926461Y-84564000D01*
X159143341Y-84564000D01*
X159249696Y-84585156D01*
G37*
G36*
X133749696Y-84585156D02*
G01*
X133856051Y-84606311D01*
X133956235Y-84647809D01*
X134056421Y-84689307D01*
X134236745Y-84809795D01*
X134390106Y-84963156D01*
X134510594Y-85143480D01*
X134593590Y-85343851D01*
X134635901Y-85556560D01*
X134635901Y-85773440D01*
X134593590Y-85986149D01*
X134510594Y-86186520D01*
X134390106Y-86366844D01*
X134236745Y-86520205D01*
X134056421Y-86640693D01*
X133856051Y-86723689D01*
X133749696Y-86744844D01*
X133643341Y-86766000D01*
X133426461Y-86766000D01*
X133320107Y-86744845D01*
X133213751Y-86723689D01*
X133113567Y-86682191D01*
X133013381Y-86640693D01*
X132833057Y-86520205D01*
X132679696Y-86366844D01*
X132559208Y-86186520D01*
X132476212Y-85986149D01*
X132433901Y-85773440D01*
X132433901Y-85556560D01*
X132476212Y-85343851D01*
X132559208Y-85143480D01*
X132679696Y-84963156D01*
X132833057Y-84809795D01*
X133013381Y-84689307D01*
X133113567Y-84647809D01*
X133213751Y-84606311D01*
X133320106Y-84585156D01*
X133426461Y-84564000D01*
X133643341Y-84564000D01*
X133749696Y-84585156D01*
G37*
G36*
X162834591Y-81563085D02*
G01*
X162868569Y-81573393D01*
X162899890Y-81590134D01*
X162927339Y-81612661D01*
X162949866Y-81640110D01*
X162966607Y-81671431D01*
X162976915Y-81705409D01*
X162981000Y-81746890D01*
X162981000Y-82348110D01*
X162976915Y-82389591D01*
X162966607Y-82423569D01*
X162949866Y-82454890D01*
X162927339Y-82482339D01*
X162899890Y-82504866D01*
X162868569Y-82521607D01*
X162834591Y-82531915D01*
X162793110Y-82536000D01*
X162116890Y-82536000D01*
X162075409Y-82531915D01*
X162041431Y-82521607D01*
X162010110Y-82504866D01*
X161982661Y-82482339D01*
X161960134Y-82454890D01*
X161943393Y-82423569D01*
X161933085Y-82389591D01*
X161929000Y-82348110D01*
X161929000Y-81746890D01*
X161933085Y-81705409D01*
X161943393Y-81671431D01*
X161960134Y-81640110D01*
X161982661Y-81612661D01*
X162010110Y-81590134D01*
X162041431Y-81573393D01*
X162075409Y-81563085D01*
X162116890Y-81559000D01*
X162793110Y-81559000D01*
X162834591Y-81563085D01*
G37*
G36*
X161209591Y-81563085D02*
G01*
X161243569Y-81573393D01*
X161274890Y-81590134D01*
X161302339Y-81612661D01*
X161324866Y-81640110D01*
X161341607Y-81671431D01*
X161351915Y-81705409D01*
X161356000Y-81746890D01*
X161356000Y-82348110D01*
X161351915Y-82389591D01*
X161341607Y-82423569D01*
X161324866Y-82454890D01*
X161302339Y-82482339D01*
X161274890Y-82504866D01*
X161243569Y-82521607D01*
X161209591Y-82531915D01*
X161168110Y-82536000D01*
X160491890Y-82536000D01*
X160450409Y-82531915D01*
X160416431Y-82521607D01*
X160385110Y-82504866D01*
X160357661Y-82482339D01*
X160335134Y-82454890D01*
X160318393Y-82423569D01*
X160308085Y-82389591D01*
X160304000Y-82348110D01*
X160304000Y-81746890D01*
X160308085Y-81705409D01*
X160318393Y-81671431D01*
X160335134Y-81640110D01*
X160357661Y-81612661D01*
X160385110Y-81590134D01*
X160416431Y-81573393D01*
X160450409Y-81563085D01*
X160491890Y-81559000D01*
X161168110Y-81559000D01*
X161209591Y-81563085D01*
G37*
G36*
X162834591Y-79988085D02*
G01*
X162868569Y-79998393D01*
X162899890Y-80015134D01*
X162927339Y-80037661D01*
X162949866Y-80065110D01*
X162966607Y-80096431D01*
X162976915Y-80130409D01*
X162981000Y-80171890D01*
X162981000Y-80773110D01*
X162976915Y-80814591D01*
X162966607Y-80848569D01*
X162949866Y-80879890D01*
X162927339Y-80907339D01*
X162899890Y-80929866D01*
X162868569Y-80946607D01*
X162834591Y-80956915D01*
X162793110Y-80961000D01*
X162116890Y-80961000D01*
X162075409Y-80956915D01*
X162041431Y-80946607D01*
X162010110Y-80929866D01*
X161982661Y-80907339D01*
X161960134Y-80879890D01*
X161943393Y-80848569D01*
X161933085Y-80814591D01*
X161929000Y-80773110D01*
X161929000Y-80171890D01*
X161933085Y-80130409D01*
X161943393Y-80096431D01*
X161960134Y-80065110D01*
X161982661Y-80037661D01*
X162010110Y-80015134D01*
X162041431Y-79998393D01*
X162075409Y-79988085D01*
X162116890Y-79984000D01*
X162793110Y-79984000D01*
X162834591Y-79988085D01*
G37*
G36*
X161209591Y-79988085D02*
G01*
X161243569Y-79998393D01*
X161274890Y-80015134D01*
X161302339Y-80037661D01*
X161324866Y-80065110D01*
X161341607Y-80096431D01*
X161351915Y-80130409D01*
X161356000Y-80171890D01*
X161356000Y-80773110D01*
X161351915Y-80814591D01*
X161341607Y-80848569D01*
X161324866Y-80879890D01*
X161302339Y-80907339D01*
X161274890Y-80929866D01*
X161243569Y-80946607D01*
X161209591Y-80956915D01*
X161168110Y-80961000D01*
X160491890Y-80961000D01*
X160450409Y-80956915D01*
X160416431Y-80946607D01*
X160385110Y-80929866D01*
X160357661Y-80907339D01*
X160335134Y-80879890D01*
X160318393Y-80848569D01*
X160308085Y-80814591D01*
X160304000Y-80773110D01*
X160304000Y-80171890D01*
X160308085Y-80130409D01*
X160318393Y-80096431D01*
X160335134Y-80065110D01*
X160357661Y-80037661D01*
X160385110Y-80015134D01*
X160416431Y-79998393D01*
X160450409Y-79988085D01*
X160491890Y-79984000D01*
X161168110Y-79984000D01*
X161209591Y-79988085D01*
G37*
G36*
X144869591Y-76653085D02*
G01*
X144903569Y-76663393D01*
X144934890Y-76680134D01*
X144962339Y-76702661D01*
X144984866Y-76730110D01*
X145001607Y-76761431D01*
X145011915Y-76795409D01*
X145016000Y-76836890D01*
X145016000Y-77438110D01*
X145011915Y-77479591D01*
X145001607Y-77513569D01*
X144984866Y-77544890D01*
X144962339Y-77572339D01*
X144934890Y-77594866D01*
X144903569Y-77611607D01*
X144869591Y-77621915D01*
X144828110Y-77626000D01*
X144151890Y-77626000D01*
X144110409Y-77621915D01*
X144076431Y-77611607D01*
X144045110Y-77594866D01*
X144017661Y-77572339D01*
X143995134Y-77544890D01*
X143978393Y-77513569D01*
X143968085Y-77479591D01*
X143964000Y-77438110D01*
X143964000Y-76836890D01*
X143968085Y-76795409D01*
X143978393Y-76761431D01*
X143995134Y-76730110D01*
X144017661Y-76702661D01*
X144045110Y-76680134D01*
X144076431Y-76663393D01*
X144110409Y-76653085D01*
X144151890Y-76649000D01*
X144828110Y-76649000D01*
X144869591Y-76653085D01*
G37*
G36*
X147289591Y-76653085D02*
G01*
X147323569Y-76663393D01*
X147354890Y-76680134D01*
X147382339Y-76702661D01*
X147404866Y-76730110D01*
X147421607Y-76761431D01*
X147431915Y-76795409D01*
X147436000Y-76836890D01*
X147436000Y-77438110D01*
X147431915Y-77479591D01*
X147421607Y-77513569D01*
X147404866Y-77544890D01*
X147382339Y-77572339D01*
X147354890Y-77594866D01*
X147323569Y-77611607D01*
X147289591Y-77621915D01*
X147248110Y-77626000D01*
X146571890Y-77626000D01*
X146530409Y-77621915D01*
X146496431Y-77611607D01*
X146465110Y-77594866D01*
X146437661Y-77572339D01*
X146415134Y-77544890D01*
X146398393Y-77513569D01*
X146388085Y-77479591D01*
X146384000Y-77438110D01*
X146384000Y-76836890D01*
X146388085Y-76795409D01*
X146398393Y-76761431D01*
X146415134Y-76730110D01*
X146437661Y-76702661D01*
X146465110Y-76680134D01*
X146496431Y-76663393D01*
X146530409Y-76653085D01*
X146571890Y-76649000D01*
X147248110Y-76649000D01*
X147289591Y-76653085D01*
G37*
G36*
X149709591Y-76653085D02*
G01*
X149743569Y-76663393D01*
X149774890Y-76680134D01*
X149802339Y-76702661D01*
X149824866Y-76730110D01*
X149841607Y-76761431D01*
X149851915Y-76795409D01*
X149856000Y-76836890D01*
X149856000Y-77438110D01*
X149851915Y-77479591D01*
X149841607Y-77513569D01*
X149824866Y-77544890D01*
X149802339Y-77572339D01*
X149774890Y-77594866D01*
X149743569Y-77611607D01*
X149709591Y-77621915D01*
X149668110Y-77626000D01*
X148991890Y-77626000D01*
X148950409Y-77621915D01*
X148916431Y-77611607D01*
X148885110Y-77594866D01*
X148857661Y-77572339D01*
X148835134Y-77544890D01*
X148818393Y-77513569D01*
X148808085Y-77479591D01*
X148804000Y-77438110D01*
X148804000Y-76836890D01*
X148808085Y-76795409D01*
X148818393Y-76761431D01*
X148835134Y-76730110D01*
X148857661Y-76702661D01*
X148885110Y-76680134D01*
X148916431Y-76663393D01*
X148950409Y-76653085D01*
X148991890Y-76649000D01*
X149668110Y-76649000D01*
X149709591Y-76653085D01*
G37*
G36*
X152129591Y-76653085D02*
G01*
X152163569Y-76663393D01*
X152194890Y-76680134D01*
X152222339Y-76702661D01*
X152244866Y-76730110D01*
X152261607Y-76761431D01*
X152271915Y-76795409D01*
X152276000Y-76836890D01*
X152276000Y-77438110D01*
X152271915Y-77479591D01*
X152261607Y-77513569D01*
X152244866Y-77544890D01*
X152222339Y-77572339D01*
X152194890Y-77594866D01*
X152163569Y-77611607D01*
X152129591Y-77621915D01*
X152088110Y-77626000D01*
X151411890Y-77626000D01*
X151370409Y-77621915D01*
X151336431Y-77611607D01*
X151305110Y-77594866D01*
X151277661Y-77572339D01*
X151255134Y-77544890D01*
X151238393Y-77513569D01*
X151228085Y-77479591D01*
X151224000Y-77438110D01*
X151224000Y-76836890D01*
X151228085Y-76795409D01*
X151238393Y-76761431D01*
X151255134Y-76730110D01*
X151277661Y-76702661D01*
X151305110Y-76680134D01*
X151336431Y-76663393D01*
X151370409Y-76653085D01*
X151411890Y-76649000D01*
X152088110Y-76649000D01*
X152129591Y-76653085D01*
G37*
G36*
X142449591Y-76653085D02*
G01*
X142483569Y-76663393D01*
X142514890Y-76680134D01*
X142542339Y-76702661D01*
X142564866Y-76730110D01*
X142581607Y-76761431D01*
X142591915Y-76795409D01*
X142596000Y-76836890D01*
X142596000Y-77438110D01*
X142591915Y-77479591D01*
X142581607Y-77513569D01*
X142564866Y-77544890D01*
X142542339Y-77572339D01*
X142514890Y-77594866D01*
X142483569Y-77611607D01*
X142449591Y-77621915D01*
X142408110Y-77626000D01*
X141731890Y-77626000D01*
X141690409Y-77621915D01*
X141656431Y-77611607D01*
X141625110Y-77594866D01*
X141597661Y-77572339D01*
X141575134Y-77544890D01*
X141558393Y-77513569D01*
X141548085Y-77479591D01*
X141544000Y-77438110D01*
X141544000Y-76836890D01*
X141548085Y-76795409D01*
X141558393Y-76761431D01*
X141575134Y-76730110D01*
X141597661Y-76702661D01*
X141625110Y-76680134D01*
X141656431Y-76663393D01*
X141690409Y-76653085D01*
X141731890Y-76649000D01*
X142408110Y-76649000D01*
X142449591Y-76653085D01*
G37*
G36*
X136757798Y-75628247D02*
G01*
X136793367Y-75639037D01*
X136826139Y-75656554D01*
X136854869Y-75680131D01*
X136878446Y-75708861D01*
X136895963Y-75741633D01*
X136906753Y-75777202D01*
X136911000Y-75820325D01*
X136911000Y-76879675D01*
X136906753Y-76922798D01*
X136895963Y-76958367D01*
X136878446Y-76991139D01*
X136854869Y-77019869D01*
X136826139Y-77043446D01*
X136793367Y-77060963D01*
X136757798Y-77071753D01*
X136714675Y-77076000D01*
X135605325Y-77076000D01*
X135562202Y-77071753D01*
X135526633Y-77060963D01*
X135493861Y-77043446D01*
X135465131Y-77019869D01*
X135441554Y-76991139D01*
X135424037Y-76958367D01*
X135413247Y-76922798D01*
X135409000Y-76879675D01*
X135409000Y-75820325D01*
X135413247Y-75777202D01*
X135424037Y-75741633D01*
X135441554Y-75708861D01*
X135465131Y-75680131D01*
X135493861Y-75656554D01*
X135526633Y-75639037D01*
X135562202Y-75628247D01*
X135605325Y-75624000D01*
X136714675Y-75624000D01*
X136757798Y-75628247D01*
G37*
G36*
X139457798Y-75628247D02*
G01*
X139493367Y-75639037D01*
X139526139Y-75656554D01*
X139554869Y-75680131D01*
X139578446Y-75708861D01*
X139595963Y-75741633D01*
X139606753Y-75777202D01*
X139611000Y-75820325D01*
X139611000Y-76879675D01*
X139606753Y-76922798D01*
X139595963Y-76958367D01*
X139578446Y-76991139D01*
X139554869Y-77019869D01*
X139526139Y-77043446D01*
X139493367Y-77060963D01*
X139457798Y-77071753D01*
X139414675Y-77076000D01*
X138305325Y-77076000D01*
X138262202Y-77071753D01*
X138226633Y-77060963D01*
X138193861Y-77043446D01*
X138165131Y-77019869D01*
X138141554Y-76991139D01*
X138124037Y-76958367D01*
X138113247Y-76922798D01*
X138109000Y-76879675D01*
X138109000Y-75820325D01*
X138113247Y-75777202D01*
X138124037Y-75741633D01*
X138141554Y-75708861D01*
X138165131Y-75680131D01*
X138193861Y-75656554D01*
X138226633Y-75639037D01*
X138262202Y-75628247D01*
X138305325Y-75624000D01*
X139414675Y-75624000D01*
X139457798Y-75628247D01*
G37*
G36*
X144869591Y-75078085D02*
G01*
X144903569Y-75088393D01*
X144934890Y-75105134D01*
X144962339Y-75127661D01*
X144984866Y-75155110D01*
X145001607Y-75186431D01*
X145011915Y-75220409D01*
X145016000Y-75261890D01*
X145016000Y-75863110D01*
X145011915Y-75904591D01*
X145001607Y-75938569D01*
X144984866Y-75969890D01*
X144962339Y-75997339D01*
X144934890Y-76019866D01*
X144903569Y-76036607D01*
X144869591Y-76046915D01*
X144828110Y-76051000D01*
X144151890Y-76051000D01*
X144110409Y-76046915D01*
X144076431Y-76036607D01*
X144045110Y-76019866D01*
X144017661Y-75997339D01*
X143995134Y-75969890D01*
X143978393Y-75938569D01*
X143968085Y-75904591D01*
X143964000Y-75863110D01*
X143964000Y-75261890D01*
X143968085Y-75220409D01*
X143978393Y-75186431D01*
X143995134Y-75155110D01*
X144017661Y-75127661D01*
X144045110Y-75105134D01*
X144076431Y-75088393D01*
X144110409Y-75078085D01*
X144151890Y-75074000D01*
X144828110Y-75074000D01*
X144869591Y-75078085D01*
G37*
G36*
X149709591Y-75078085D02*
G01*
X149743569Y-75088393D01*
X149774890Y-75105134D01*
X149802339Y-75127661D01*
X149824866Y-75155110D01*
X149841607Y-75186431D01*
X149851915Y-75220409D01*
X149856000Y-75261890D01*
X149856000Y-75863110D01*
X149851915Y-75904591D01*
X149841607Y-75938569D01*
X149824866Y-75969890D01*
X149802339Y-75997339D01*
X149774890Y-76019866D01*
X149743569Y-76036607D01*
X149709591Y-76046915D01*
X149668110Y-76051000D01*
X148991890Y-76051000D01*
X148950409Y-76046915D01*
X148916431Y-76036607D01*
X148885110Y-76019866D01*
X148857661Y-75997339D01*
X148835134Y-75969890D01*
X148818393Y-75938569D01*
X148808085Y-75904591D01*
X148804000Y-75863110D01*
X148804000Y-75261890D01*
X148808085Y-75220409D01*
X148818393Y-75186431D01*
X148835134Y-75155110D01*
X148857661Y-75127661D01*
X148885110Y-75105134D01*
X148916431Y-75088393D01*
X148950409Y-75078085D01*
X148991890Y-75074000D01*
X149668110Y-75074000D01*
X149709591Y-75078085D01*
G37*
G36*
X147289591Y-75078085D02*
G01*
X147323569Y-75088393D01*
X147354890Y-75105134D01*
X147382339Y-75127661D01*
X147404866Y-75155110D01*
X147421607Y-75186431D01*
X147431915Y-75220409D01*
X147436000Y-75261890D01*
X147436000Y-75863110D01*
X147431915Y-75904591D01*
X147421607Y-75938569D01*
X147404866Y-75969890D01*
X147382339Y-75997339D01*
X147354890Y-76019866D01*
X147323569Y-76036607D01*
X147289591Y-76046915D01*
X147248110Y-76051000D01*
X146571890Y-76051000D01*
X146530409Y-76046915D01*
X146496431Y-76036607D01*
X146465110Y-76019866D01*
X146437661Y-75997339D01*
X146415134Y-75969890D01*
X146398393Y-75938569D01*
X146388085Y-75904591D01*
X146384000Y-75863110D01*
X146384000Y-75261890D01*
X146388085Y-75220409D01*
X146398393Y-75186431D01*
X146415134Y-75155110D01*
X146437661Y-75127661D01*
X146465110Y-75105134D01*
X146496431Y-75088393D01*
X146530409Y-75078085D01*
X146571890Y-75074000D01*
X147248110Y-75074000D01*
X147289591Y-75078085D01*
G37*
G36*
X152129591Y-75078085D02*
G01*
X152163569Y-75088393D01*
X152194890Y-75105134D01*
X152222339Y-75127661D01*
X152244866Y-75155110D01*
X152261607Y-75186431D01*
X152271915Y-75220409D01*
X152276000Y-75261890D01*
X152276000Y-75863110D01*
X152271915Y-75904591D01*
X152261607Y-75938569D01*
X152244866Y-75969890D01*
X152222339Y-75997339D01*
X152194890Y-76019866D01*
X152163569Y-76036607D01*
X152129591Y-76046915D01*
X152088110Y-76051000D01*
X151411890Y-76051000D01*
X151370409Y-76046915D01*
X151336431Y-76036607D01*
X151305110Y-76019866D01*
X151277661Y-75997339D01*
X151255134Y-75969890D01*
X151238393Y-75938569D01*
X151228085Y-75904591D01*
X151224000Y-75863110D01*
X151224000Y-75261890D01*
X151228085Y-75220409D01*
X151238393Y-75186431D01*
X151255134Y-75155110D01*
X151277661Y-75127661D01*
X151305110Y-75105134D01*
X151336431Y-75088393D01*
X151370409Y-75078085D01*
X151411890Y-75074000D01*
X152088110Y-75074000D01*
X152129591Y-75078085D01*
G37*
G36*
X142449591Y-75078085D02*
G01*
X142483569Y-75088393D01*
X142514890Y-75105134D01*
X142542339Y-75127661D01*
X142564866Y-75155110D01*
X142581607Y-75186431D01*
X142591915Y-75220409D01*
X142596000Y-75261890D01*
X142596000Y-75863110D01*
X142591915Y-75904591D01*
X142581607Y-75938569D01*
X142564866Y-75969890D01*
X142542339Y-75997339D01*
X142514890Y-76019866D01*
X142483569Y-76036607D01*
X142449591Y-76046915D01*
X142408110Y-76051000D01*
X141731890Y-76051000D01*
X141690409Y-76046915D01*
X141656431Y-76036607D01*
X141625110Y-76019866D01*
X141597661Y-75997339D01*
X141575134Y-75969890D01*
X141558393Y-75938569D01*
X141548085Y-75904591D01*
X141544000Y-75863110D01*
X141544000Y-75261890D01*
X141548085Y-75220409D01*
X141558393Y-75186431D01*
X141575134Y-75155110D01*
X141597661Y-75127661D01*
X141625110Y-75105134D01*
X141656431Y-75088393D01*
X141690409Y-75078085D01*
X141731890Y-75074000D01*
X142408110Y-75074000D01*
X142449591Y-75078085D01*
G37*
G36*
X137049999Y-71424737D02*
G01*
X137059608Y-71427652D01*
X137068472Y-71432390D01*
X137076237Y-71438763D01*
X137082610Y-71446528D01*
X137087348Y-71455392D01*
X137090262Y-71465000D01*
X137091852Y-71481140D01*
X137091852Y-72618860D01*
X137090263Y-72634999D01*
X137087348Y-72644608D01*
X137082610Y-72653472D01*
X137076237Y-72661237D01*
X137063263Y-72671884D01*
X137054032Y-72678053D01*
X137036706Y-72695381D01*
X137023093Y-72715756D01*
X137013717Y-72738395D01*
X137008937Y-72762428D01*
X137008938Y-72786932D01*
X137013720Y-72810965D01*
X137023098Y-72833604D01*
X137036713Y-72853978D01*
X137054041Y-72871304D01*
X137063317Y-72878175D01*
X137068427Y-72882360D01*
X137076199Y-72888725D01*
X137082581Y-72896484D01*
X137087326Y-72905339D01*
X137087326Y-72905340D01*
X137090242Y-72914915D01*
X137090242Y-72914918D01*
X137090252Y-72914950D01*
X137091247Y-72925000D01*
X137091247Y-72925065D01*
X137091852Y-72931175D01*
X137091852Y-73918860D01*
X137090263Y-73934999D01*
X137087348Y-73944608D01*
X137082610Y-73953472D01*
X137076237Y-73961237D01*
X137068472Y-73967610D01*
X137059608Y-73972348D01*
X137049999Y-73975263D01*
X137033860Y-73976852D01*
X135546140Y-73976852D01*
X135530001Y-73975263D01*
X135520392Y-73972348D01*
X135511528Y-73967610D01*
X135503763Y-73961237D01*
X135497390Y-73953472D01*
X135492652Y-73944608D01*
X135489737Y-73934999D01*
X135488148Y-73918860D01*
X135488148Y-72931140D01*
X135489738Y-72915000D01*
X135492652Y-72905392D01*
X135497390Y-72896528D01*
X135503742Y-72888788D01*
X135503743Y-72888787D01*
X135503763Y-72888763D01*
X135511573Y-72882360D01*
X135511628Y-72882323D01*
X135521147Y-72874520D01*
X135521122Y-72874489D01*
X135534972Y-72863147D01*
X135550537Y-72844221D01*
X135562111Y-72822623D01*
X135569249Y-72799181D01*
X135571676Y-72774798D01*
X135569300Y-72750409D01*
X135562211Y-72726953D01*
X135550682Y-72705330D01*
X135535157Y-72686372D01*
X135516231Y-72670807D01*
X135513175Y-72668971D01*
X135511486Y-72667582D01*
X135511484Y-72667581D01*
X135503725Y-72661199D01*
X135500762Y-72657581D01*
X135497358Y-72653425D01*
X135494209Y-72647517D01*
X135492633Y-72644562D01*
X135489727Y-72634945D01*
X135489718Y-72634915D01*
X135488148Y-72618887D01*
X135488148Y-71481140D01*
X135489738Y-71465000D01*
X135492652Y-71455392D01*
X135497390Y-71446528D01*
X135503763Y-71438763D01*
X135511528Y-71432390D01*
X135520392Y-71427652D01*
X135530001Y-71424737D01*
X135546140Y-71423148D01*
X137033860Y-71423148D01*
X137049999Y-71424737D01*
G37*
G36*
X139609999Y-71414737D02*
G01*
X139619608Y-71417652D01*
X139628472Y-71422390D01*
X139636237Y-71428763D01*
X139642610Y-71436528D01*
X139647348Y-71445392D01*
X139650263Y-71455001D01*
X139651852Y-71471140D01*
X139651852Y-72608860D01*
X139650263Y-72624999D01*
X139647348Y-72634608D01*
X139642610Y-72643472D01*
X139636237Y-72651237D01*
X139623263Y-72661884D01*
X139614032Y-72668053D01*
X139596706Y-72685381D01*
X139583093Y-72705756D01*
X139573717Y-72728395D01*
X139568937Y-72752428D01*
X139568938Y-72776932D01*
X139573720Y-72800965D01*
X139583098Y-72823604D01*
X139596713Y-72843978D01*
X139614041Y-72861304D01*
X139623317Y-72868175D01*
X139628427Y-72872360D01*
X139636199Y-72878725D01*
X139642581Y-72886484D01*
X139647326Y-72895339D01*
X139647675Y-72896485D01*
X139650242Y-72904915D01*
X139650242Y-72904918D01*
X139650252Y-72904950D01*
X139651247Y-72915000D01*
X139651247Y-72915065D01*
X139651852Y-72921175D01*
X139651852Y-73908860D01*
X139650263Y-73924999D01*
X139647348Y-73934608D01*
X139642610Y-73943472D01*
X139636237Y-73951237D01*
X139628472Y-73957610D01*
X139619608Y-73962348D01*
X139609999Y-73965263D01*
X139593860Y-73966852D01*
X138106140Y-73966852D01*
X138090001Y-73965263D01*
X138080392Y-73962348D01*
X138071528Y-73957610D01*
X138063763Y-73951237D01*
X138057390Y-73943472D01*
X138052652Y-73934608D01*
X138049737Y-73924999D01*
X138048148Y-73908860D01*
X138048148Y-72921140D01*
X138049737Y-72905001D01*
X138052652Y-72895392D01*
X138057390Y-72886528D01*
X138063742Y-72878788D01*
X138063743Y-72878787D01*
X138063763Y-72878763D01*
X138071573Y-72872360D01*
X138071628Y-72872323D01*
X138081147Y-72864520D01*
X138081122Y-72864489D01*
X138094972Y-72853147D01*
X138110537Y-72834221D01*
X138122111Y-72812623D01*
X138129249Y-72789181D01*
X138131676Y-72764798D01*
X138129300Y-72740409D01*
X138122211Y-72716953D01*
X138110682Y-72695330D01*
X138095157Y-72676372D01*
X138076231Y-72660807D01*
X138073175Y-72658971D01*
X138071486Y-72657582D01*
X138071484Y-72657581D01*
X138063725Y-72651199D01*
X138061603Y-72648608D01*
X138057358Y-72643425D01*
X138052866Y-72634999D01*
X138052633Y-72634562D01*
X138049727Y-72624945D01*
X138049718Y-72624915D01*
X138048148Y-72608887D01*
X138048148Y-71471140D01*
X138049737Y-71455001D01*
X138052652Y-71445392D01*
X138057390Y-71436528D01*
X138063763Y-71428763D01*
X138071528Y-71422390D01*
X138080392Y-71417652D01*
X138090001Y-71414737D01*
X138106140Y-71413148D01*
X139593860Y-71413148D01*
X139609999Y-71414737D01*
G37*
G36*
X152074999Y-71829737D02*
G01*
X152084608Y-71832652D01*
X152093472Y-71837390D01*
X152101212Y-71843742D01*
X152101213Y-71843743D01*
X152101237Y-71843763D01*
X152107640Y-71851573D01*
X152107677Y-71851628D01*
X152115480Y-71861147D01*
X152115511Y-71861122D01*
X152126853Y-71874972D01*
X152145779Y-71890537D01*
X152167377Y-71902111D01*
X152190819Y-71909249D01*
X152215202Y-71911676D01*
X152239591Y-71909300D01*
X152263047Y-71902211D01*
X152284670Y-71890682D01*
X152303628Y-71875157D01*
X152319193Y-71856231D01*
X152321029Y-71853175D01*
X152322418Y-71851486D01*
X152322419Y-71851484D01*
X152328801Y-71843725D01*
X152336573Y-71837360D01*
X152336575Y-71837358D01*
X152342483Y-71834209D01*
X152345438Y-71832633D01*
X152355055Y-71829727D01*
X152355085Y-71829718D01*
X152371113Y-71828148D01*
X153508860Y-71828148D01*
X153524999Y-71829737D01*
X153534608Y-71832652D01*
X153543472Y-71837390D01*
X153551237Y-71843763D01*
X153557610Y-71851528D01*
X153562348Y-71860392D01*
X153565263Y-71870001D01*
X153566852Y-71886140D01*
X153566852Y-73373860D01*
X153565263Y-73389999D01*
X153562348Y-73399608D01*
X153557610Y-73408472D01*
X153551237Y-73416237D01*
X153543472Y-73422610D01*
X153534608Y-73427348D01*
X153524999Y-73430263D01*
X153508860Y-73431852D01*
X152371140Y-73431852D01*
X152355001Y-73430263D01*
X152345392Y-73427348D01*
X152336528Y-73422610D01*
X152328763Y-73416237D01*
X152318116Y-73403263D01*
X152311947Y-73394032D01*
X152294619Y-73376706D01*
X152274244Y-73363093D01*
X152251605Y-73353717D01*
X152227572Y-73348937D01*
X152203068Y-73348938D01*
X152179035Y-73353720D01*
X152156396Y-73363098D01*
X152136022Y-73376713D01*
X152118696Y-73394041D01*
X152111825Y-73403317D01*
X152107640Y-73408427D01*
X152101275Y-73416199D01*
X152093516Y-73422581D01*
X152084661Y-73427326D01*
X152081623Y-73428251D01*
X152075085Y-73430242D01*
X152075082Y-73430242D01*
X152075050Y-73430252D01*
X152065000Y-73431247D01*
X152064935Y-73431247D01*
X152058825Y-73431852D01*
X151071140Y-73431852D01*
X151055001Y-73430263D01*
X151045392Y-73427348D01*
X151036528Y-73422610D01*
X151028763Y-73416237D01*
X151022390Y-73408472D01*
X151017652Y-73399608D01*
X151014737Y-73389999D01*
X151013148Y-73373860D01*
X151013148Y-71886140D01*
X151014737Y-71870001D01*
X151017652Y-71860392D01*
X151022390Y-71851528D01*
X151028763Y-71843763D01*
X151036528Y-71837390D01*
X151045392Y-71832652D01*
X151055001Y-71829737D01*
X151071140Y-71828148D01*
X152058860Y-71828148D01*
X152074999Y-71829737D01*
G37*
G36*
X148844999Y-71829737D02*
G01*
X148854608Y-71832652D01*
X148863472Y-71837390D01*
X148871237Y-71843763D01*
X148881884Y-71856737D01*
X148888053Y-71865968D01*
X148905381Y-71883294D01*
X148925756Y-71896907D01*
X148948395Y-71906283D01*
X148972428Y-71911063D01*
X148996932Y-71911062D01*
X149020965Y-71906280D01*
X149043604Y-71896902D01*
X149063978Y-71883287D01*
X149081304Y-71865959D01*
X149088175Y-71856683D01*
X149098726Y-71843800D01*
X149100103Y-71842668D01*
X149106484Y-71837419D01*
X149115339Y-71832674D01*
X149118377Y-71831749D01*
X149124915Y-71829758D01*
X149124918Y-71829758D01*
X149124950Y-71829748D01*
X149135000Y-71828753D01*
X149135065Y-71828753D01*
X149141175Y-71828148D01*
X150128860Y-71828148D01*
X150144999Y-71829737D01*
X150154608Y-71832652D01*
X150163472Y-71837390D01*
X150171237Y-71843763D01*
X150177610Y-71851528D01*
X150182348Y-71860392D01*
X150185263Y-71870001D01*
X150186852Y-71886140D01*
X150186852Y-73373860D01*
X150185263Y-73389999D01*
X150182348Y-73399608D01*
X150177610Y-73408472D01*
X150171237Y-73416237D01*
X150163472Y-73422610D01*
X150154608Y-73427348D01*
X150144999Y-73430263D01*
X150128860Y-73431852D01*
X149141140Y-73431852D01*
X149125001Y-73430263D01*
X149115392Y-73427348D01*
X149106528Y-73422610D01*
X149098788Y-73416258D01*
X149098787Y-73416257D01*
X149098763Y-73416237D01*
X149092360Y-73408427D01*
X149092323Y-73408372D01*
X149084520Y-73398853D01*
X149084489Y-73398878D01*
X149073147Y-73385028D01*
X149054221Y-73369463D01*
X149032623Y-73357889D01*
X149009181Y-73350751D01*
X148984798Y-73348324D01*
X148960409Y-73350700D01*
X148936953Y-73357789D01*
X148915330Y-73369318D01*
X148896372Y-73384843D01*
X148880807Y-73403769D01*
X148878971Y-73406825D01*
X148877582Y-73408514D01*
X148877581Y-73408516D01*
X148872485Y-73414712D01*
X148871200Y-73416274D01*
X148863425Y-73422642D01*
X148857517Y-73425791D01*
X148854562Y-73427367D01*
X148845014Y-73430252D01*
X148844915Y-73430282D01*
X148828887Y-73431852D01*
X147691140Y-73431852D01*
X147675001Y-73430263D01*
X147665392Y-73427348D01*
X147656528Y-73422610D01*
X147648763Y-73416237D01*
X147642390Y-73408472D01*
X147637652Y-73399608D01*
X147634737Y-73389999D01*
X147633148Y-73373860D01*
X147633148Y-71886140D01*
X147634737Y-71870001D01*
X147637652Y-71860392D01*
X147642390Y-71851528D01*
X147648763Y-71843763D01*
X147656528Y-71837390D01*
X147665392Y-71832652D01*
X147675001Y-71829737D01*
X147691140Y-71828148D01*
X148828860Y-71828148D01*
X148844999Y-71829737D01*
G37*
G36*
X131694794Y-68720155D02*
G01*
X131801150Y-68741311D01*
X132001520Y-68824307D01*
X132181844Y-68944795D01*
X132335205Y-69098156D01*
X132455693Y-69278480D01*
X132470299Y-69313742D01*
X132538689Y-69478850D01*
X132559844Y-69585205D01*
X132573088Y-69651782D01*
X132581000Y-69691561D01*
X132581000Y-69908439D01*
X132544612Y-70091375D01*
X132538689Y-70121149D01*
X132455693Y-70321520D01*
X132335205Y-70501844D01*
X132181844Y-70655205D01*
X132001520Y-70775693D01*
X131901334Y-70817191D01*
X131801150Y-70858689D01*
X131694795Y-70879844D01*
X131588440Y-70901000D01*
X131371560Y-70901000D01*
X131265205Y-70879844D01*
X131158850Y-70858689D01*
X131058666Y-70817191D01*
X130958480Y-70775693D01*
X130778156Y-70655205D01*
X130624795Y-70501844D01*
X130504307Y-70321520D01*
X130421311Y-70121149D01*
X130415389Y-70091375D01*
X130379000Y-69908439D01*
X130379000Y-69691561D01*
X130386913Y-69651782D01*
X130400156Y-69585205D01*
X130421311Y-69478850D01*
X130489701Y-69313742D01*
X130504307Y-69278480D01*
X130624795Y-69098156D01*
X130778156Y-68944795D01*
X130958480Y-68824307D01*
X131158850Y-68741311D01*
X131265206Y-68720155D01*
X131371560Y-68699000D01*
X131588440Y-68699000D01*
X131694794Y-68720155D01*
G37*
G36*
X156738512Y-68328927D02*
G01*
X156887812Y-68358624D01*
X157051784Y-68426544D01*
X157199354Y-68525147D01*
X157324853Y-68650646D01*
X157423456Y-68798216D01*
X157491376Y-68962188D01*
X157526000Y-69136259D01*
X157526000Y-69313741D01*
X157491376Y-69487812D01*
X157423456Y-69651784D01*
X157324853Y-69799354D01*
X157199354Y-69924853D01*
X157051784Y-70023456D01*
X156887812Y-70091376D01*
X156738512Y-70121073D01*
X156713742Y-70126000D01*
X156536258Y-70126000D01*
X156511488Y-70121073D01*
X156362188Y-70091376D01*
X156198216Y-70023456D01*
X156050646Y-69924853D01*
X155925147Y-69799354D01*
X155826544Y-69651784D01*
X155758624Y-69487812D01*
X155724000Y-69313741D01*
X155724000Y-69136259D01*
X155758624Y-68962188D01*
X155826544Y-68798216D01*
X155925147Y-68650646D01*
X156050646Y-68525147D01*
X156198216Y-68426544D01*
X156362188Y-68358624D01*
X156511488Y-68328927D01*
X156536258Y-68324000D01*
X156713742Y-68324000D01*
X156738512Y-68328927D01*
G37*
G36*
X159278512Y-68328927D02*
G01*
X159427812Y-68358624D01*
X159591784Y-68426544D01*
X159739354Y-68525147D01*
X159864853Y-68650646D01*
X159963456Y-68798216D01*
X160031376Y-68962188D01*
X160066000Y-69136259D01*
X160066000Y-69313741D01*
X160031376Y-69487812D01*
X159963456Y-69651784D01*
X159864853Y-69799354D01*
X159739354Y-69924853D01*
X159591784Y-70023456D01*
X159427812Y-70091376D01*
X159278512Y-70121073D01*
X159253742Y-70126000D01*
X159076258Y-70126000D01*
X159051488Y-70121073D01*
X158902188Y-70091376D01*
X158738216Y-70023456D01*
X158590646Y-69924853D01*
X158465147Y-69799354D01*
X158366544Y-69651784D01*
X158298624Y-69487812D01*
X158264000Y-69313741D01*
X158264000Y-69136259D01*
X158298624Y-68962188D01*
X158366544Y-68798216D01*
X158465147Y-68650646D01*
X158590646Y-68525147D01*
X158738216Y-68426544D01*
X158902188Y-68358624D01*
X159051488Y-68328927D01*
X159076258Y-68324000D01*
X159253742Y-68324000D01*
X159278512Y-68328927D01*
G37*
G36*
X161818512Y-68328927D02*
G01*
X161967812Y-68358624D01*
X162131784Y-68426544D01*
X162279354Y-68525147D01*
X162404853Y-68650646D01*
X162503456Y-68798216D01*
X162571376Y-68962188D01*
X162606000Y-69136259D01*
X162606000Y-69313741D01*
X162571376Y-69487812D01*
X162503456Y-69651784D01*
X162404853Y-69799354D01*
X162279354Y-69924853D01*
X162131784Y-70023456D01*
X161967812Y-70091376D01*
X161818512Y-70121073D01*
X161793742Y-70126000D01*
X161616258Y-70126000D01*
X161591488Y-70121073D01*
X161442188Y-70091376D01*
X161278216Y-70023456D01*
X161130646Y-69924853D01*
X161005147Y-69799354D01*
X160906544Y-69651784D01*
X160838624Y-69487812D01*
X160804000Y-69313741D01*
X160804000Y-69136259D01*
X160838624Y-68962188D01*
X160906544Y-68798216D01*
X161005147Y-68650646D01*
X161130646Y-68525147D01*
X161278216Y-68426544D01*
X161442188Y-68358624D01*
X161591488Y-68328927D01*
X161616258Y-68324000D01*
X161793742Y-68324000D01*
X161818512Y-68328927D01*
G37*
G36*
X137206000Y-70126000D02*
G01*
X135404000Y-70126000D01*
X135404000Y-68324000D01*
X137206000Y-68324000D01*
X137206000Y-70126000D01*
G37*
G36*
X151658512Y-68328927D02*
G01*
X151807812Y-68358624D01*
X151971784Y-68426544D01*
X152119354Y-68525147D01*
X152244853Y-68650646D01*
X152343456Y-68798216D01*
X152411376Y-68962188D01*
X152446000Y-69136259D01*
X152446000Y-69313741D01*
X152411376Y-69487812D01*
X152343456Y-69651784D01*
X152244853Y-69799354D01*
X152119354Y-69924853D01*
X151971784Y-70023456D01*
X151807812Y-70091376D01*
X151658512Y-70121073D01*
X151633742Y-70126000D01*
X151456258Y-70126000D01*
X151431488Y-70121073D01*
X151282188Y-70091376D01*
X151118216Y-70023456D01*
X150970646Y-69924853D01*
X150845147Y-69799354D01*
X150746544Y-69651784D01*
X150678624Y-69487812D01*
X150644000Y-69313741D01*
X150644000Y-69136259D01*
X150678624Y-68962188D01*
X150746544Y-68798216D01*
X150845147Y-68650646D01*
X150970646Y-68525147D01*
X151118216Y-68426544D01*
X151282188Y-68358624D01*
X151431488Y-68328927D01*
X151456258Y-68324000D01*
X151633742Y-68324000D01*
X151658512Y-68328927D01*
G37*
G36*
X149118512Y-68328927D02*
G01*
X149267812Y-68358624D01*
X149431784Y-68426544D01*
X149579354Y-68525147D01*
X149704853Y-68650646D01*
X149803456Y-68798216D01*
X149871376Y-68962188D01*
X149906000Y-69136259D01*
X149906000Y-69313741D01*
X149871376Y-69487812D01*
X149803456Y-69651784D01*
X149704853Y-69799354D01*
X149579354Y-69924853D01*
X149431784Y-70023456D01*
X149267812Y-70091376D01*
X149118512Y-70121073D01*
X149093742Y-70126000D01*
X148916258Y-70126000D01*
X148891488Y-70121073D01*
X148742188Y-70091376D01*
X148578216Y-70023456D01*
X148430646Y-69924853D01*
X148305147Y-69799354D01*
X148206544Y-69651784D01*
X148138624Y-69487812D01*
X148104000Y-69313741D01*
X148104000Y-69136259D01*
X148138624Y-68962188D01*
X148206544Y-68798216D01*
X148305147Y-68650646D01*
X148430646Y-68525147D01*
X148578216Y-68426544D01*
X148742188Y-68358624D01*
X148891488Y-68328927D01*
X148916258Y-68324000D01*
X149093742Y-68324000D01*
X149118512Y-68328927D01*
G37*
G36*
X146578512Y-68328927D02*
G01*
X146727812Y-68358624D01*
X146891784Y-68426544D01*
X147039354Y-68525147D01*
X147164853Y-68650646D01*
X147263456Y-68798216D01*
X147331376Y-68962188D01*
X147366000Y-69136259D01*
X147366000Y-69313741D01*
X147331376Y-69487812D01*
X147263456Y-69651784D01*
X147164853Y-69799354D01*
X147039354Y-69924853D01*
X146891784Y-70023456D01*
X146727812Y-70091376D01*
X146578512Y-70121073D01*
X146553742Y-70126000D01*
X146376258Y-70126000D01*
X146351488Y-70121073D01*
X146202188Y-70091376D01*
X146038216Y-70023456D01*
X145890646Y-69924853D01*
X145765147Y-69799354D01*
X145666544Y-69651784D01*
X145598624Y-69487812D01*
X145564000Y-69313741D01*
X145564000Y-69136259D01*
X145598624Y-68962188D01*
X145666544Y-68798216D01*
X145765147Y-68650646D01*
X145890646Y-68525147D01*
X146038216Y-68426544D01*
X146202188Y-68358624D01*
X146351488Y-68328927D01*
X146376258Y-68324000D01*
X146553742Y-68324000D01*
X146578512Y-68328927D01*
G37*
G36*
X144038512Y-68328927D02*
G01*
X144187812Y-68358624D01*
X144351784Y-68426544D01*
X144499354Y-68525147D01*
X144624853Y-68650646D01*
X144723456Y-68798216D01*
X144791376Y-68962188D01*
X144826000Y-69136259D01*
X144826000Y-69313741D01*
X144791376Y-69487812D01*
X144723456Y-69651784D01*
X144624853Y-69799354D01*
X144499354Y-69924853D01*
X144351784Y-70023456D01*
X144187812Y-70091376D01*
X144038512Y-70121073D01*
X144013742Y-70126000D01*
X143836258Y-70126000D01*
X143811488Y-70121073D01*
X143662188Y-70091376D01*
X143498216Y-70023456D01*
X143350646Y-69924853D01*
X143225147Y-69799354D01*
X143126544Y-69651784D01*
X143058624Y-69487812D01*
X143024000Y-69313741D01*
X143024000Y-69136259D01*
X143058624Y-68962188D01*
X143126544Y-68798216D01*
X143225147Y-68650646D01*
X143350646Y-68525147D01*
X143498216Y-68426544D01*
X143662188Y-68358624D01*
X143811488Y-68328927D01*
X143836258Y-68324000D01*
X144013742Y-68324000D01*
X144038512Y-68328927D01*
G37*
G36*
X141498512Y-68328927D02*
G01*
X141647812Y-68358624D01*
X141811784Y-68426544D01*
X141959354Y-68525147D01*
X142084853Y-68650646D01*
X142183456Y-68798216D01*
X142251376Y-68962188D01*
X142286000Y-69136259D01*
X142286000Y-69313741D01*
X142251376Y-69487812D01*
X142183456Y-69651784D01*
X142084853Y-69799354D01*
X141959354Y-69924853D01*
X141811784Y-70023456D01*
X141647812Y-70091376D01*
X141498512Y-70121073D01*
X141473742Y-70126000D01*
X141296258Y-70126000D01*
X141271488Y-70121073D01*
X141122188Y-70091376D01*
X140958216Y-70023456D01*
X140810646Y-69924853D01*
X140685147Y-69799354D01*
X140586544Y-69651784D01*
X140518624Y-69487812D01*
X140484000Y-69313741D01*
X140484000Y-69136259D01*
X140518624Y-68962188D01*
X140586544Y-68798216D01*
X140685147Y-68650646D01*
X140810646Y-68525147D01*
X140958216Y-68426544D01*
X141122188Y-68358624D01*
X141271488Y-68328927D01*
X141296258Y-68324000D01*
X141473742Y-68324000D01*
X141498512Y-68328927D01*
G37*
G36*
X138958512Y-68328927D02*
G01*
X139107812Y-68358624D01*
X139271784Y-68426544D01*
X139419354Y-68525147D01*
X139544853Y-68650646D01*
X139643456Y-68798216D01*
X139711376Y-68962188D01*
X139746000Y-69136259D01*
X139746000Y-69313741D01*
X139711376Y-69487812D01*
X139643456Y-69651784D01*
X139544853Y-69799354D01*
X139419354Y-69924853D01*
X139271784Y-70023456D01*
X139107812Y-70091376D01*
X138958512Y-70121073D01*
X138933742Y-70126000D01*
X138756258Y-70126000D01*
X138731488Y-70121073D01*
X138582188Y-70091376D01*
X138418216Y-70023456D01*
X138270646Y-69924853D01*
X138145147Y-69799354D01*
X138046544Y-69651784D01*
X137978624Y-69487812D01*
X137944000Y-69313741D01*
X137944000Y-69136259D01*
X137978624Y-68962188D01*
X138046544Y-68798216D01*
X138145147Y-68650646D01*
X138270646Y-68525147D01*
X138418216Y-68426544D01*
X138582188Y-68358624D01*
X138731488Y-68328927D01*
X138756258Y-68324000D01*
X138933742Y-68324000D01*
X138958512Y-68328927D01*
G37*
G36*
X154198512Y-68328927D02*
G01*
X154347812Y-68358624D01*
X154511784Y-68426544D01*
X154659354Y-68525147D01*
X154784853Y-68650646D01*
X154883456Y-68798216D01*
X154951376Y-68962188D01*
X154986000Y-69136259D01*
X154986000Y-69313741D01*
X154951376Y-69487812D01*
X154883456Y-69651784D01*
X154784853Y-69799354D01*
X154659354Y-69924853D01*
X154511784Y-70023456D01*
X154347812Y-70091376D01*
X154198512Y-70121073D01*
X154173742Y-70126000D01*
X153996258Y-70126000D01*
X153971488Y-70121073D01*
X153822188Y-70091376D01*
X153658216Y-70023456D01*
X153510646Y-69924853D01*
X153385147Y-69799354D01*
X153286544Y-69651784D01*
X153218624Y-69487812D01*
X153184000Y-69313741D01*
X153184000Y-69136259D01*
X153218624Y-68962188D01*
X153286544Y-68798216D01*
X153385147Y-68650646D01*
X153510646Y-68525147D01*
X153658216Y-68426544D01*
X153822188Y-68358624D01*
X153971488Y-68328927D01*
X153996258Y-68324000D01*
X154173742Y-68324000D01*
X154198512Y-68328927D01*
G37*
M02*
