G04 #@! TF.GenerationSoftware,KiCad,Pcbnew,(5.1.5)-3*
G04 #@! TF.CreationDate,2020-02-15T00:20:02-08:00*
G04 #@! TF.ProjectId,IS31FL3733-dev,49533331-464c-4333-9733-332d6465762e,0.1*
G04 #@! TF.SameCoordinates,Original*
G04 #@! TF.FileFunction,Paste,Bot*
G04 #@! TF.FilePolarity,Positive*
%FSLAX46Y46*%
G04 Gerber Fmt 4.6, Leading zero omitted, Abs format (unit mm)*
G04 Created by KiCad (PCBNEW (5.1.5)-3) date 2020-02-15 00:20:02*
%MOMM*%
%LPD*%
G04 APERTURE LIST*
%ADD10C,0.100000*%
G04 APERTURE END LIST*
D10*
G36*
X136634505Y-75676204D02*
G01*
X136658773Y-75679804D01*
X136682572Y-75685765D01*
X136705671Y-75694030D01*
X136727850Y-75704520D01*
X136748893Y-75717132D01*
X136768599Y-75731747D01*
X136786777Y-75748223D01*
X136803253Y-75766401D01*
X136817868Y-75786107D01*
X136830480Y-75807150D01*
X136840970Y-75829329D01*
X136849235Y-75852428D01*
X136855196Y-75876227D01*
X136858796Y-75900495D01*
X136860000Y-75924999D01*
X136860000Y-76775001D01*
X136858796Y-76799505D01*
X136855196Y-76823773D01*
X136849235Y-76847572D01*
X136840970Y-76870671D01*
X136830480Y-76892850D01*
X136817868Y-76913893D01*
X136803253Y-76933599D01*
X136786777Y-76951777D01*
X136768599Y-76968253D01*
X136748893Y-76982868D01*
X136727850Y-76995480D01*
X136705671Y-77005970D01*
X136682572Y-77014235D01*
X136658773Y-77020196D01*
X136634505Y-77023796D01*
X136610001Y-77025000D01*
X135709999Y-77025000D01*
X135685495Y-77023796D01*
X135661227Y-77020196D01*
X135637428Y-77014235D01*
X135614329Y-77005970D01*
X135592150Y-76995480D01*
X135571107Y-76982868D01*
X135551401Y-76968253D01*
X135533223Y-76951777D01*
X135516747Y-76933599D01*
X135502132Y-76913893D01*
X135489520Y-76892850D01*
X135479030Y-76870671D01*
X135470765Y-76847572D01*
X135464804Y-76823773D01*
X135461204Y-76799505D01*
X135460000Y-76775001D01*
X135460000Y-75924999D01*
X135461204Y-75900495D01*
X135464804Y-75876227D01*
X135470765Y-75852428D01*
X135479030Y-75829329D01*
X135489520Y-75807150D01*
X135502132Y-75786107D01*
X135516747Y-75766401D01*
X135533223Y-75748223D01*
X135551401Y-75731747D01*
X135571107Y-75717132D01*
X135592150Y-75704520D01*
X135614329Y-75694030D01*
X135637428Y-75685765D01*
X135661227Y-75679804D01*
X135685495Y-75676204D01*
X135709999Y-75675000D01*
X136610001Y-75675000D01*
X136634505Y-75676204D01*
G37*
G36*
X139334505Y-75676204D02*
G01*
X139358773Y-75679804D01*
X139382572Y-75685765D01*
X139405671Y-75694030D01*
X139427850Y-75704520D01*
X139448893Y-75717132D01*
X139468599Y-75731747D01*
X139486777Y-75748223D01*
X139503253Y-75766401D01*
X139517868Y-75786107D01*
X139530480Y-75807150D01*
X139540970Y-75829329D01*
X139549235Y-75852428D01*
X139555196Y-75876227D01*
X139558796Y-75900495D01*
X139560000Y-75924999D01*
X139560000Y-76775001D01*
X139558796Y-76799505D01*
X139555196Y-76823773D01*
X139549235Y-76847572D01*
X139540970Y-76870671D01*
X139530480Y-76892850D01*
X139517868Y-76913893D01*
X139503253Y-76933599D01*
X139486777Y-76951777D01*
X139468599Y-76968253D01*
X139448893Y-76982868D01*
X139427850Y-76995480D01*
X139405671Y-77005970D01*
X139382572Y-77014235D01*
X139358773Y-77020196D01*
X139334505Y-77023796D01*
X139310001Y-77025000D01*
X138409999Y-77025000D01*
X138385495Y-77023796D01*
X138361227Y-77020196D01*
X138337428Y-77014235D01*
X138314329Y-77005970D01*
X138292150Y-76995480D01*
X138271107Y-76982868D01*
X138251401Y-76968253D01*
X138233223Y-76951777D01*
X138216747Y-76933599D01*
X138202132Y-76913893D01*
X138189520Y-76892850D01*
X138179030Y-76870671D01*
X138170765Y-76847572D01*
X138164804Y-76823773D01*
X138161204Y-76799505D01*
X138160000Y-76775001D01*
X138160000Y-75924999D01*
X138161204Y-75900495D01*
X138164804Y-75876227D01*
X138170765Y-75852428D01*
X138179030Y-75829329D01*
X138189520Y-75807150D01*
X138202132Y-75786107D01*
X138216747Y-75766401D01*
X138233223Y-75748223D01*
X138251401Y-75731747D01*
X138271107Y-75717132D01*
X138292150Y-75704520D01*
X138314329Y-75694030D01*
X138337428Y-75685765D01*
X138361227Y-75679804D01*
X138385495Y-75676204D01*
X138409999Y-75675000D01*
X139310001Y-75675000D01*
X139334505Y-75676204D01*
G37*
G36*
X142347691Y-75126053D02*
G01*
X142368926Y-75129203D01*
X142389750Y-75134419D01*
X142409962Y-75141651D01*
X142429368Y-75150830D01*
X142447781Y-75161866D01*
X142465024Y-75174654D01*
X142480930Y-75189070D01*
X142495346Y-75204976D01*
X142508134Y-75222219D01*
X142519170Y-75240632D01*
X142528349Y-75260038D01*
X142535581Y-75280250D01*
X142540797Y-75301074D01*
X142543947Y-75322309D01*
X142545000Y-75343750D01*
X142545000Y-75781250D01*
X142543947Y-75802691D01*
X142540797Y-75823926D01*
X142535581Y-75844750D01*
X142528349Y-75864962D01*
X142519170Y-75884368D01*
X142508134Y-75902781D01*
X142495346Y-75920024D01*
X142480930Y-75935930D01*
X142465024Y-75950346D01*
X142447781Y-75963134D01*
X142429368Y-75974170D01*
X142409962Y-75983349D01*
X142389750Y-75990581D01*
X142368926Y-75995797D01*
X142347691Y-75998947D01*
X142326250Y-76000000D01*
X141813750Y-76000000D01*
X141792309Y-75998947D01*
X141771074Y-75995797D01*
X141750250Y-75990581D01*
X141730038Y-75983349D01*
X141710632Y-75974170D01*
X141692219Y-75963134D01*
X141674976Y-75950346D01*
X141659070Y-75935930D01*
X141644654Y-75920024D01*
X141631866Y-75902781D01*
X141620830Y-75884368D01*
X141611651Y-75864962D01*
X141604419Y-75844750D01*
X141599203Y-75823926D01*
X141596053Y-75802691D01*
X141595000Y-75781250D01*
X141595000Y-75343750D01*
X141596053Y-75322309D01*
X141599203Y-75301074D01*
X141604419Y-75280250D01*
X141611651Y-75260038D01*
X141620830Y-75240632D01*
X141631866Y-75222219D01*
X141644654Y-75204976D01*
X141659070Y-75189070D01*
X141674976Y-75174654D01*
X141692219Y-75161866D01*
X141710632Y-75150830D01*
X141730038Y-75141651D01*
X141750250Y-75134419D01*
X141771074Y-75129203D01*
X141792309Y-75126053D01*
X141813750Y-75125000D01*
X142326250Y-75125000D01*
X142347691Y-75126053D01*
G37*
G36*
X142347691Y-76701053D02*
G01*
X142368926Y-76704203D01*
X142389750Y-76709419D01*
X142409962Y-76716651D01*
X142429368Y-76725830D01*
X142447781Y-76736866D01*
X142465024Y-76749654D01*
X142480930Y-76764070D01*
X142495346Y-76779976D01*
X142508134Y-76797219D01*
X142519170Y-76815632D01*
X142528349Y-76835038D01*
X142535581Y-76855250D01*
X142540797Y-76876074D01*
X142543947Y-76897309D01*
X142545000Y-76918750D01*
X142545000Y-77356250D01*
X142543947Y-77377691D01*
X142540797Y-77398926D01*
X142535581Y-77419750D01*
X142528349Y-77439962D01*
X142519170Y-77459368D01*
X142508134Y-77477781D01*
X142495346Y-77495024D01*
X142480930Y-77510930D01*
X142465024Y-77525346D01*
X142447781Y-77538134D01*
X142429368Y-77549170D01*
X142409962Y-77558349D01*
X142389750Y-77565581D01*
X142368926Y-77570797D01*
X142347691Y-77573947D01*
X142326250Y-77575000D01*
X141813750Y-77575000D01*
X141792309Y-77573947D01*
X141771074Y-77570797D01*
X141750250Y-77565581D01*
X141730038Y-77558349D01*
X141710632Y-77549170D01*
X141692219Y-77538134D01*
X141674976Y-77525346D01*
X141659070Y-77510930D01*
X141644654Y-77495024D01*
X141631866Y-77477781D01*
X141620830Y-77459368D01*
X141611651Y-77439962D01*
X141604419Y-77419750D01*
X141599203Y-77398926D01*
X141596053Y-77377691D01*
X141595000Y-77356250D01*
X141595000Y-76918750D01*
X141596053Y-76897309D01*
X141599203Y-76876074D01*
X141604419Y-76855250D01*
X141611651Y-76835038D01*
X141620830Y-76815632D01*
X141631866Y-76797219D01*
X141644654Y-76779976D01*
X141659070Y-76764070D01*
X141674976Y-76749654D01*
X141692219Y-76736866D01*
X141710632Y-76725830D01*
X141730038Y-76716651D01*
X141750250Y-76709419D01*
X141771074Y-76704203D01*
X141792309Y-76701053D01*
X141813750Y-76700000D01*
X142326250Y-76700000D01*
X142347691Y-76701053D01*
G37*
G36*
X152027691Y-76701053D02*
G01*
X152048926Y-76704203D01*
X152069750Y-76709419D01*
X152089962Y-76716651D01*
X152109368Y-76725830D01*
X152127781Y-76736866D01*
X152145024Y-76749654D01*
X152160930Y-76764070D01*
X152175346Y-76779976D01*
X152188134Y-76797219D01*
X152199170Y-76815632D01*
X152208349Y-76835038D01*
X152215581Y-76855250D01*
X152220797Y-76876074D01*
X152223947Y-76897309D01*
X152225000Y-76918750D01*
X152225000Y-77356250D01*
X152223947Y-77377691D01*
X152220797Y-77398926D01*
X152215581Y-77419750D01*
X152208349Y-77439962D01*
X152199170Y-77459368D01*
X152188134Y-77477781D01*
X152175346Y-77495024D01*
X152160930Y-77510930D01*
X152145024Y-77525346D01*
X152127781Y-77538134D01*
X152109368Y-77549170D01*
X152089962Y-77558349D01*
X152069750Y-77565581D01*
X152048926Y-77570797D01*
X152027691Y-77573947D01*
X152006250Y-77575000D01*
X151493750Y-77575000D01*
X151472309Y-77573947D01*
X151451074Y-77570797D01*
X151430250Y-77565581D01*
X151410038Y-77558349D01*
X151390632Y-77549170D01*
X151372219Y-77538134D01*
X151354976Y-77525346D01*
X151339070Y-77510930D01*
X151324654Y-77495024D01*
X151311866Y-77477781D01*
X151300830Y-77459368D01*
X151291651Y-77439962D01*
X151284419Y-77419750D01*
X151279203Y-77398926D01*
X151276053Y-77377691D01*
X151275000Y-77356250D01*
X151275000Y-76918750D01*
X151276053Y-76897309D01*
X151279203Y-76876074D01*
X151284419Y-76855250D01*
X151291651Y-76835038D01*
X151300830Y-76815632D01*
X151311866Y-76797219D01*
X151324654Y-76779976D01*
X151339070Y-76764070D01*
X151354976Y-76749654D01*
X151372219Y-76736866D01*
X151390632Y-76725830D01*
X151410038Y-76716651D01*
X151430250Y-76709419D01*
X151451074Y-76704203D01*
X151472309Y-76701053D01*
X151493750Y-76700000D01*
X152006250Y-76700000D01*
X152027691Y-76701053D01*
G37*
G36*
X152027691Y-75126053D02*
G01*
X152048926Y-75129203D01*
X152069750Y-75134419D01*
X152089962Y-75141651D01*
X152109368Y-75150830D01*
X152127781Y-75161866D01*
X152145024Y-75174654D01*
X152160930Y-75189070D01*
X152175346Y-75204976D01*
X152188134Y-75222219D01*
X152199170Y-75240632D01*
X152208349Y-75260038D01*
X152215581Y-75280250D01*
X152220797Y-75301074D01*
X152223947Y-75322309D01*
X152225000Y-75343750D01*
X152225000Y-75781250D01*
X152223947Y-75802691D01*
X152220797Y-75823926D01*
X152215581Y-75844750D01*
X152208349Y-75864962D01*
X152199170Y-75884368D01*
X152188134Y-75902781D01*
X152175346Y-75920024D01*
X152160930Y-75935930D01*
X152145024Y-75950346D01*
X152127781Y-75963134D01*
X152109368Y-75974170D01*
X152089962Y-75983349D01*
X152069750Y-75990581D01*
X152048926Y-75995797D01*
X152027691Y-75998947D01*
X152006250Y-76000000D01*
X151493750Y-76000000D01*
X151472309Y-75998947D01*
X151451074Y-75995797D01*
X151430250Y-75990581D01*
X151410038Y-75983349D01*
X151390632Y-75974170D01*
X151372219Y-75963134D01*
X151354976Y-75950346D01*
X151339070Y-75935930D01*
X151324654Y-75920024D01*
X151311866Y-75902781D01*
X151300830Y-75884368D01*
X151291651Y-75864962D01*
X151284419Y-75844750D01*
X151279203Y-75823926D01*
X151276053Y-75802691D01*
X151275000Y-75781250D01*
X151275000Y-75343750D01*
X151276053Y-75322309D01*
X151279203Y-75301074D01*
X151284419Y-75280250D01*
X151291651Y-75260038D01*
X151300830Y-75240632D01*
X151311866Y-75222219D01*
X151324654Y-75204976D01*
X151339070Y-75189070D01*
X151354976Y-75174654D01*
X151372219Y-75161866D01*
X151390632Y-75150830D01*
X151410038Y-75141651D01*
X151430250Y-75134419D01*
X151451074Y-75129203D01*
X151472309Y-75126053D01*
X151493750Y-75125000D01*
X152006250Y-75125000D01*
X152027691Y-75126053D01*
G37*
G36*
X149607691Y-76701053D02*
G01*
X149628926Y-76704203D01*
X149649750Y-76709419D01*
X149669962Y-76716651D01*
X149689368Y-76725830D01*
X149707781Y-76736866D01*
X149725024Y-76749654D01*
X149740930Y-76764070D01*
X149755346Y-76779976D01*
X149768134Y-76797219D01*
X149779170Y-76815632D01*
X149788349Y-76835038D01*
X149795581Y-76855250D01*
X149800797Y-76876074D01*
X149803947Y-76897309D01*
X149805000Y-76918750D01*
X149805000Y-77356250D01*
X149803947Y-77377691D01*
X149800797Y-77398926D01*
X149795581Y-77419750D01*
X149788349Y-77439962D01*
X149779170Y-77459368D01*
X149768134Y-77477781D01*
X149755346Y-77495024D01*
X149740930Y-77510930D01*
X149725024Y-77525346D01*
X149707781Y-77538134D01*
X149689368Y-77549170D01*
X149669962Y-77558349D01*
X149649750Y-77565581D01*
X149628926Y-77570797D01*
X149607691Y-77573947D01*
X149586250Y-77575000D01*
X149073750Y-77575000D01*
X149052309Y-77573947D01*
X149031074Y-77570797D01*
X149010250Y-77565581D01*
X148990038Y-77558349D01*
X148970632Y-77549170D01*
X148952219Y-77538134D01*
X148934976Y-77525346D01*
X148919070Y-77510930D01*
X148904654Y-77495024D01*
X148891866Y-77477781D01*
X148880830Y-77459368D01*
X148871651Y-77439962D01*
X148864419Y-77419750D01*
X148859203Y-77398926D01*
X148856053Y-77377691D01*
X148855000Y-77356250D01*
X148855000Y-76918750D01*
X148856053Y-76897309D01*
X148859203Y-76876074D01*
X148864419Y-76855250D01*
X148871651Y-76835038D01*
X148880830Y-76815632D01*
X148891866Y-76797219D01*
X148904654Y-76779976D01*
X148919070Y-76764070D01*
X148934976Y-76749654D01*
X148952219Y-76736866D01*
X148970632Y-76725830D01*
X148990038Y-76716651D01*
X149010250Y-76709419D01*
X149031074Y-76704203D01*
X149052309Y-76701053D01*
X149073750Y-76700000D01*
X149586250Y-76700000D01*
X149607691Y-76701053D01*
G37*
G36*
X149607691Y-75126053D02*
G01*
X149628926Y-75129203D01*
X149649750Y-75134419D01*
X149669962Y-75141651D01*
X149689368Y-75150830D01*
X149707781Y-75161866D01*
X149725024Y-75174654D01*
X149740930Y-75189070D01*
X149755346Y-75204976D01*
X149768134Y-75222219D01*
X149779170Y-75240632D01*
X149788349Y-75260038D01*
X149795581Y-75280250D01*
X149800797Y-75301074D01*
X149803947Y-75322309D01*
X149805000Y-75343750D01*
X149805000Y-75781250D01*
X149803947Y-75802691D01*
X149800797Y-75823926D01*
X149795581Y-75844750D01*
X149788349Y-75864962D01*
X149779170Y-75884368D01*
X149768134Y-75902781D01*
X149755346Y-75920024D01*
X149740930Y-75935930D01*
X149725024Y-75950346D01*
X149707781Y-75963134D01*
X149689368Y-75974170D01*
X149669962Y-75983349D01*
X149649750Y-75990581D01*
X149628926Y-75995797D01*
X149607691Y-75998947D01*
X149586250Y-76000000D01*
X149073750Y-76000000D01*
X149052309Y-75998947D01*
X149031074Y-75995797D01*
X149010250Y-75990581D01*
X148990038Y-75983349D01*
X148970632Y-75974170D01*
X148952219Y-75963134D01*
X148934976Y-75950346D01*
X148919070Y-75935930D01*
X148904654Y-75920024D01*
X148891866Y-75902781D01*
X148880830Y-75884368D01*
X148871651Y-75864962D01*
X148864419Y-75844750D01*
X148859203Y-75823926D01*
X148856053Y-75802691D01*
X148855000Y-75781250D01*
X148855000Y-75343750D01*
X148856053Y-75322309D01*
X148859203Y-75301074D01*
X148864419Y-75280250D01*
X148871651Y-75260038D01*
X148880830Y-75240632D01*
X148891866Y-75222219D01*
X148904654Y-75204976D01*
X148919070Y-75189070D01*
X148934976Y-75174654D01*
X148952219Y-75161866D01*
X148970632Y-75150830D01*
X148990038Y-75141651D01*
X149010250Y-75134419D01*
X149031074Y-75129203D01*
X149052309Y-75126053D01*
X149073750Y-75125000D01*
X149586250Y-75125000D01*
X149607691Y-75126053D01*
G37*
G36*
X147187691Y-76701053D02*
G01*
X147208926Y-76704203D01*
X147229750Y-76709419D01*
X147249962Y-76716651D01*
X147269368Y-76725830D01*
X147287781Y-76736866D01*
X147305024Y-76749654D01*
X147320930Y-76764070D01*
X147335346Y-76779976D01*
X147348134Y-76797219D01*
X147359170Y-76815632D01*
X147368349Y-76835038D01*
X147375581Y-76855250D01*
X147380797Y-76876074D01*
X147383947Y-76897309D01*
X147385000Y-76918750D01*
X147385000Y-77356250D01*
X147383947Y-77377691D01*
X147380797Y-77398926D01*
X147375581Y-77419750D01*
X147368349Y-77439962D01*
X147359170Y-77459368D01*
X147348134Y-77477781D01*
X147335346Y-77495024D01*
X147320930Y-77510930D01*
X147305024Y-77525346D01*
X147287781Y-77538134D01*
X147269368Y-77549170D01*
X147249962Y-77558349D01*
X147229750Y-77565581D01*
X147208926Y-77570797D01*
X147187691Y-77573947D01*
X147166250Y-77575000D01*
X146653750Y-77575000D01*
X146632309Y-77573947D01*
X146611074Y-77570797D01*
X146590250Y-77565581D01*
X146570038Y-77558349D01*
X146550632Y-77549170D01*
X146532219Y-77538134D01*
X146514976Y-77525346D01*
X146499070Y-77510930D01*
X146484654Y-77495024D01*
X146471866Y-77477781D01*
X146460830Y-77459368D01*
X146451651Y-77439962D01*
X146444419Y-77419750D01*
X146439203Y-77398926D01*
X146436053Y-77377691D01*
X146435000Y-77356250D01*
X146435000Y-76918750D01*
X146436053Y-76897309D01*
X146439203Y-76876074D01*
X146444419Y-76855250D01*
X146451651Y-76835038D01*
X146460830Y-76815632D01*
X146471866Y-76797219D01*
X146484654Y-76779976D01*
X146499070Y-76764070D01*
X146514976Y-76749654D01*
X146532219Y-76736866D01*
X146550632Y-76725830D01*
X146570038Y-76716651D01*
X146590250Y-76709419D01*
X146611074Y-76704203D01*
X146632309Y-76701053D01*
X146653750Y-76700000D01*
X147166250Y-76700000D01*
X147187691Y-76701053D01*
G37*
G36*
X147187691Y-75126053D02*
G01*
X147208926Y-75129203D01*
X147229750Y-75134419D01*
X147249962Y-75141651D01*
X147269368Y-75150830D01*
X147287781Y-75161866D01*
X147305024Y-75174654D01*
X147320930Y-75189070D01*
X147335346Y-75204976D01*
X147348134Y-75222219D01*
X147359170Y-75240632D01*
X147368349Y-75260038D01*
X147375581Y-75280250D01*
X147380797Y-75301074D01*
X147383947Y-75322309D01*
X147385000Y-75343750D01*
X147385000Y-75781250D01*
X147383947Y-75802691D01*
X147380797Y-75823926D01*
X147375581Y-75844750D01*
X147368349Y-75864962D01*
X147359170Y-75884368D01*
X147348134Y-75902781D01*
X147335346Y-75920024D01*
X147320930Y-75935930D01*
X147305024Y-75950346D01*
X147287781Y-75963134D01*
X147269368Y-75974170D01*
X147249962Y-75983349D01*
X147229750Y-75990581D01*
X147208926Y-75995797D01*
X147187691Y-75998947D01*
X147166250Y-76000000D01*
X146653750Y-76000000D01*
X146632309Y-75998947D01*
X146611074Y-75995797D01*
X146590250Y-75990581D01*
X146570038Y-75983349D01*
X146550632Y-75974170D01*
X146532219Y-75963134D01*
X146514976Y-75950346D01*
X146499070Y-75935930D01*
X146484654Y-75920024D01*
X146471866Y-75902781D01*
X146460830Y-75884368D01*
X146451651Y-75864962D01*
X146444419Y-75844750D01*
X146439203Y-75823926D01*
X146436053Y-75802691D01*
X146435000Y-75781250D01*
X146435000Y-75343750D01*
X146436053Y-75322309D01*
X146439203Y-75301074D01*
X146444419Y-75280250D01*
X146451651Y-75260038D01*
X146460830Y-75240632D01*
X146471866Y-75222219D01*
X146484654Y-75204976D01*
X146499070Y-75189070D01*
X146514976Y-75174654D01*
X146532219Y-75161866D01*
X146550632Y-75150830D01*
X146570038Y-75141651D01*
X146590250Y-75134419D01*
X146611074Y-75129203D01*
X146632309Y-75126053D01*
X146653750Y-75125000D01*
X147166250Y-75125000D01*
X147187691Y-75126053D01*
G37*
G36*
X144767691Y-75126053D02*
G01*
X144788926Y-75129203D01*
X144809750Y-75134419D01*
X144829962Y-75141651D01*
X144849368Y-75150830D01*
X144867781Y-75161866D01*
X144885024Y-75174654D01*
X144900930Y-75189070D01*
X144915346Y-75204976D01*
X144928134Y-75222219D01*
X144939170Y-75240632D01*
X144948349Y-75260038D01*
X144955581Y-75280250D01*
X144960797Y-75301074D01*
X144963947Y-75322309D01*
X144965000Y-75343750D01*
X144965000Y-75781250D01*
X144963947Y-75802691D01*
X144960797Y-75823926D01*
X144955581Y-75844750D01*
X144948349Y-75864962D01*
X144939170Y-75884368D01*
X144928134Y-75902781D01*
X144915346Y-75920024D01*
X144900930Y-75935930D01*
X144885024Y-75950346D01*
X144867781Y-75963134D01*
X144849368Y-75974170D01*
X144829962Y-75983349D01*
X144809750Y-75990581D01*
X144788926Y-75995797D01*
X144767691Y-75998947D01*
X144746250Y-76000000D01*
X144233750Y-76000000D01*
X144212309Y-75998947D01*
X144191074Y-75995797D01*
X144170250Y-75990581D01*
X144150038Y-75983349D01*
X144130632Y-75974170D01*
X144112219Y-75963134D01*
X144094976Y-75950346D01*
X144079070Y-75935930D01*
X144064654Y-75920024D01*
X144051866Y-75902781D01*
X144040830Y-75884368D01*
X144031651Y-75864962D01*
X144024419Y-75844750D01*
X144019203Y-75823926D01*
X144016053Y-75802691D01*
X144015000Y-75781250D01*
X144015000Y-75343750D01*
X144016053Y-75322309D01*
X144019203Y-75301074D01*
X144024419Y-75280250D01*
X144031651Y-75260038D01*
X144040830Y-75240632D01*
X144051866Y-75222219D01*
X144064654Y-75204976D01*
X144079070Y-75189070D01*
X144094976Y-75174654D01*
X144112219Y-75161866D01*
X144130632Y-75150830D01*
X144150038Y-75141651D01*
X144170250Y-75134419D01*
X144191074Y-75129203D01*
X144212309Y-75126053D01*
X144233750Y-75125000D01*
X144746250Y-75125000D01*
X144767691Y-75126053D01*
G37*
G36*
X144767691Y-76701053D02*
G01*
X144788926Y-76704203D01*
X144809750Y-76709419D01*
X144829962Y-76716651D01*
X144849368Y-76725830D01*
X144867781Y-76736866D01*
X144885024Y-76749654D01*
X144900930Y-76764070D01*
X144915346Y-76779976D01*
X144928134Y-76797219D01*
X144939170Y-76815632D01*
X144948349Y-76835038D01*
X144955581Y-76855250D01*
X144960797Y-76876074D01*
X144963947Y-76897309D01*
X144965000Y-76918750D01*
X144965000Y-77356250D01*
X144963947Y-77377691D01*
X144960797Y-77398926D01*
X144955581Y-77419750D01*
X144948349Y-77439962D01*
X144939170Y-77459368D01*
X144928134Y-77477781D01*
X144915346Y-77495024D01*
X144900930Y-77510930D01*
X144885024Y-77525346D01*
X144867781Y-77538134D01*
X144849368Y-77549170D01*
X144829962Y-77558349D01*
X144809750Y-77565581D01*
X144788926Y-77570797D01*
X144767691Y-77573947D01*
X144746250Y-77575000D01*
X144233750Y-77575000D01*
X144212309Y-77573947D01*
X144191074Y-77570797D01*
X144170250Y-77565581D01*
X144150038Y-77558349D01*
X144130632Y-77549170D01*
X144112219Y-77538134D01*
X144094976Y-77525346D01*
X144079070Y-77510930D01*
X144064654Y-77495024D01*
X144051866Y-77477781D01*
X144040830Y-77459368D01*
X144031651Y-77439962D01*
X144024419Y-77419750D01*
X144019203Y-77398926D01*
X144016053Y-77377691D01*
X144015000Y-77356250D01*
X144015000Y-76918750D01*
X144016053Y-76897309D01*
X144019203Y-76876074D01*
X144024419Y-76855250D01*
X144031651Y-76835038D01*
X144040830Y-76815632D01*
X144051866Y-76797219D01*
X144064654Y-76779976D01*
X144079070Y-76764070D01*
X144094976Y-76749654D01*
X144112219Y-76736866D01*
X144130632Y-76725830D01*
X144150038Y-76716651D01*
X144170250Y-76709419D01*
X144191074Y-76704203D01*
X144212309Y-76701053D01*
X144233750Y-76700000D01*
X144746250Y-76700000D01*
X144767691Y-76701053D01*
G37*
G36*
X161107691Y-81611053D02*
G01*
X161128926Y-81614203D01*
X161149750Y-81619419D01*
X161169962Y-81626651D01*
X161189368Y-81635830D01*
X161207781Y-81646866D01*
X161225024Y-81659654D01*
X161240930Y-81674070D01*
X161255346Y-81689976D01*
X161268134Y-81707219D01*
X161279170Y-81725632D01*
X161288349Y-81745038D01*
X161295581Y-81765250D01*
X161300797Y-81786074D01*
X161303947Y-81807309D01*
X161305000Y-81828750D01*
X161305000Y-82266250D01*
X161303947Y-82287691D01*
X161300797Y-82308926D01*
X161295581Y-82329750D01*
X161288349Y-82349962D01*
X161279170Y-82369368D01*
X161268134Y-82387781D01*
X161255346Y-82405024D01*
X161240930Y-82420930D01*
X161225024Y-82435346D01*
X161207781Y-82448134D01*
X161189368Y-82459170D01*
X161169962Y-82468349D01*
X161149750Y-82475581D01*
X161128926Y-82480797D01*
X161107691Y-82483947D01*
X161086250Y-82485000D01*
X160573750Y-82485000D01*
X160552309Y-82483947D01*
X160531074Y-82480797D01*
X160510250Y-82475581D01*
X160490038Y-82468349D01*
X160470632Y-82459170D01*
X160452219Y-82448134D01*
X160434976Y-82435346D01*
X160419070Y-82420930D01*
X160404654Y-82405024D01*
X160391866Y-82387781D01*
X160380830Y-82369368D01*
X160371651Y-82349962D01*
X160364419Y-82329750D01*
X160359203Y-82308926D01*
X160356053Y-82287691D01*
X160355000Y-82266250D01*
X160355000Y-81828750D01*
X160356053Y-81807309D01*
X160359203Y-81786074D01*
X160364419Y-81765250D01*
X160371651Y-81745038D01*
X160380830Y-81725632D01*
X160391866Y-81707219D01*
X160404654Y-81689976D01*
X160419070Y-81674070D01*
X160434976Y-81659654D01*
X160452219Y-81646866D01*
X160470632Y-81635830D01*
X160490038Y-81626651D01*
X160510250Y-81619419D01*
X160531074Y-81614203D01*
X160552309Y-81611053D01*
X160573750Y-81610000D01*
X161086250Y-81610000D01*
X161107691Y-81611053D01*
G37*
G36*
X161107691Y-80036053D02*
G01*
X161128926Y-80039203D01*
X161149750Y-80044419D01*
X161169962Y-80051651D01*
X161189368Y-80060830D01*
X161207781Y-80071866D01*
X161225024Y-80084654D01*
X161240930Y-80099070D01*
X161255346Y-80114976D01*
X161268134Y-80132219D01*
X161279170Y-80150632D01*
X161288349Y-80170038D01*
X161295581Y-80190250D01*
X161300797Y-80211074D01*
X161303947Y-80232309D01*
X161305000Y-80253750D01*
X161305000Y-80691250D01*
X161303947Y-80712691D01*
X161300797Y-80733926D01*
X161295581Y-80754750D01*
X161288349Y-80774962D01*
X161279170Y-80794368D01*
X161268134Y-80812781D01*
X161255346Y-80830024D01*
X161240930Y-80845930D01*
X161225024Y-80860346D01*
X161207781Y-80873134D01*
X161189368Y-80884170D01*
X161169962Y-80893349D01*
X161149750Y-80900581D01*
X161128926Y-80905797D01*
X161107691Y-80908947D01*
X161086250Y-80910000D01*
X160573750Y-80910000D01*
X160552309Y-80908947D01*
X160531074Y-80905797D01*
X160510250Y-80900581D01*
X160490038Y-80893349D01*
X160470632Y-80884170D01*
X160452219Y-80873134D01*
X160434976Y-80860346D01*
X160419070Y-80845930D01*
X160404654Y-80830024D01*
X160391866Y-80812781D01*
X160380830Y-80794368D01*
X160371651Y-80774962D01*
X160364419Y-80754750D01*
X160359203Y-80733926D01*
X160356053Y-80712691D01*
X160355000Y-80691250D01*
X160355000Y-80253750D01*
X160356053Y-80232309D01*
X160359203Y-80211074D01*
X160364419Y-80190250D01*
X160371651Y-80170038D01*
X160380830Y-80150632D01*
X160391866Y-80132219D01*
X160404654Y-80114976D01*
X160419070Y-80099070D01*
X160434976Y-80084654D01*
X160452219Y-80071866D01*
X160470632Y-80060830D01*
X160490038Y-80051651D01*
X160510250Y-80044419D01*
X160531074Y-80039203D01*
X160552309Y-80036053D01*
X160573750Y-80035000D01*
X161086250Y-80035000D01*
X161107691Y-80036053D01*
G37*
G36*
X162732691Y-81611053D02*
G01*
X162753926Y-81614203D01*
X162774750Y-81619419D01*
X162794962Y-81626651D01*
X162814368Y-81635830D01*
X162832781Y-81646866D01*
X162850024Y-81659654D01*
X162865930Y-81674070D01*
X162880346Y-81689976D01*
X162893134Y-81707219D01*
X162904170Y-81725632D01*
X162913349Y-81745038D01*
X162920581Y-81765250D01*
X162925797Y-81786074D01*
X162928947Y-81807309D01*
X162930000Y-81828750D01*
X162930000Y-82266250D01*
X162928947Y-82287691D01*
X162925797Y-82308926D01*
X162920581Y-82329750D01*
X162913349Y-82349962D01*
X162904170Y-82369368D01*
X162893134Y-82387781D01*
X162880346Y-82405024D01*
X162865930Y-82420930D01*
X162850024Y-82435346D01*
X162832781Y-82448134D01*
X162814368Y-82459170D01*
X162794962Y-82468349D01*
X162774750Y-82475581D01*
X162753926Y-82480797D01*
X162732691Y-82483947D01*
X162711250Y-82485000D01*
X162198750Y-82485000D01*
X162177309Y-82483947D01*
X162156074Y-82480797D01*
X162135250Y-82475581D01*
X162115038Y-82468349D01*
X162095632Y-82459170D01*
X162077219Y-82448134D01*
X162059976Y-82435346D01*
X162044070Y-82420930D01*
X162029654Y-82405024D01*
X162016866Y-82387781D01*
X162005830Y-82369368D01*
X161996651Y-82349962D01*
X161989419Y-82329750D01*
X161984203Y-82308926D01*
X161981053Y-82287691D01*
X161980000Y-82266250D01*
X161980000Y-81828750D01*
X161981053Y-81807309D01*
X161984203Y-81786074D01*
X161989419Y-81765250D01*
X161996651Y-81745038D01*
X162005830Y-81725632D01*
X162016866Y-81707219D01*
X162029654Y-81689976D01*
X162044070Y-81674070D01*
X162059976Y-81659654D01*
X162077219Y-81646866D01*
X162095632Y-81635830D01*
X162115038Y-81626651D01*
X162135250Y-81619419D01*
X162156074Y-81614203D01*
X162177309Y-81611053D01*
X162198750Y-81610000D01*
X162711250Y-81610000D01*
X162732691Y-81611053D01*
G37*
G36*
X162732691Y-80036053D02*
G01*
X162753926Y-80039203D01*
X162774750Y-80044419D01*
X162794962Y-80051651D01*
X162814368Y-80060830D01*
X162832781Y-80071866D01*
X162850024Y-80084654D01*
X162865930Y-80099070D01*
X162880346Y-80114976D01*
X162893134Y-80132219D01*
X162904170Y-80150632D01*
X162913349Y-80170038D01*
X162920581Y-80190250D01*
X162925797Y-80211074D01*
X162928947Y-80232309D01*
X162930000Y-80253750D01*
X162930000Y-80691250D01*
X162928947Y-80712691D01*
X162925797Y-80733926D01*
X162920581Y-80754750D01*
X162913349Y-80774962D01*
X162904170Y-80794368D01*
X162893134Y-80812781D01*
X162880346Y-80830024D01*
X162865930Y-80845930D01*
X162850024Y-80860346D01*
X162832781Y-80873134D01*
X162814368Y-80884170D01*
X162794962Y-80893349D01*
X162774750Y-80900581D01*
X162753926Y-80905797D01*
X162732691Y-80908947D01*
X162711250Y-80910000D01*
X162198750Y-80910000D01*
X162177309Y-80908947D01*
X162156074Y-80905797D01*
X162135250Y-80900581D01*
X162115038Y-80893349D01*
X162095632Y-80884170D01*
X162077219Y-80873134D01*
X162059976Y-80860346D01*
X162044070Y-80845930D01*
X162029654Y-80830024D01*
X162016866Y-80812781D01*
X162005830Y-80794368D01*
X161996651Y-80774962D01*
X161989419Y-80754750D01*
X161984203Y-80733926D01*
X161981053Y-80712691D01*
X161980000Y-80691250D01*
X161980000Y-80253750D01*
X161981053Y-80232309D01*
X161984203Y-80211074D01*
X161989419Y-80190250D01*
X161996651Y-80170038D01*
X162005830Y-80150632D01*
X162016866Y-80132219D01*
X162029654Y-80114976D01*
X162044070Y-80099070D01*
X162059976Y-80084654D01*
X162077219Y-80071866D01*
X162095632Y-80060830D01*
X162115038Y-80051651D01*
X162135250Y-80044419D01*
X162156074Y-80039203D01*
X162177309Y-80036053D01*
X162198750Y-80035000D01*
X162711250Y-80035000D01*
X162732691Y-80036053D01*
G37*
M02*
