M48
; DRILL file {KiCad (5.1.5)-3} date 15/02/2020 00:20:04
; FORMAT={3:3/ absolute / metric / suppress leading zeros}
; #@! TF.CreationDate,2020-02-15T00:20:04-08:00
; #@! TF.GenerationSoftware,Kicad,Pcbnew,(5.1.5)-3
; #@! TF.FileFunction,NonPlated,1,2,NPTH
FMAT,2
METRIC,TZ
T1C2.100
%
G90
G05
T1
X142035Y-127387
X159035Y-91228
X150535Y-116261
X133535Y-124606
X142035Y-85665
X159035Y-102354
X133535Y-102354
X150535Y-105135
X142035Y-116261
X159035Y-127387
X142035Y-88446
X159035Y-116261
X159035Y-121824
X133535Y-99572
X133535Y-85665
X142035Y-102354
X142035Y-99572
X150535Y-110698
X150535Y-121824
X133535Y-91228
X142035Y-110698
X150535Y-124606
X142035Y-96791
X159035Y-105135
X133535Y-96791
X142035Y-113480
X133535Y-127387
X159035Y-119043
X142035Y-119043
X133535Y-88446
X159035Y-107917
X142035Y-121824
X159035Y-88446
X150535Y-96791
X159035Y-85665
X133535Y-105135
X150535Y-113480
X159035Y-124606
X133535Y-107917
X150535Y-88446
X159035Y-110698
X133535Y-119043
X150535Y-85665
X159035Y-99572
X131480Y-69800
X150535Y-102354
X159035Y-113480
X142035Y-124606
X159035Y-94009
X150535Y-119043
X142035Y-91228
X142035Y-107917
X133535Y-94009
X159035Y-96791
X133535Y-110698
X133535Y-121824
X150535Y-91228
X133535Y-116261
X150535Y-127387
X150535Y-94009
X133535Y-113480
X150535Y-99572
X142035Y-94009
X166480Y-126800
X142035Y-105135
X150535Y-107917
T0
M30
