G04 #@! TF.GenerationSoftware,KiCad,Pcbnew,(5.1.5)-3*
G04 #@! TF.CreationDate,2020-02-15T19:02:53-08:00*
G04 #@! TF.ProjectId,IS31FL3733-dev,49533331-464c-4333-9733-332d6465762e,0.1*
G04 #@! TF.SameCoordinates,Original*
G04 #@! TF.FileFunction,Soldermask,Top*
G04 #@! TF.FilePolarity,Negative*
%FSLAX46Y46*%
G04 Gerber Fmt 4.6, Leading zero omitted, Abs format (unit mm)*
G04 Created by KiCad (PCBNEW (5.1.5)-3) date 2020-02-15 19:02:53*
%MOMM*%
%LPD*%
G04 APERTURE LIST*
%ADD10C,0.100000*%
G04 APERTURE END LIST*
D10*
G36*
X166694795Y-125720156D02*
G01*
X166801150Y-125741311D01*
X166901334Y-125782809D01*
X167001520Y-125824307D01*
X167181844Y-125944795D01*
X167335205Y-126098156D01*
X167455693Y-126278480D01*
X167538689Y-126478851D01*
X167581000Y-126691560D01*
X167581000Y-126908440D01*
X167538689Y-127121149D01*
X167455693Y-127321520D01*
X167335205Y-127501844D01*
X167181844Y-127655205D01*
X167001520Y-127775693D01*
X166801150Y-127858689D01*
X166694794Y-127879845D01*
X166588440Y-127901000D01*
X166371560Y-127901000D01*
X166265206Y-127879845D01*
X166158850Y-127858689D01*
X165958480Y-127775693D01*
X165778156Y-127655205D01*
X165624795Y-127501844D01*
X165504307Y-127321520D01*
X165421311Y-127121149D01*
X165379000Y-126908440D01*
X165379000Y-126691560D01*
X165421311Y-126478851D01*
X165504307Y-126278480D01*
X165624795Y-126098156D01*
X165778156Y-125944795D01*
X165958480Y-125824307D01*
X166058666Y-125782809D01*
X166158850Y-125741311D01*
X166265205Y-125720156D01*
X166371560Y-125699000D01*
X166588440Y-125699000D01*
X166694795Y-125720156D01*
G37*
G36*
X158640416Y-78574843D02*
G01*
X158644556Y-78576099D01*
X158663716Y-78584035D01*
X158687750Y-78588815D01*
X158712254Y-78588815D01*
X158736287Y-78584034D01*
X158755445Y-78576099D01*
X158759584Y-78574843D01*
X158768143Y-78574000D01*
X159031857Y-78574000D01*
X159040416Y-78574843D01*
X159044556Y-78576099D01*
X159063716Y-78584035D01*
X159087750Y-78588815D01*
X159112254Y-78588815D01*
X159136287Y-78584034D01*
X159155445Y-78576099D01*
X159159584Y-78574843D01*
X159168143Y-78574000D01*
X159431857Y-78574000D01*
X159440416Y-78574843D01*
X159444556Y-78576099D01*
X159463716Y-78584035D01*
X159487750Y-78588815D01*
X159512254Y-78588815D01*
X159536287Y-78584034D01*
X159555445Y-78576099D01*
X159559584Y-78574843D01*
X159568143Y-78574000D01*
X159831857Y-78574000D01*
X159840416Y-78574843D01*
X159844556Y-78576099D01*
X159863716Y-78584035D01*
X159887750Y-78588815D01*
X159912254Y-78588815D01*
X159936287Y-78584034D01*
X159955445Y-78576099D01*
X159959584Y-78574843D01*
X159968143Y-78574000D01*
X160231857Y-78574000D01*
X160240416Y-78574843D01*
X160244556Y-78576099D01*
X160263716Y-78584035D01*
X160287750Y-78588815D01*
X160312254Y-78588815D01*
X160336287Y-78584034D01*
X160355445Y-78576099D01*
X160359584Y-78574843D01*
X160368143Y-78574000D01*
X160631857Y-78574000D01*
X160640416Y-78574843D01*
X160644556Y-78576099D01*
X160663716Y-78584035D01*
X160687750Y-78588815D01*
X160712254Y-78588815D01*
X160736287Y-78584034D01*
X160755445Y-78576099D01*
X160759584Y-78574843D01*
X160768143Y-78574000D01*
X161031857Y-78574000D01*
X161040416Y-78574843D01*
X161044556Y-78576099D01*
X161063716Y-78584035D01*
X161087750Y-78588815D01*
X161112254Y-78588815D01*
X161136287Y-78584034D01*
X161155445Y-78576099D01*
X161159584Y-78574843D01*
X161168143Y-78574000D01*
X161431857Y-78574000D01*
X161440416Y-78574843D01*
X161444556Y-78576099D01*
X161463716Y-78584035D01*
X161487750Y-78588815D01*
X161512254Y-78588815D01*
X161536287Y-78584034D01*
X161555445Y-78576099D01*
X161559584Y-78574843D01*
X161568143Y-78574000D01*
X161831857Y-78574000D01*
X161840416Y-78574843D01*
X161844556Y-78576099D01*
X161863716Y-78584035D01*
X161887750Y-78588815D01*
X161912254Y-78588815D01*
X161936287Y-78584034D01*
X161955445Y-78576099D01*
X161959584Y-78574843D01*
X161968143Y-78574000D01*
X162231857Y-78574000D01*
X162240416Y-78574843D01*
X162244556Y-78576099D01*
X162263716Y-78584035D01*
X162287750Y-78588815D01*
X162312254Y-78588815D01*
X162336287Y-78584034D01*
X162355445Y-78576099D01*
X162359584Y-78574843D01*
X162368143Y-78574000D01*
X162631857Y-78574000D01*
X162640416Y-78574843D01*
X162644556Y-78576099D01*
X162663716Y-78584035D01*
X162687750Y-78588815D01*
X162712254Y-78588815D01*
X162736287Y-78584034D01*
X162755445Y-78576099D01*
X162759584Y-78574843D01*
X162768143Y-78574000D01*
X163031859Y-78574000D01*
X163037950Y-78574600D01*
X163050400Y-78574600D01*
X163050400Y-78587050D01*
X163051000Y-78593141D01*
X163051000Y-79506857D01*
X163050157Y-79515416D01*
X163049450Y-79517745D01*
X163048305Y-79519887D01*
X163046765Y-79521765D01*
X163044887Y-79523305D01*
X163042745Y-79524450D01*
X163040416Y-79525157D01*
X163031857Y-79526000D01*
X162768143Y-79526000D01*
X162759584Y-79525157D01*
X162755444Y-79523901D01*
X162736284Y-79515965D01*
X162712250Y-79511185D01*
X162687746Y-79511185D01*
X162663713Y-79515966D01*
X162644555Y-79523901D01*
X162640416Y-79525157D01*
X162631857Y-79526000D01*
X162368143Y-79526000D01*
X162359584Y-79525157D01*
X162355444Y-79523901D01*
X162336284Y-79515965D01*
X162312250Y-79511185D01*
X162287746Y-79511185D01*
X162263713Y-79515966D01*
X162244555Y-79523901D01*
X162240416Y-79525157D01*
X162231857Y-79526000D01*
X161968143Y-79526000D01*
X161959584Y-79525157D01*
X161955444Y-79523901D01*
X161936284Y-79515965D01*
X161912250Y-79511185D01*
X161887746Y-79511185D01*
X161863713Y-79515966D01*
X161844555Y-79523901D01*
X161840416Y-79525157D01*
X161831857Y-79526000D01*
X161568143Y-79526000D01*
X161559584Y-79525157D01*
X161555444Y-79523901D01*
X161536284Y-79515965D01*
X161512250Y-79511185D01*
X161487746Y-79511185D01*
X161463713Y-79515966D01*
X161444555Y-79523901D01*
X161440416Y-79525157D01*
X161431857Y-79526000D01*
X161168143Y-79526000D01*
X161159584Y-79525157D01*
X161155444Y-79523901D01*
X161136284Y-79515965D01*
X161112250Y-79511185D01*
X161087746Y-79511185D01*
X161063713Y-79515966D01*
X161044555Y-79523901D01*
X161040416Y-79525157D01*
X161031857Y-79526000D01*
X160768143Y-79526000D01*
X160759584Y-79525157D01*
X160755444Y-79523901D01*
X160736284Y-79515965D01*
X160712250Y-79511185D01*
X160687746Y-79511185D01*
X160663713Y-79515966D01*
X160644555Y-79523901D01*
X160640416Y-79525157D01*
X160631857Y-79526000D01*
X160368143Y-79526000D01*
X160359584Y-79525157D01*
X160355444Y-79523901D01*
X160336284Y-79515965D01*
X160312250Y-79511185D01*
X160287746Y-79511185D01*
X160263713Y-79515966D01*
X160244555Y-79523901D01*
X160240416Y-79525157D01*
X160231857Y-79526000D01*
X159968143Y-79526000D01*
X159959584Y-79525157D01*
X159955444Y-79523901D01*
X159936284Y-79515965D01*
X159912250Y-79511185D01*
X159887746Y-79511185D01*
X159863713Y-79515966D01*
X159844555Y-79523901D01*
X159840416Y-79525157D01*
X159831857Y-79526000D01*
X159568143Y-79526000D01*
X159559584Y-79525157D01*
X159555444Y-79523901D01*
X159536284Y-79515965D01*
X159512250Y-79511185D01*
X159487746Y-79511185D01*
X159463713Y-79515966D01*
X159444555Y-79523901D01*
X159440416Y-79525157D01*
X159431857Y-79526000D01*
X159168143Y-79526000D01*
X159159584Y-79525157D01*
X159155444Y-79523901D01*
X159136284Y-79515965D01*
X159112250Y-79511185D01*
X159087746Y-79511185D01*
X159063713Y-79515966D01*
X159044555Y-79523901D01*
X159040416Y-79525157D01*
X159031857Y-79526000D01*
X158768143Y-79526000D01*
X158759584Y-79525157D01*
X158755444Y-79523901D01*
X158736284Y-79515965D01*
X158712250Y-79511185D01*
X158687746Y-79511185D01*
X158663713Y-79515966D01*
X158644555Y-79523901D01*
X158640416Y-79525157D01*
X158631857Y-79526000D01*
X158368143Y-79526000D01*
X158359584Y-79525157D01*
X158357255Y-79524450D01*
X158355113Y-79523305D01*
X158353235Y-79521765D01*
X158351695Y-79519887D01*
X158350550Y-79517745D01*
X158349843Y-79515416D01*
X158349000Y-79506857D01*
X158349000Y-78593141D01*
X158349600Y-78587050D01*
X158349600Y-78574600D01*
X158362050Y-78574600D01*
X158368141Y-78574000D01*
X158631857Y-78574000D01*
X158640416Y-78574843D01*
G37*
G36*
X158212950Y-73749600D02*
G01*
X158225400Y-73749600D01*
X158225400Y-73762050D01*
X158226000Y-73768141D01*
X158226000Y-74031857D01*
X158225157Y-74040416D01*
X158223901Y-74044556D01*
X158215965Y-74063716D01*
X158211185Y-74087750D01*
X158211185Y-74112254D01*
X158215966Y-74136287D01*
X158223901Y-74155445D01*
X158225157Y-74159584D01*
X158226000Y-74168143D01*
X158226000Y-74431857D01*
X158225157Y-74440416D01*
X158223901Y-74444556D01*
X158215965Y-74463716D01*
X158211185Y-74487750D01*
X158211185Y-74512254D01*
X158215966Y-74536287D01*
X158223901Y-74555445D01*
X158225157Y-74559584D01*
X158226000Y-74568143D01*
X158226000Y-74831857D01*
X158225157Y-74840416D01*
X158223901Y-74844556D01*
X158215965Y-74863716D01*
X158211185Y-74887750D01*
X158211185Y-74912254D01*
X158215966Y-74936287D01*
X158223901Y-74955445D01*
X158225157Y-74959584D01*
X158226000Y-74968143D01*
X158226000Y-75231857D01*
X158225157Y-75240416D01*
X158223901Y-75244556D01*
X158215965Y-75263716D01*
X158211185Y-75287750D01*
X158211185Y-75312254D01*
X158215966Y-75336287D01*
X158223901Y-75355445D01*
X158225157Y-75359584D01*
X158226000Y-75368143D01*
X158226000Y-75631857D01*
X158225157Y-75640416D01*
X158223901Y-75644556D01*
X158215965Y-75663716D01*
X158211185Y-75687750D01*
X158211185Y-75712254D01*
X158215966Y-75736287D01*
X158223901Y-75755445D01*
X158225157Y-75759584D01*
X158226000Y-75768143D01*
X158226000Y-76031857D01*
X158225157Y-76040416D01*
X158223901Y-76044556D01*
X158215965Y-76063716D01*
X158211185Y-76087750D01*
X158211185Y-76112254D01*
X158215966Y-76136287D01*
X158223901Y-76155445D01*
X158225157Y-76159584D01*
X158226000Y-76168143D01*
X158226000Y-76431857D01*
X158225157Y-76440416D01*
X158223901Y-76444556D01*
X158215965Y-76463716D01*
X158211185Y-76487750D01*
X158211185Y-76512254D01*
X158215966Y-76536287D01*
X158223901Y-76555445D01*
X158225157Y-76559584D01*
X158226000Y-76568143D01*
X158226000Y-76831857D01*
X158225157Y-76840416D01*
X158223901Y-76844556D01*
X158215965Y-76863716D01*
X158211185Y-76887750D01*
X158211185Y-76912254D01*
X158215966Y-76936287D01*
X158223901Y-76955445D01*
X158225157Y-76959584D01*
X158226000Y-76968143D01*
X158226000Y-77231857D01*
X158225157Y-77240416D01*
X158223901Y-77244556D01*
X158215965Y-77263716D01*
X158211185Y-77287750D01*
X158211185Y-77312254D01*
X158215966Y-77336287D01*
X158223901Y-77355445D01*
X158225157Y-77359584D01*
X158226000Y-77368143D01*
X158226000Y-77631857D01*
X158225157Y-77640416D01*
X158223901Y-77644556D01*
X158215965Y-77663716D01*
X158211185Y-77687750D01*
X158211185Y-77712254D01*
X158215966Y-77736287D01*
X158223901Y-77755445D01*
X158225157Y-77759584D01*
X158226000Y-77768143D01*
X158226000Y-78031857D01*
X158225157Y-78040416D01*
X158223901Y-78044556D01*
X158215965Y-78063716D01*
X158211185Y-78087750D01*
X158211185Y-78112254D01*
X158215966Y-78136287D01*
X158223901Y-78155445D01*
X158225157Y-78159584D01*
X158226000Y-78168143D01*
X158226000Y-78431859D01*
X158225400Y-78437950D01*
X158225400Y-78450400D01*
X158212950Y-78450400D01*
X158206859Y-78451000D01*
X157293143Y-78451000D01*
X157284584Y-78450157D01*
X157282255Y-78449450D01*
X157280113Y-78448305D01*
X157278235Y-78446765D01*
X157276695Y-78444887D01*
X157275550Y-78442745D01*
X157274843Y-78440416D01*
X157274000Y-78431857D01*
X157274000Y-78168143D01*
X157274843Y-78159584D01*
X157276099Y-78155444D01*
X157284035Y-78136284D01*
X157288815Y-78112250D01*
X157288815Y-78087746D01*
X157284034Y-78063713D01*
X157276099Y-78044555D01*
X157274843Y-78040416D01*
X157274000Y-78031857D01*
X157274000Y-77768143D01*
X157274843Y-77759584D01*
X157276099Y-77755444D01*
X157284035Y-77736284D01*
X157288815Y-77712250D01*
X157288815Y-77687746D01*
X157284034Y-77663713D01*
X157276099Y-77644555D01*
X157274843Y-77640416D01*
X157274000Y-77631857D01*
X157274000Y-77368143D01*
X157274843Y-77359584D01*
X157276099Y-77355444D01*
X157284035Y-77336284D01*
X157288815Y-77312250D01*
X157288815Y-77287746D01*
X157284034Y-77263713D01*
X157276099Y-77244555D01*
X157274843Y-77240416D01*
X157274000Y-77231857D01*
X157274000Y-76968143D01*
X157274843Y-76959584D01*
X157276099Y-76955444D01*
X157284035Y-76936284D01*
X157288815Y-76912250D01*
X157288815Y-76887746D01*
X157284034Y-76863713D01*
X157276099Y-76844555D01*
X157274843Y-76840416D01*
X157274000Y-76831857D01*
X157274000Y-76568143D01*
X157274843Y-76559584D01*
X157276099Y-76555444D01*
X157284035Y-76536284D01*
X157288815Y-76512250D01*
X157288815Y-76487746D01*
X157284034Y-76463713D01*
X157276099Y-76444555D01*
X157274843Y-76440416D01*
X157274000Y-76431857D01*
X157274000Y-76168143D01*
X157274843Y-76159584D01*
X157276099Y-76155444D01*
X157284035Y-76136284D01*
X157288815Y-76112250D01*
X157288815Y-76087746D01*
X157284034Y-76063713D01*
X157276099Y-76044555D01*
X157274843Y-76040416D01*
X157274000Y-76031857D01*
X157274000Y-75768143D01*
X157274843Y-75759584D01*
X157276099Y-75755444D01*
X157284035Y-75736284D01*
X157288815Y-75712250D01*
X157288815Y-75687746D01*
X157284034Y-75663713D01*
X157276099Y-75644555D01*
X157274843Y-75640416D01*
X157274000Y-75631857D01*
X157274000Y-75368143D01*
X157274843Y-75359584D01*
X157276099Y-75355444D01*
X157284035Y-75336284D01*
X157288815Y-75312250D01*
X157288815Y-75287746D01*
X157284034Y-75263713D01*
X157276099Y-75244555D01*
X157274843Y-75240416D01*
X157274000Y-75231857D01*
X157274000Y-74968143D01*
X157274843Y-74959584D01*
X157276099Y-74955444D01*
X157284035Y-74936284D01*
X157288815Y-74912250D01*
X157288815Y-74887746D01*
X157284034Y-74863713D01*
X157276099Y-74844555D01*
X157274843Y-74840416D01*
X157274000Y-74831857D01*
X157274000Y-74568143D01*
X157274843Y-74559584D01*
X157276099Y-74555444D01*
X157284035Y-74536284D01*
X157288815Y-74512250D01*
X157288815Y-74487746D01*
X157284034Y-74463713D01*
X157276099Y-74444555D01*
X157274843Y-74440416D01*
X157274000Y-74431857D01*
X157274000Y-74168143D01*
X157274843Y-74159584D01*
X157276099Y-74155444D01*
X157284035Y-74136284D01*
X157288815Y-74112250D01*
X157288815Y-74087746D01*
X157284034Y-74063713D01*
X157276099Y-74044555D01*
X157274843Y-74040416D01*
X157274000Y-74031857D01*
X157274000Y-73768143D01*
X157274843Y-73759584D01*
X157275550Y-73757255D01*
X157276695Y-73755113D01*
X157278235Y-73753235D01*
X157280113Y-73751695D01*
X157282255Y-73750550D01*
X157284584Y-73749843D01*
X157293143Y-73749000D01*
X158206859Y-73749000D01*
X158212950Y-73749600D01*
G37*
G36*
X164115416Y-73749843D02*
G01*
X164117745Y-73750550D01*
X164119887Y-73751695D01*
X164121765Y-73753235D01*
X164123305Y-73755113D01*
X164124450Y-73757255D01*
X164125157Y-73759584D01*
X164126000Y-73768143D01*
X164126000Y-74031857D01*
X164125157Y-74040416D01*
X164123901Y-74044556D01*
X164115965Y-74063716D01*
X164111185Y-74087750D01*
X164111185Y-74112254D01*
X164115966Y-74136287D01*
X164123901Y-74155445D01*
X164125157Y-74159584D01*
X164126000Y-74168143D01*
X164126000Y-74431857D01*
X164125157Y-74440416D01*
X164123901Y-74444556D01*
X164115965Y-74463716D01*
X164111185Y-74487750D01*
X164111185Y-74512254D01*
X164115966Y-74536287D01*
X164123901Y-74555445D01*
X164125157Y-74559584D01*
X164126000Y-74568143D01*
X164126000Y-74831857D01*
X164125157Y-74840416D01*
X164123901Y-74844556D01*
X164115965Y-74863716D01*
X164111185Y-74887750D01*
X164111185Y-74912254D01*
X164115966Y-74936287D01*
X164123901Y-74955445D01*
X164125157Y-74959584D01*
X164126000Y-74968143D01*
X164126000Y-75231857D01*
X164125157Y-75240416D01*
X164123901Y-75244556D01*
X164115965Y-75263716D01*
X164111185Y-75287750D01*
X164111185Y-75312254D01*
X164115966Y-75336287D01*
X164123901Y-75355445D01*
X164125157Y-75359584D01*
X164126000Y-75368143D01*
X164126000Y-75631857D01*
X164125157Y-75640416D01*
X164123901Y-75644556D01*
X164115965Y-75663716D01*
X164111185Y-75687750D01*
X164111185Y-75712254D01*
X164115966Y-75736287D01*
X164123901Y-75755445D01*
X164125157Y-75759584D01*
X164126000Y-75768143D01*
X164126000Y-76031857D01*
X164125157Y-76040416D01*
X164123901Y-76044556D01*
X164115965Y-76063716D01*
X164111185Y-76087750D01*
X164111185Y-76112254D01*
X164115966Y-76136287D01*
X164123901Y-76155445D01*
X164125157Y-76159584D01*
X164126000Y-76168143D01*
X164126000Y-76431857D01*
X164125157Y-76440416D01*
X164123901Y-76444556D01*
X164115965Y-76463716D01*
X164111185Y-76487750D01*
X164111185Y-76512254D01*
X164115966Y-76536287D01*
X164123901Y-76555445D01*
X164125157Y-76559584D01*
X164126000Y-76568143D01*
X164126000Y-76831857D01*
X164125157Y-76840416D01*
X164123901Y-76844556D01*
X164115965Y-76863716D01*
X164111185Y-76887750D01*
X164111185Y-76912254D01*
X164115966Y-76936287D01*
X164123901Y-76955445D01*
X164125157Y-76959584D01*
X164126000Y-76968143D01*
X164126000Y-77231857D01*
X164125157Y-77240416D01*
X164123901Y-77244556D01*
X164115965Y-77263716D01*
X164111185Y-77287750D01*
X164111185Y-77312254D01*
X164115966Y-77336287D01*
X164123901Y-77355445D01*
X164125157Y-77359584D01*
X164126000Y-77368143D01*
X164126000Y-77631857D01*
X164125157Y-77640416D01*
X164123901Y-77644556D01*
X164115965Y-77663716D01*
X164111185Y-77687750D01*
X164111185Y-77712254D01*
X164115966Y-77736287D01*
X164123901Y-77755445D01*
X164125157Y-77759584D01*
X164126000Y-77768143D01*
X164126000Y-78031857D01*
X164125157Y-78040416D01*
X164123901Y-78044556D01*
X164115965Y-78063716D01*
X164111185Y-78087750D01*
X164111185Y-78112254D01*
X164115966Y-78136287D01*
X164123901Y-78155445D01*
X164125157Y-78159584D01*
X164126000Y-78168143D01*
X164126000Y-78431857D01*
X164125157Y-78440416D01*
X164124450Y-78442745D01*
X164123305Y-78444887D01*
X164121765Y-78446765D01*
X164119887Y-78448305D01*
X164117745Y-78449450D01*
X164115416Y-78450157D01*
X164106857Y-78451000D01*
X163193141Y-78451000D01*
X163187050Y-78450400D01*
X163174600Y-78450400D01*
X163174600Y-78437950D01*
X163174000Y-78431859D01*
X163174000Y-78168143D01*
X163174843Y-78159584D01*
X163176099Y-78155444D01*
X163184035Y-78136284D01*
X163188815Y-78112250D01*
X163188815Y-78087746D01*
X163184034Y-78063713D01*
X163176099Y-78044555D01*
X163174843Y-78040416D01*
X163174000Y-78031857D01*
X163174000Y-77768143D01*
X163174843Y-77759584D01*
X163176099Y-77755444D01*
X163184035Y-77736284D01*
X163188815Y-77712250D01*
X163188815Y-77687746D01*
X163184034Y-77663713D01*
X163176099Y-77644555D01*
X163174843Y-77640416D01*
X163174000Y-77631857D01*
X163174000Y-77368143D01*
X163174843Y-77359584D01*
X163176099Y-77355444D01*
X163184035Y-77336284D01*
X163188815Y-77312250D01*
X163188815Y-77287746D01*
X163184034Y-77263713D01*
X163176099Y-77244555D01*
X163174843Y-77240416D01*
X163174000Y-77231857D01*
X163174000Y-76968143D01*
X163174843Y-76959584D01*
X163176099Y-76955444D01*
X163184035Y-76936284D01*
X163188815Y-76912250D01*
X163188815Y-76887746D01*
X163184034Y-76863713D01*
X163176099Y-76844555D01*
X163174843Y-76840416D01*
X163174000Y-76831857D01*
X163174000Y-76568143D01*
X163174843Y-76559584D01*
X163176099Y-76555444D01*
X163184035Y-76536284D01*
X163188815Y-76512250D01*
X163188815Y-76487746D01*
X163184034Y-76463713D01*
X163176099Y-76444555D01*
X163174843Y-76440416D01*
X163174000Y-76431857D01*
X163174000Y-76168143D01*
X163174843Y-76159584D01*
X163176099Y-76155444D01*
X163184035Y-76136284D01*
X163188815Y-76112250D01*
X163188815Y-76087746D01*
X163184034Y-76063713D01*
X163176099Y-76044555D01*
X163174843Y-76040416D01*
X163174000Y-76031857D01*
X163174000Y-75768143D01*
X163174843Y-75759584D01*
X163176099Y-75755444D01*
X163184035Y-75736284D01*
X163188815Y-75712250D01*
X163188815Y-75687746D01*
X163184034Y-75663713D01*
X163176099Y-75644555D01*
X163174843Y-75640416D01*
X163174000Y-75631857D01*
X163174000Y-75368143D01*
X163174843Y-75359584D01*
X163176099Y-75355444D01*
X163184035Y-75336284D01*
X163188815Y-75312250D01*
X163188815Y-75287746D01*
X163184034Y-75263713D01*
X163176099Y-75244555D01*
X163174843Y-75240416D01*
X163174000Y-75231857D01*
X163174000Y-74968143D01*
X163174843Y-74959584D01*
X163176099Y-74955444D01*
X163184035Y-74936284D01*
X163188815Y-74912250D01*
X163188815Y-74887746D01*
X163184034Y-74863713D01*
X163176099Y-74844555D01*
X163174843Y-74840416D01*
X163174000Y-74831857D01*
X163174000Y-74568143D01*
X163174843Y-74559584D01*
X163176099Y-74555444D01*
X163184035Y-74536284D01*
X163188815Y-74512250D01*
X163188815Y-74487746D01*
X163184034Y-74463713D01*
X163176099Y-74444555D01*
X163174843Y-74440416D01*
X163174000Y-74431857D01*
X163174000Y-74168143D01*
X163174843Y-74159584D01*
X163176099Y-74155444D01*
X163184035Y-74136284D01*
X163188815Y-74112250D01*
X163188815Y-74087746D01*
X163184034Y-74063713D01*
X163176099Y-74044555D01*
X163174843Y-74040416D01*
X163174000Y-74031857D01*
X163174000Y-73768141D01*
X163174600Y-73762050D01*
X163174600Y-73749600D01*
X163187050Y-73749600D01*
X163193141Y-73749000D01*
X164106857Y-73749000D01*
X164115416Y-73749843D01*
G37*
G36*
X162851000Y-78251000D02*
G01*
X158549000Y-78251000D01*
X158549000Y-73949000D01*
X162851000Y-73949000D01*
X162851000Y-78251000D01*
G37*
G36*
X158640416Y-72674843D02*
G01*
X158644556Y-72676099D01*
X158663716Y-72684035D01*
X158687750Y-72688815D01*
X158712254Y-72688815D01*
X158736287Y-72684034D01*
X158755445Y-72676099D01*
X158759584Y-72674843D01*
X158768143Y-72674000D01*
X159031857Y-72674000D01*
X159040416Y-72674843D01*
X159044556Y-72676099D01*
X159063716Y-72684035D01*
X159087750Y-72688815D01*
X159112254Y-72688815D01*
X159136287Y-72684034D01*
X159155445Y-72676099D01*
X159159584Y-72674843D01*
X159168143Y-72674000D01*
X159431857Y-72674000D01*
X159440416Y-72674843D01*
X159444556Y-72676099D01*
X159463716Y-72684035D01*
X159487750Y-72688815D01*
X159512254Y-72688815D01*
X159536287Y-72684034D01*
X159555445Y-72676099D01*
X159559584Y-72674843D01*
X159568143Y-72674000D01*
X159831857Y-72674000D01*
X159840416Y-72674843D01*
X159844556Y-72676099D01*
X159863716Y-72684035D01*
X159887750Y-72688815D01*
X159912254Y-72688815D01*
X159936287Y-72684034D01*
X159955445Y-72676099D01*
X159959584Y-72674843D01*
X159968143Y-72674000D01*
X160231857Y-72674000D01*
X160240416Y-72674843D01*
X160244556Y-72676099D01*
X160263716Y-72684035D01*
X160287750Y-72688815D01*
X160312254Y-72688815D01*
X160336287Y-72684034D01*
X160355445Y-72676099D01*
X160359584Y-72674843D01*
X160368143Y-72674000D01*
X160631857Y-72674000D01*
X160640416Y-72674843D01*
X160644556Y-72676099D01*
X160663716Y-72684035D01*
X160687750Y-72688815D01*
X160712254Y-72688815D01*
X160736287Y-72684034D01*
X160755445Y-72676099D01*
X160759584Y-72674843D01*
X160768143Y-72674000D01*
X161031857Y-72674000D01*
X161040416Y-72674843D01*
X161044556Y-72676099D01*
X161063716Y-72684035D01*
X161087750Y-72688815D01*
X161112254Y-72688815D01*
X161136287Y-72684034D01*
X161155445Y-72676099D01*
X161159584Y-72674843D01*
X161168143Y-72674000D01*
X161431857Y-72674000D01*
X161440416Y-72674843D01*
X161444556Y-72676099D01*
X161463716Y-72684035D01*
X161487750Y-72688815D01*
X161512254Y-72688815D01*
X161536287Y-72684034D01*
X161555445Y-72676099D01*
X161559584Y-72674843D01*
X161568143Y-72674000D01*
X161831857Y-72674000D01*
X161840416Y-72674843D01*
X161844556Y-72676099D01*
X161863716Y-72684035D01*
X161887750Y-72688815D01*
X161912254Y-72688815D01*
X161936287Y-72684034D01*
X161955445Y-72676099D01*
X161959584Y-72674843D01*
X161968143Y-72674000D01*
X162231857Y-72674000D01*
X162240416Y-72674843D01*
X162244556Y-72676099D01*
X162263716Y-72684035D01*
X162287750Y-72688815D01*
X162312254Y-72688815D01*
X162336287Y-72684034D01*
X162355445Y-72676099D01*
X162359584Y-72674843D01*
X162368143Y-72674000D01*
X162631857Y-72674000D01*
X162640416Y-72674843D01*
X162644556Y-72676099D01*
X162663716Y-72684035D01*
X162687750Y-72688815D01*
X162712254Y-72688815D01*
X162736287Y-72684034D01*
X162755445Y-72676099D01*
X162759584Y-72674843D01*
X162768143Y-72674000D01*
X163031857Y-72674000D01*
X163040416Y-72674843D01*
X163042745Y-72675550D01*
X163044887Y-72676695D01*
X163046765Y-72678235D01*
X163048305Y-72680113D01*
X163049450Y-72682255D01*
X163050157Y-72684584D01*
X163051000Y-72693143D01*
X163051000Y-73606859D01*
X163050400Y-73612950D01*
X163050400Y-73625400D01*
X163037950Y-73625400D01*
X163031859Y-73626000D01*
X162768143Y-73626000D01*
X162759584Y-73625157D01*
X162755444Y-73623901D01*
X162736284Y-73615965D01*
X162712250Y-73611185D01*
X162687746Y-73611185D01*
X162663713Y-73615966D01*
X162644555Y-73623901D01*
X162640416Y-73625157D01*
X162631857Y-73626000D01*
X162368143Y-73626000D01*
X162359584Y-73625157D01*
X162355444Y-73623901D01*
X162336284Y-73615965D01*
X162312250Y-73611185D01*
X162287746Y-73611185D01*
X162263713Y-73615966D01*
X162244555Y-73623901D01*
X162240416Y-73625157D01*
X162231857Y-73626000D01*
X161968143Y-73626000D01*
X161959584Y-73625157D01*
X161955444Y-73623901D01*
X161936284Y-73615965D01*
X161912250Y-73611185D01*
X161887746Y-73611185D01*
X161863713Y-73615966D01*
X161844555Y-73623901D01*
X161840416Y-73625157D01*
X161831857Y-73626000D01*
X161568143Y-73626000D01*
X161559584Y-73625157D01*
X161555444Y-73623901D01*
X161536284Y-73615965D01*
X161512250Y-73611185D01*
X161487746Y-73611185D01*
X161463713Y-73615966D01*
X161444555Y-73623901D01*
X161440416Y-73625157D01*
X161431857Y-73626000D01*
X161168143Y-73626000D01*
X161159584Y-73625157D01*
X161155444Y-73623901D01*
X161136284Y-73615965D01*
X161112250Y-73611185D01*
X161087746Y-73611185D01*
X161063713Y-73615966D01*
X161044555Y-73623901D01*
X161040416Y-73625157D01*
X161031857Y-73626000D01*
X160768143Y-73626000D01*
X160759584Y-73625157D01*
X160755444Y-73623901D01*
X160736284Y-73615965D01*
X160712250Y-73611185D01*
X160687746Y-73611185D01*
X160663713Y-73615966D01*
X160644555Y-73623901D01*
X160640416Y-73625157D01*
X160631857Y-73626000D01*
X160368143Y-73626000D01*
X160359584Y-73625157D01*
X160355444Y-73623901D01*
X160336284Y-73615965D01*
X160312250Y-73611185D01*
X160287746Y-73611185D01*
X160263713Y-73615966D01*
X160244555Y-73623901D01*
X160240416Y-73625157D01*
X160231857Y-73626000D01*
X159968143Y-73626000D01*
X159959584Y-73625157D01*
X159955444Y-73623901D01*
X159936284Y-73615965D01*
X159912250Y-73611185D01*
X159887746Y-73611185D01*
X159863713Y-73615966D01*
X159844555Y-73623901D01*
X159840416Y-73625157D01*
X159831857Y-73626000D01*
X159568143Y-73626000D01*
X159559584Y-73625157D01*
X159555444Y-73623901D01*
X159536284Y-73615965D01*
X159512250Y-73611185D01*
X159487746Y-73611185D01*
X159463713Y-73615966D01*
X159444555Y-73623901D01*
X159440416Y-73625157D01*
X159431857Y-73626000D01*
X159168143Y-73626000D01*
X159159584Y-73625157D01*
X159155444Y-73623901D01*
X159136284Y-73615965D01*
X159112250Y-73611185D01*
X159087746Y-73611185D01*
X159063713Y-73615966D01*
X159044555Y-73623901D01*
X159040416Y-73625157D01*
X159031857Y-73626000D01*
X158768143Y-73626000D01*
X158759584Y-73625157D01*
X158755444Y-73623901D01*
X158736284Y-73615965D01*
X158712250Y-73611185D01*
X158687746Y-73611185D01*
X158663713Y-73615966D01*
X158644555Y-73623901D01*
X158640416Y-73625157D01*
X158631857Y-73626000D01*
X158368141Y-73626000D01*
X158362050Y-73625400D01*
X158349600Y-73625400D01*
X158349600Y-73612950D01*
X158349000Y-73606859D01*
X158349000Y-72693143D01*
X158349843Y-72684584D01*
X158350550Y-72682255D01*
X158351695Y-72680113D01*
X158353235Y-72678235D01*
X158355113Y-72676695D01*
X158357255Y-72675550D01*
X158359584Y-72674843D01*
X158368143Y-72674000D01*
X158631857Y-72674000D01*
X158640416Y-72674843D01*
G37*
G36*
X131694794Y-68720155D02*
G01*
X131801150Y-68741311D01*
X132001520Y-68824307D01*
X132181844Y-68944795D01*
X132335205Y-69098156D01*
X132455693Y-69278480D01*
X132470299Y-69313742D01*
X132538689Y-69478850D01*
X132559844Y-69585205D01*
X132573088Y-69651782D01*
X132581000Y-69691561D01*
X132581000Y-69908439D01*
X132544612Y-70091375D01*
X132538689Y-70121149D01*
X132455693Y-70321520D01*
X132335205Y-70501844D01*
X132181844Y-70655205D01*
X132001520Y-70775693D01*
X131901334Y-70817191D01*
X131801150Y-70858689D01*
X131694795Y-70879844D01*
X131588440Y-70901000D01*
X131371560Y-70901000D01*
X131265205Y-70879844D01*
X131158850Y-70858689D01*
X131058666Y-70817191D01*
X130958480Y-70775693D01*
X130778156Y-70655205D01*
X130624795Y-70501844D01*
X130504307Y-70321520D01*
X130421311Y-70121149D01*
X130415389Y-70091375D01*
X130379000Y-69908439D01*
X130379000Y-69691561D01*
X130386913Y-69651782D01*
X130400156Y-69585205D01*
X130421311Y-69478850D01*
X130489701Y-69313742D01*
X130504307Y-69278480D01*
X130624795Y-69098156D01*
X130778156Y-68944795D01*
X130958480Y-68824307D01*
X131158850Y-68741311D01*
X131265206Y-68720155D01*
X131371560Y-68699000D01*
X131588440Y-68699000D01*
X131694794Y-68720155D01*
G37*
G36*
X137206000Y-70126000D02*
G01*
X135404000Y-70126000D01*
X135404000Y-68324000D01*
X137206000Y-68324000D01*
X137206000Y-70126000D01*
G37*
G36*
X138958512Y-68328927D02*
G01*
X139107812Y-68358624D01*
X139271784Y-68426544D01*
X139419354Y-68525147D01*
X139544853Y-68650646D01*
X139643456Y-68798216D01*
X139711376Y-68962188D01*
X139746000Y-69136259D01*
X139746000Y-69313741D01*
X139711376Y-69487812D01*
X139643456Y-69651784D01*
X139544853Y-69799354D01*
X139419354Y-69924853D01*
X139271784Y-70023456D01*
X139107812Y-70091376D01*
X138958512Y-70121073D01*
X138933742Y-70126000D01*
X138756258Y-70126000D01*
X138731488Y-70121073D01*
X138582188Y-70091376D01*
X138418216Y-70023456D01*
X138270646Y-69924853D01*
X138145147Y-69799354D01*
X138046544Y-69651784D01*
X137978624Y-69487812D01*
X137944000Y-69313741D01*
X137944000Y-69136259D01*
X137978624Y-68962188D01*
X138046544Y-68798216D01*
X138145147Y-68650646D01*
X138270646Y-68525147D01*
X138418216Y-68426544D01*
X138582188Y-68358624D01*
X138731488Y-68328927D01*
X138756258Y-68324000D01*
X138933742Y-68324000D01*
X138958512Y-68328927D01*
G37*
G36*
X141498512Y-68328927D02*
G01*
X141647812Y-68358624D01*
X141811784Y-68426544D01*
X141959354Y-68525147D01*
X142084853Y-68650646D01*
X142183456Y-68798216D01*
X142251376Y-68962188D01*
X142286000Y-69136259D01*
X142286000Y-69313741D01*
X142251376Y-69487812D01*
X142183456Y-69651784D01*
X142084853Y-69799354D01*
X141959354Y-69924853D01*
X141811784Y-70023456D01*
X141647812Y-70091376D01*
X141498512Y-70121073D01*
X141473742Y-70126000D01*
X141296258Y-70126000D01*
X141271488Y-70121073D01*
X141122188Y-70091376D01*
X140958216Y-70023456D01*
X140810646Y-69924853D01*
X140685147Y-69799354D01*
X140586544Y-69651784D01*
X140518624Y-69487812D01*
X140484000Y-69313741D01*
X140484000Y-69136259D01*
X140518624Y-68962188D01*
X140586544Y-68798216D01*
X140685147Y-68650646D01*
X140810646Y-68525147D01*
X140958216Y-68426544D01*
X141122188Y-68358624D01*
X141271488Y-68328927D01*
X141296258Y-68324000D01*
X141473742Y-68324000D01*
X141498512Y-68328927D01*
G37*
G36*
X144038512Y-68328927D02*
G01*
X144187812Y-68358624D01*
X144351784Y-68426544D01*
X144499354Y-68525147D01*
X144624853Y-68650646D01*
X144723456Y-68798216D01*
X144791376Y-68962188D01*
X144826000Y-69136259D01*
X144826000Y-69313741D01*
X144791376Y-69487812D01*
X144723456Y-69651784D01*
X144624853Y-69799354D01*
X144499354Y-69924853D01*
X144351784Y-70023456D01*
X144187812Y-70091376D01*
X144038512Y-70121073D01*
X144013742Y-70126000D01*
X143836258Y-70126000D01*
X143811488Y-70121073D01*
X143662188Y-70091376D01*
X143498216Y-70023456D01*
X143350646Y-69924853D01*
X143225147Y-69799354D01*
X143126544Y-69651784D01*
X143058624Y-69487812D01*
X143024000Y-69313741D01*
X143024000Y-69136259D01*
X143058624Y-68962188D01*
X143126544Y-68798216D01*
X143225147Y-68650646D01*
X143350646Y-68525147D01*
X143498216Y-68426544D01*
X143662188Y-68358624D01*
X143811488Y-68328927D01*
X143836258Y-68324000D01*
X144013742Y-68324000D01*
X144038512Y-68328927D01*
G37*
G36*
X146578512Y-68328927D02*
G01*
X146727812Y-68358624D01*
X146891784Y-68426544D01*
X147039354Y-68525147D01*
X147164853Y-68650646D01*
X147263456Y-68798216D01*
X147331376Y-68962188D01*
X147366000Y-69136259D01*
X147366000Y-69313741D01*
X147331376Y-69487812D01*
X147263456Y-69651784D01*
X147164853Y-69799354D01*
X147039354Y-69924853D01*
X146891784Y-70023456D01*
X146727812Y-70091376D01*
X146578512Y-70121073D01*
X146553742Y-70126000D01*
X146376258Y-70126000D01*
X146351488Y-70121073D01*
X146202188Y-70091376D01*
X146038216Y-70023456D01*
X145890646Y-69924853D01*
X145765147Y-69799354D01*
X145666544Y-69651784D01*
X145598624Y-69487812D01*
X145564000Y-69313741D01*
X145564000Y-69136259D01*
X145598624Y-68962188D01*
X145666544Y-68798216D01*
X145765147Y-68650646D01*
X145890646Y-68525147D01*
X146038216Y-68426544D01*
X146202188Y-68358624D01*
X146351488Y-68328927D01*
X146376258Y-68324000D01*
X146553742Y-68324000D01*
X146578512Y-68328927D01*
G37*
G36*
X149118512Y-68328927D02*
G01*
X149267812Y-68358624D01*
X149431784Y-68426544D01*
X149579354Y-68525147D01*
X149704853Y-68650646D01*
X149803456Y-68798216D01*
X149871376Y-68962188D01*
X149906000Y-69136259D01*
X149906000Y-69313741D01*
X149871376Y-69487812D01*
X149803456Y-69651784D01*
X149704853Y-69799354D01*
X149579354Y-69924853D01*
X149431784Y-70023456D01*
X149267812Y-70091376D01*
X149118512Y-70121073D01*
X149093742Y-70126000D01*
X148916258Y-70126000D01*
X148891488Y-70121073D01*
X148742188Y-70091376D01*
X148578216Y-70023456D01*
X148430646Y-69924853D01*
X148305147Y-69799354D01*
X148206544Y-69651784D01*
X148138624Y-69487812D01*
X148104000Y-69313741D01*
X148104000Y-69136259D01*
X148138624Y-68962188D01*
X148206544Y-68798216D01*
X148305147Y-68650646D01*
X148430646Y-68525147D01*
X148578216Y-68426544D01*
X148742188Y-68358624D01*
X148891488Y-68328927D01*
X148916258Y-68324000D01*
X149093742Y-68324000D01*
X149118512Y-68328927D01*
G37*
G36*
X151658512Y-68328927D02*
G01*
X151807812Y-68358624D01*
X151971784Y-68426544D01*
X152119354Y-68525147D01*
X152244853Y-68650646D01*
X152343456Y-68798216D01*
X152411376Y-68962188D01*
X152446000Y-69136259D01*
X152446000Y-69313741D01*
X152411376Y-69487812D01*
X152343456Y-69651784D01*
X152244853Y-69799354D01*
X152119354Y-69924853D01*
X151971784Y-70023456D01*
X151807812Y-70091376D01*
X151658512Y-70121073D01*
X151633742Y-70126000D01*
X151456258Y-70126000D01*
X151431488Y-70121073D01*
X151282188Y-70091376D01*
X151118216Y-70023456D01*
X150970646Y-69924853D01*
X150845147Y-69799354D01*
X150746544Y-69651784D01*
X150678624Y-69487812D01*
X150644000Y-69313741D01*
X150644000Y-69136259D01*
X150678624Y-68962188D01*
X150746544Y-68798216D01*
X150845147Y-68650646D01*
X150970646Y-68525147D01*
X151118216Y-68426544D01*
X151282188Y-68358624D01*
X151431488Y-68328927D01*
X151456258Y-68324000D01*
X151633742Y-68324000D01*
X151658512Y-68328927D01*
G37*
G36*
X154198512Y-68328927D02*
G01*
X154347812Y-68358624D01*
X154511784Y-68426544D01*
X154659354Y-68525147D01*
X154784853Y-68650646D01*
X154883456Y-68798216D01*
X154951376Y-68962188D01*
X154986000Y-69136259D01*
X154986000Y-69313741D01*
X154951376Y-69487812D01*
X154883456Y-69651784D01*
X154784853Y-69799354D01*
X154659354Y-69924853D01*
X154511784Y-70023456D01*
X154347812Y-70091376D01*
X154198512Y-70121073D01*
X154173742Y-70126000D01*
X153996258Y-70126000D01*
X153971488Y-70121073D01*
X153822188Y-70091376D01*
X153658216Y-70023456D01*
X153510646Y-69924853D01*
X153385147Y-69799354D01*
X153286544Y-69651784D01*
X153218624Y-69487812D01*
X153184000Y-69313741D01*
X153184000Y-69136259D01*
X153218624Y-68962188D01*
X153286544Y-68798216D01*
X153385147Y-68650646D01*
X153510646Y-68525147D01*
X153658216Y-68426544D01*
X153822188Y-68358624D01*
X153971488Y-68328927D01*
X153996258Y-68324000D01*
X154173742Y-68324000D01*
X154198512Y-68328927D01*
G37*
G36*
X156738512Y-68328927D02*
G01*
X156887812Y-68358624D01*
X157051784Y-68426544D01*
X157199354Y-68525147D01*
X157324853Y-68650646D01*
X157423456Y-68798216D01*
X157491376Y-68962188D01*
X157526000Y-69136259D01*
X157526000Y-69313741D01*
X157491376Y-69487812D01*
X157423456Y-69651784D01*
X157324853Y-69799354D01*
X157199354Y-69924853D01*
X157051784Y-70023456D01*
X156887812Y-70091376D01*
X156738512Y-70121073D01*
X156713742Y-70126000D01*
X156536258Y-70126000D01*
X156511488Y-70121073D01*
X156362188Y-70091376D01*
X156198216Y-70023456D01*
X156050646Y-69924853D01*
X155925147Y-69799354D01*
X155826544Y-69651784D01*
X155758624Y-69487812D01*
X155724000Y-69313741D01*
X155724000Y-69136259D01*
X155758624Y-68962188D01*
X155826544Y-68798216D01*
X155925147Y-68650646D01*
X156050646Y-68525147D01*
X156198216Y-68426544D01*
X156362188Y-68358624D01*
X156511488Y-68328927D01*
X156536258Y-68324000D01*
X156713742Y-68324000D01*
X156738512Y-68328927D01*
G37*
G36*
X159278512Y-68328927D02*
G01*
X159427812Y-68358624D01*
X159591784Y-68426544D01*
X159739354Y-68525147D01*
X159864853Y-68650646D01*
X159963456Y-68798216D01*
X160031376Y-68962188D01*
X160066000Y-69136259D01*
X160066000Y-69313741D01*
X160031376Y-69487812D01*
X159963456Y-69651784D01*
X159864853Y-69799354D01*
X159739354Y-69924853D01*
X159591784Y-70023456D01*
X159427812Y-70091376D01*
X159278512Y-70121073D01*
X159253742Y-70126000D01*
X159076258Y-70126000D01*
X159051488Y-70121073D01*
X158902188Y-70091376D01*
X158738216Y-70023456D01*
X158590646Y-69924853D01*
X158465147Y-69799354D01*
X158366544Y-69651784D01*
X158298624Y-69487812D01*
X158264000Y-69313741D01*
X158264000Y-69136259D01*
X158298624Y-68962188D01*
X158366544Y-68798216D01*
X158465147Y-68650646D01*
X158590646Y-68525147D01*
X158738216Y-68426544D01*
X158902188Y-68358624D01*
X159051488Y-68328927D01*
X159076258Y-68324000D01*
X159253742Y-68324000D01*
X159278512Y-68328927D01*
G37*
G36*
X161818512Y-68328927D02*
G01*
X161967812Y-68358624D01*
X162131784Y-68426544D01*
X162279354Y-68525147D01*
X162404853Y-68650646D01*
X162503456Y-68798216D01*
X162571376Y-68962188D01*
X162606000Y-69136259D01*
X162606000Y-69313741D01*
X162571376Y-69487812D01*
X162503456Y-69651784D01*
X162404853Y-69799354D01*
X162279354Y-69924853D01*
X162131784Y-70023456D01*
X161967812Y-70091376D01*
X161818512Y-70121073D01*
X161793742Y-70126000D01*
X161616258Y-70126000D01*
X161591488Y-70121073D01*
X161442188Y-70091376D01*
X161278216Y-70023456D01*
X161130646Y-69924853D01*
X161005147Y-69799354D01*
X160906544Y-69651784D01*
X160838624Y-69487812D01*
X160804000Y-69313741D01*
X160804000Y-69136259D01*
X160838624Y-68962188D01*
X160906544Y-68798216D01*
X161005147Y-68650646D01*
X161130646Y-68525147D01*
X161278216Y-68426544D01*
X161442188Y-68358624D01*
X161591488Y-68328927D01*
X161616258Y-68324000D01*
X161793742Y-68324000D01*
X161818512Y-68328927D01*
G37*
M02*
