M48
; DRILL file {KiCad (5.1.5)-3} date 15/02/2020 00:20:04
; FORMAT={3:3/ absolute / metric / suppress leading zeros}
; #@! TF.CreationDate,2020-02-15T00:20:04-08:00
; #@! TF.GenerationSoftware,Kicad,Pcbnew,(5.1.5)-3
; #@! TF.FileFunction,Plated,1,2,PTH
FMAT,2
METRIC,TZ
T1C0.200
T2C0.300
T3C0.400
T4C1.000
%
G90
G05
T1
X159125Y-74525
X159125Y-75575
X159125Y-76625
X159125Y-77675
X160175Y-74525
X160175Y-75575
X160175Y-76625
X160175Y-77675
X161225Y-74525
X161225Y-75575
X161225Y-76625
X161225Y-77675
X162275Y-74525
X162275Y-75575
X162275Y-76625
X162275Y-77675
T2
X129820Y-86430
X129820Y-89210
X129820Y-91990
X129820Y-94770
X129820Y-97550
X129820Y-100330
X129820Y-103110
X129820Y-105890
X129820Y-108670
X129820Y-111450
X129820Y-114230
X129820Y-117010
X129820Y-119790
X129820Y-122570
X129820Y-125350
X129830Y-87850
X129830Y-90630
X129830Y-93410
X129830Y-96190
X129830Y-98970
X129830Y-101750
X129830Y-104530
X129830Y-107310
X129830Y-110090
X129830Y-112870
X129830Y-115650
X129830Y-118430
X129830Y-121210
X129830Y-123990
X129830Y-126770
X131180Y-85070
X131180Y-87850
X131180Y-90630
X131180Y-93410
X131180Y-96190
X131180Y-98970
X131180Y-101750
X131180Y-104530
X131180Y-107310
X131180Y-110090
X131180Y-112870
X131180Y-115650
X131180Y-118430
X131180Y-121210
X131180Y-123990
X131180Y-126770
X131370Y-82980
X132210Y-82420
X135980Y-85060
X135980Y-87840
X135980Y-90620
X135980Y-93400
X135980Y-96180
X135980Y-98960
X135980Y-101740
X135980Y-104520
X135980Y-107300
X135980Y-110080
X135980Y-112860
X135980Y-115640
X135980Y-118420
X135980Y-121200
X135980Y-123980
X135980Y-126760
X136950Y-83560
X138320Y-86430
X138320Y-89210
X138320Y-91990
X138320Y-94770
X138320Y-97550
X138320Y-100330
X138320Y-103110
X138320Y-105890
X138320Y-108670
X138320Y-111450
X138320Y-114230
X138320Y-117010
X138320Y-119790
X138320Y-122570
X138320Y-125350
X138330Y-87850
X138330Y-90630
X138330Y-93410
X138330Y-96190
X138330Y-98970
X138330Y-101750
X138330Y-104530
X138330Y-107310
X138330Y-110090
X138330Y-112870
X138330Y-115650
X138330Y-118430
X138330Y-121210
X138330Y-123990
X138330Y-126770
X139000Y-82030
X139680Y-85070
X139680Y-87850
X139680Y-90630
X139680Y-93410
X139680Y-96190
X139680Y-98970
X139680Y-101750
X139680Y-104530
X139680Y-107310
X139680Y-110090
X139680Y-112870
X139680Y-115650
X139680Y-118430
X139680Y-121210
X139680Y-123990
X139680Y-126770
X144200Y-81420
X144480Y-85060
X144480Y-87840
X144480Y-90620
X144480Y-93400
X144480Y-96180
X144480Y-98960
X144480Y-101740
X144480Y-104520
X144480Y-107300
X144480Y-110080
X144480Y-112860
X144480Y-115640
X144480Y-118420
X144480Y-121200
X144480Y-123980
X144480Y-126760
X145550Y-82030
X146820Y-86430
X146820Y-89210
X146820Y-91990
X146820Y-94770
X146820Y-97550
X146820Y-100330
X146820Y-103110
X146820Y-105890
X146820Y-108670
X146820Y-111450
X146820Y-114230
X146820Y-117010
X146820Y-119790
X146820Y-122570
X146820Y-125350
X146830Y-87850
X146830Y-90630
X146830Y-93410
X146830Y-96190
X146830Y-98970
X146830Y-101750
X146830Y-104530
X146830Y-107310
X146830Y-110090
X146830Y-112870
X146830Y-115650
X146830Y-118430
X146830Y-121210
X146830Y-123990
X146830Y-126770
X147620Y-79310
X148180Y-85070
X148180Y-87850
X148180Y-90630
X148180Y-93410
X148180Y-96190
X148180Y-98970
X148180Y-101750
X148180Y-104530
X148180Y-107310
X148180Y-110090
X148180Y-112870
X148180Y-115650
X148180Y-118430
X148180Y-121210
X148180Y-123990
X148180Y-126770
X149490Y-79310
X151280Y-80930
X151960Y-78830
X152009Y-81158
X152215Y-81879
X152980Y-85060
X152980Y-87840
X152980Y-90620
X152980Y-93400
X152980Y-96180
X152980Y-98960
X152980Y-101740
X152980Y-104520
X152980Y-107300
X152980Y-110080
X152980Y-112860
X152980Y-115640
X152980Y-118420
X152980Y-121200
X152980Y-123980
X152980Y-126760
X154210Y-77100
X154210Y-81050
X154680Y-85880
X155089Y-75122
X155320Y-89210
X155320Y-91990
X155320Y-94770
X155320Y-97550
X155320Y-100330
X155320Y-103110
X155320Y-105890
X155320Y-108670
X155320Y-111450
X155320Y-114230
X155320Y-117010
X155320Y-119790
X155320Y-122570
X155320Y-125350
X155330Y-85060
X155330Y-87850
X155330Y-90630
X155330Y-93410
X155330Y-96190
X155330Y-98970
X155330Y-101750
X155330Y-104530
X155330Y-107310
X155330Y-110090
X155330Y-112870
X155330Y-115650
X155330Y-118430
X155330Y-121210
X155330Y-123990
X155330Y-126770
X155750Y-79690
X155920Y-75310
X156000Y-80930
X156560Y-80380
X156570Y-74120
X156585Y-86450
X156680Y-85070
X156680Y-87850
X156680Y-90630
X156680Y-93410
X156680Y-96190
X156680Y-98970
X156680Y-101750
X156680Y-104530
X156680Y-107310
X156680Y-110090
X156680Y-112870
X156680Y-115650
X156680Y-118430
X156680Y-121210
X156680Y-123990
X156680Y-126770
X158060Y-82420
X158554Y-82984
X159184Y-83570
X161480Y-87840
X161480Y-90620
X161480Y-93400
X161480Y-96180
X161480Y-98960
X161480Y-101740
X161480Y-104520
X161480Y-107300
X161480Y-110080
X161480Y-112860
X161480Y-115640
X161480Y-118420
X161480Y-121200
X161480Y-123980
X161480Y-126760
X161500Y-85000
X161584Y-85870
X161674Y-81847
X162260Y-85020
X162850Y-88090
X162930Y-90660
X163010Y-85044
X163290Y-83390
X163320Y-93050
X163550Y-95590
X163590Y-82450
X163655Y-84661
X163700Y-79840
X163950Y-80920
X164020Y-97810
X164215Y-82027
X164220Y-100150
X164370Y-73330
X164554Y-79860
X164590Y-102870
X164952Y-79225
X165080Y-104970
X165089Y-78488
X165297Y-77200
X165480Y-107530
X165643Y-77865
X165860Y-109910
X166230Y-112130
X166385Y-75919
X166560Y-114600
X166590Y-76640
X167010Y-117030
X167300Y-119770
X167320Y-75010
X167320Y-75784
T3
X141080Y-71520
X145760Y-74990
X162370Y-71740
T4
X136305Y-69225
X138845Y-69225
X141385Y-69225
X143925Y-69225
X146465Y-69225
X149005Y-69225
X151545Y-69225
X154085Y-69225
X156625Y-69225
X159165Y-69225
X161705Y-69225
T0
M30
